<svg width="332" height="231" viewBox="0 0 332 231" fill="none" xmlns="http://www.w3.org/2000/svg">
<path d="M157.721 231C244.828 231 315.442 225.783 315.442 219.348C315.442 212.913 244.828 207.696 157.721 207.696C70.614 207.696 0 212.913 0 219.348C0 225.783 70.614 231 157.721 231Z" fill="#D1D3D4"/>
<path d="M261.992 62.3175C264.314 62.2785 266.621 62.6978 268.782 63.5513C270.942 64.4048 272.913 65.6758 274.581 67.2916C276.25 68.9074 277.583 70.8363 278.506 72.9679C279.428 75.0996 279.922 77.3922 279.957 79.7146V201.119C279.888 205.146 278.225 208.982 275.334 211.786C272.442 214.59 268.557 216.134 264.529 216.08H93.4916C89.464 216.134 85.5789 214.59 82.6873 211.786C79.7956 208.982 78.1331 205.146 78.0636 201.119V58.9173C78.1331 54.8899 79.7956 51.0541 82.6873 48.25C85.5789 45.4458 89.464 43.9019 93.4916 43.9562H159.467C169.931 43.9562 178.406 52.1878 178.406 62.3277H261.992V62.3175Z" fill="#231F20"/>
<path d="M264.499 216.587H93.4916C89.3286 216.644 85.313 215.048 82.3256 212.148C79.3382 209.248 77.623 205.282 77.5562 201.119V58.9173C77.623 54.7544 79.3382 50.788 82.3256 47.8881C85.313 44.9883 89.3286 43.3917 93.4916 43.4487H159.467C170.012 43.4487 178.63 51.6499 178.904 61.8303H261.992C272.142 61.8303 280.424 69.859 280.424 79.7248V201.119C280.357 205.28 278.644 209.245 275.658 212.144C272.673 215.044 268.66 216.642 264.499 216.587ZM93.4916 44.4535C89.5961 44.3965 85.8371 45.8875 83.0397 48.5993C80.2424 51.311 78.6353 55.0218 78.5712 58.9173V201.119C78.6379 205.012 80.2462 208.721 83.0433 211.43C85.8403 214.14 89.5978 215.629 93.4916 215.572H264.499C268.393 215.629 272.15 214.14 274.947 211.43C277.744 208.721 279.353 205.012 279.419 201.119V79.7146C279.419 70.4071 271.604 62.825 261.992 62.825H178.457C178.323 62.825 178.194 62.7716 178.098 62.6764C178.003 62.5812 177.95 62.4521 177.95 62.3175C177.95 52.472 169.678 44.4535 159.517 44.4535H93.4916Z" fill="#231F20"/>
<path d="M105.885 196.166V7.12183H231.917L261.373 36.5873V192.887L105.885 196.166Z" fill="#FFBC5A"/>
<path d="M245.772 46.3617H118.796C118.729 46.3617 118.664 46.3485 118.603 46.3229C118.542 46.2972 118.487 46.2597 118.44 46.2124C118.394 46.1652 118.357 46.1091 118.333 46.0476C118.309 45.9861 118.297 45.9203 118.298 45.8542C118.298 45.7213 118.35 45.5938 118.443 45.4989C118.536 45.404 118.663 45.3493 118.796 45.3467H245.772C245.905 45.3493 246.031 45.404 246.124 45.4989C246.217 45.5938 246.269 45.7213 246.269 45.8542C246.271 45.9203 246.259 45.9861 246.234 46.0476C246.21 46.1091 246.174 46.1652 246.127 46.2124C246.081 46.2597 246.026 46.2972 245.965 46.3229C245.904 46.3485 245.838 46.3617 245.772 46.3617Z" fill="white"/>
<path d="M245.772 66.6414H118.796C118.661 66.6414 118.532 66.5879 118.437 66.4928C118.342 66.3976 118.288 66.2685 118.288 66.1339C118.288 65.9993 118.342 65.8702 118.437 65.775C118.532 65.6799 118.661 65.6264 118.796 65.6264H245.772C245.907 65.6264 246.036 65.6799 246.131 65.775C246.226 65.8702 246.28 65.9993 246.28 66.1339C246.28 66.2685 246.226 66.3976 246.131 66.4928C246.036 66.5879 245.907 66.6414 245.772 66.6414Z" fill="white"/>
<path d="M245.772 86.9211H118.796C118.663 86.9185 118.536 86.8638 118.443 86.7689C118.35 86.6741 118.298 86.5465 118.298 86.4136C118.297 86.3475 118.309 86.2817 118.333 86.2202C118.357 86.1587 118.394 86.1026 118.44 86.0554C118.487 86.0081 118.542 85.9706 118.603 85.9449C118.664 85.9193 118.729 85.9061 118.796 85.9061H245.772C245.838 85.9061 245.904 85.9193 245.965 85.9449C246.026 85.9706 246.081 86.0081 246.127 86.0554C246.174 86.1026 246.21 86.1587 246.234 86.2202C246.259 86.2817 246.271 86.3475 246.269 86.4136C246.269 86.5465 246.217 86.6741 246.124 86.7689C246.031 86.8638 245.905 86.9185 245.772 86.9211Z" fill="white"/>
<path d="M245.772 107.191H118.796C118.661 107.191 118.532 107.137 118.437 107.042C118.342 106.947 118.288 106.818 118.288 106.683C118.288 106.549 118.342 106.419 118.437 106.324C118.532 106.229 118.661 106.176 118.796 106.176H245.772C245.907 106.176 246.036 106.229 246.131 106.324C246.226 106.419 246.28 106.549 246.28 106.683C246.28 106.818 246.226 106.947 246.131 107.042C246.036 107.137 245.907 107.191 245.772 107.191Z" fill="white"/>
<path d="M135.898 21.9916H119.161C119.026 21.9916 118.897 21.9381 118.802 21.8429C118.707 21.7477 118.654 21.6187 118.654 21.4841C118.656 21.3503 118.71 21.2227 118.805 21.1281C118.9 21.0335 119.027 20.9792 119.161 20.9766H135.898C136.031 20.9792 136.158 21.0339 136.251 21.1287C136.344 21.2236 136.396 21.3512 136.396 21.4841C136.397 21.5502 136.385 21.616 136.361 21.6775C136.336 21.739 136.3 21.7951 136.254 21.8423C136.207 21.8896 136.152 21.9271 136.091 21.9528C136.03 21.9784 135.965 21.9916 135.898 21.9916Z" fill="white"/>
<path d="M61.4482 97.9136C59.3268 98.7256 55.8251 99.4868 54.9217 96.5332C54.7765 96.0083 54.7317 95.4608 54.7898 94.9193C54.8651 94.1238 55.0077 93.336 55.2161 92.5645C55.7809 90.393 56.5314 88.274 57.4592 86.2309C57.6825 85.7133 58.119 85.0941 58.6468 85.2768C59.1746 85.4595 59.1746 86.0279 59.1644 86.4948C59.1644 87.8346 58.9411 89.1846 58.9716 90.5548C61.7933 89.8342 63.5695 86.8501 66.2491 86.2106C67.0104 86.0279 67.9239 85.9772 68.0051 86.9516C68.1066 88.1594 65.9243 89.1135 65.1935 89.7428C66.0083 89.0367 66.9482 88.4893 67.9645 88.129C68.2475 88.0017 68.5594 87.9527 68.8678 87.9869C69.0212 88.0056 69.164 88.0744 69.2742 88.1827C69.3843 88.291 69.4556 88.4327 69.4768 88.5857C69.4573 88.8421 69.3412 89.0815 69.152 89.2556C68.7371 89.7283 68.2745 90.1569 67.7716 90.5345C68.275 89.9454 68.961 89.5417 69.7204 89.3876C69.9079 89.325 70.1097 89.3186 70.3008 89.3691C70.4919 89.4196 70.6641 89.5248 70.7963 89.6718C71.1008 90.1894 70.502 90.7578 69.9843 91.0522C70.3984 90.6858 70.9031 90.4369 71.4459 90.3315C71.7169 90.2858 71.9951 90.3455 72.2235 90.4984C72.4519 90.6513 72.6131 90.8857 72.6741 91.1537C72.6612 91.3671 72.6029 91.5752 72.5031 91.7643C72.4033 91.9533 72.2644 92.1189 72.0955 92.2499C69.3144 94.9599 65.021 96.5332 61.4482 97.9136Z" fill="white"/>
<path d="M58.0478 99.1518C57.3899 99.1668 56.7373 99.0314 56.1396 98.756C55.729 98.556 55.365 98.272 55.0712 97.9223C54.7775 97.5726 54.5605 97.165 54.4344 96.726C54.2701 96.1388 54.2185 95.5257 54.2822 94.9193C54.3649 94.0973 54.5108 93.2829 54.7186 92.4833C55.2961 90.2853 56.0567 88.1396 56.9922 86.0685C57.4185 85.0535 58.1189 84.6069 58.8091 84.8403C59.2151 84.9723 59.7023 85.3884 59.6718 86.5557C59.6718 87.1241 59.6718 87.7026 59.5805 88.2812C59.4891 88.8597 59.4993 89.2962 59.479 89.8646C60.5281 89.373 61.4993 88.7301 62.3616 87.9564C63.4324 86.94 64.72 86.18 66.1272 85.7335C66.4299 85.6256 66.7521 85.5834 67.0724 85.6096C67.3926 85.6359 67.7036 85.73 67.9847 85.8858C68.1406 86.007 68.2685 86.1604 68.3596 86.3356C68.4507 86.5108 68.5028 86.7036 68.5125 86.9008C68.5285 87.0924 68.5078 87.2853 68.4516 87.4692C68.6198 87.4439 68.7909 87.4439 68.9591 87.4692C69.2236 87.5107 69.4668 87.6389 69.6505 87.8336C69.8343 88.0284 69.9481 88.2786 69.9741 88.5451C69.9799 88.6364 69.9799 88.7279 69.9741 88.8191C70.2172 88.7899 70.4638 88.8273 70.6873 88.9275C70.9108 89.0276 71.1028 89.1866 71.2428 89.3875C71.3141 89.5169 71.3622 89.6578 71.3849 89.8037C71.8471 89.7565 72.3095 89.8912 72.674 90.1792C72.8122 90.2912 72.9265 90.4297 73.0101 90.5866C73.0938 90.7435 73.1452 90.9156 73.1612 91.0927C73.161 91.3811 73.0962 91.6657 72.9715 91.9257C72.8467 92.1857 72.6653 92.4144 72.4405 92.5949C69.7102 95.2847 65.6705 96.8377 62.0977 98.2079L61.6206 98.3906C60.4835 98.8517 59.2742 99.1093 58.0478 99.1518ZM58.464 85.7538C58.3422 85.7538 58.0986 86.0279 57.926 86.4237C57.0122 88.4423 56.2687 90.5337 55.7032 92.6761C55.5097 93.4264 55.3706 94.1896 55.287 94.9599C55.2382 95.437 55.2795 95.919 55.4088 96.3809C55.4853 96.6962 55.6305 96.9907 55.8341 97.2434C56.0376 97.496 56.2944 97.7006 56.5862 97.8425C57.9768 98.5225 60.1184 97.8425 61.2654 97.4365L61.7424 97.2538C65.2239 95.914 69.1621 94.4016 71.7402 91.8641C71.933 91.6713 72.1868 91.3972 72.1665 91.1739C72.1609 91.1311 72.1462 91.0899 72.1235 91.0532C72.1007 91.0164 72.0704 90.9849 72.0345 90.9608C71.96 90.8996 71.8741 90.8537 71.7818 90.8258C71.6895 90.7979 71.5925 90.7886 71.4966 90.7984C71.2212 90.8467 70.9607 90.9578 70.7353 91.1232C70.5773 91.2491 70.4112 91.3643 70.238 91.4683C70.1248 91.5311 69.9923 91.5493 69.8664 91.5193C69.7405 91.4892 69.6305 91.4131 69.5579 91.3059C69.488 91.1965 69.4617 91.0649 69.4843 90.937C69.5068 90.8092 69.5766 90.6945 69.6797 90.6157L70.1162 90.301C70.2313 90.2162 70.3194 90.0999 70.3699 89.9661C70.3192 89.8443 70.1162 89.7935 69.8218 89.8544C69.5071 89.914 69.2049 90.0273 68.9286 90.1894C68.6546 90.4431 68.3704 90.6867 68.076 90.91C67.9772 90.9916 67.8513 91.0327 67.7234 91.0252C67.5956 91.0178 67.4752 90.9622 67.3866 90.8697C67.298 90.7773 67.2476 90.6547 67.2456 90.5266C67.2436 90.3986 67.29 90.2745 67.3757 90.1792C67.6451 89.8667 67.9598 89.5964 68.3095 89.3774C68.4719 89.2251 68.6241 89.0627 68.7764 88.8902C68.9286 88.7176 68.9692 88.606 68.9692 88.5857C68.9692 88.5654 68.888 88.474 68.7764 88.4537C68.5534 88.4442 68.3312 88.4859 68.1268 88.5755C67.7788 88.7015 67.4397 88.8507 67.1118 89.0221C66.8377 89.2251 66.5535 89.4078 66.2795 89.5804C66.0233 89.7358 65.776 89.9052 65.5385 90.0879C65.4332 90.1714 65.3001 90.2116 65.1661 90.2003C65.0322 90.189 64.9077 90.127 64.8179 90.027C64.7249 89.9321 64.6728 89.8046 64.6728 89.6717C64.6728 89.5389 64.7249 89.4114 64.8179 89.3165C65.3367 88.8671 65.9054 88.4788 66.5129 88.1594C67.0407 87.7737 67.5279 87.3372 67.4569 86.9515C67.4569 86.7282 67.3655 86.6673 67.3452 86.6572C67.3249 86.647 67.0306 86.4948 66.3302 86.6572C65.0727 87.0742 63.9246 87.7679 62.9706 88.6872C61.8559 89.7338 60.5255 90.5237 59.073 91.0014C58.998 91.0197 58.9199 91.0209 58.8444 91.0051C58.7689 90.9893 58.6979 90.9568 58.6365 90.91C58.5767 90.8644 58.5275 90.8062 58.4925 90.7396C58.4574 90.673 58.4373 90.5995 58.4335 90.5243C58.4262 89.7314 58.46 88.9387 58.535 88.1492C58.535 87.591 58.6162 87.0327 58.6264 86.4745C58.6365 85.9162 58.5452 85.7741 58.4538 85.7538C58.3625 85.7335 58.4741 85.7538 58.464 85.7538Z" fill="#231F20"/>
<path d="M59.1035 90.6462C59.7461 91.4226 60.1044 92.3951 60.1191 93.4028C60.1339 94.4106 59.8043 95.3932 59.1847 96.1881H59.4689" fill="white"/>
<path d="M59.1847 96.6956C59.0886 96.6973 58.9942 96.6713 58.9126 96.6205C58.8311 96.5698 58.766 96.4965 58.7253 96.4096C58.6845 96.3226 58.6697 96.2257 58.6828 96.1306C58.6959 96.0355 58.7362 95.9461 58.799 95.8734C59.3405 95.1694 59.6283 94.303 59.6154 93.4149C59.6025 92.5268 59.2897 91.6691 58.7279 90.9811C58.6343 90.8845 58.5819 90.7553 58.5819 90.6208C58.5819 90.4863 58.6343 90.3571 58.7279 90.2605C58.7775 90.2164 58.8354 90.1826 58.8983 90.1612C58.9611 90.1399 59.0276 90.1313 59.0939 90.136C59.1601 90.1408 59.2247 90.1587 59.2838 90.1888C59.343 90.2189 59.3956 90.2605 59.4384 90.3112C60.0945 91.0964 60.4908 92.0657 60.5726 93.0856C60.6544 94.1055 60.4177 95.1257 59.8952 96.0054C59.9056 96.0522 59.9056 96.1007 59.8952 96.1475C59.9008 96.2815 59.8542 96.4124 59.7653 96.5128C59.6763 96.6131 59.5518 96.675 59.4181 96.6854H59.1035L59.1847 96.6956Z" fill="#231F20"/>
<path d="M200.454 68.0168L64.0353 54.9292L54.5564 153.732L190.975 166.82L200.454 68.0168Z" fill="white"/>
<path d="M190.993 167.35L54.5157 154.266C54.3773 154.251 54.2505 154.182 54.1631 154.073C54.0756 153.965 54.0346 153.826 54.0488 153.688L63.5187 54.8573C63.5316 54.719 63.5985 54.5913 63.7049 54.502C63.8114 54.4127 63.9487 54.3689 64.0871 54.3802L200.513 67.4636C200.582 67.4686 200.649 67.4874 200.71 67.5191C200.771 67.5507 200.825 67.5945 200.869 67.6476C200.912 67.7008 200.945 67.7623 200.964 67.8283C200.983 67.8944 200.989 67.9637 200.98 68.032L191.51 166.842C191.505 166.912 191.485 166.979 191.452 167.04C191.418 167.102 191.373 167.155 191.317 167.197C191.23 167.284 191.115 167.338 190.993 167.35ZM55.1348 153.312L190.516 166.294L199.894 68.5192L64.5134 55.5069L55.1348 153.312Z" fill="#231F20"/>
<path d="M180.315 157.931H180.264L66.8073 147.05C66.7392 147.043 66.673 147.024 66.6126 146.992C66.5522 146.959 66.4987 146.916 66.4553 146.863C66.4119 146.81 66.3794 146.749 66.3596 146.684C66.3399 146.618 66.3334 146.549 66.3404 146.481L74.2168 64.2663C74.2223 64.1969 74.2423 64.1294 74.2755 64.0682C74.3087 64.007 74.3544 63.9535 74.4096 63.9111C74.4609 63.8667 74.5206 63.8331 74.5851 63.8122C74.6496 63.7912 74.7176 63.7835 74.7852 63.7893L188.262 74.6701C188.33 74.6764 188.396 74.6962 188.457 74.7283C188.517 74.7604 188.571 74.8041 188.614 74.8569C188.658 74.9098 188.69 74.9707 188.71 75.0362C188.73 75.1017 188.736 75.1704 188.729 75.2385L180.853 157.453C180.848 157.523 180.828 157.591 180.795 157.652C180.762 157.713 180.716 157.767 180.66 157.809C180.564 157.892 180.441 157.935 180.315 157.931ZM67.4163 146.055L179.838 156.834L187.592 75.6952L75.1912 64.9159L67.4163 146.055Z" fill="#D1D3D4"/>
<path d="M12.5454 213.542L11.6826 219.856C11.6826 219.856 29.2624 221.683 28.5925 220.16C27.2969 217.969 25.8805 215.851 24.3498 213.816" fill="white"/>
<path d="M24.8574 221.317C21.0613 221.317 15.4889 220.82 11.6624 220.414C11.5943 220.409 11.5281 220.389 11.4684 220.356C11.4088 220.323 11.3572 220.277 11.3173 220.221C11.2738 220.17 11.2421 220.11 11.2246 220.045C11.207 219.98 11.204 219.912 11.2158 219.846L12.0785 213.522C12.0962 213.389 12.166 213.268 12.2725 213.186C12.3791 213.105 12.5137 213.068 12.6469 213.086C12.7801 213.103 12.9008 213.173 12.9826 213.28C13.0644 213.386 13.1007 213.521 13.0834 213.654L12.2917 219.46C19.1429 220.15 26.5017 220.566 28.0242 220.14C27.1208 218.445 23.9642 214.222 23.9642 214.172C23.9159 214.119 23.8791 214.057 23.8564 213.99C23.8336 213.922 23.8253 213.85 23.8321 213.779C23.8389 213.708 23.8606 213.64 23.8957 213.578C23.9309 213.516 23.9787 213.462 24.0361 213.419C24.0935 213.377 24.1592 213.347 24.2288 213.332C24.2985 213.317 24.3706 213.316 24.4404 213.331C24.5103 213.345 24.5763 213.374 24.6341 213.416C24.692 213.458 24.7404 213.511 24.7762 213.573C26.3329 215.631 27.7665 217.78 29.0696 220.008C29.1243 220.118 29.1466 220.241 29.134 220.363C29.1214 220.485 29.0745 220.602 28.9986 220.698C28.6535 221.094 27.0599 221.317 24.8574 221.317Z" fill="#231F20"/>
<path d="M55.9062 98.7357C55.9062 98.7357 67.3047 106.328 71.7301 104.054C74.3488 102.704 76.4397 100.776 78.8351 99.1214C81.111 97.6281 83.2939 95.9977 85.3717 94.2393C85.6095 94.0402 85.8209 93.8117 86.001 93.5592C86.1537 93.2893 86.2762 93.0033 86.3664 92.7066C86.7542 91.5492 87.2362 90.4256 87.8077 89.347C88.005 88.9126 88.3405 88.5558 88.7618 88.332C91.1064 87.4083 89.6347 92.2702 89.1576 93.1329C90.9643 91.4379 92.8319 89.7327 94.801 88.2C94.8959 88.1043 95.0103 88.0303 95.1364 87.983C95.2626 87.9357 95.3975 87.9162 95.5318 87.926C95.6711 87.9826 95.785 88.0881 95.8522 88.2225C95.9194 88.357 95.9354 88.5114 95.8972 88.6568C95.8169 88.9449 95.663 89.2073 95.4506 89.418L92.3041 93.1228C93.2016 92.0334 94.1824 91.0153 95.2375 90.0778C95.613 89.7327 96.6788 88.7177 97.2675 89.1237C98.2114 89.8342 94.8416 93.6506 94.2225 94.2799C95.1135 93.0586 96.1612 91.9598 97.3385 91.0116C97.6506 90.7011 98.0662 90.5168 98.5058 90.4939C98.7392 90.7274 98.5058 91.1232 98.3129 91.377L96.1205 93.9043C97.2269 92.6863 98.455 91.3973 100.069 91.0928C100.15 91.3567 99.9572 91.6206 99.7745 91.8337C96.5468 95.5994 93.309 99.3143 89.9087 102.918C85.3818 107.708 80.4692 113.24 74.024 115.098C66.381 117.331 59.5399 112.804 53.2571 108.916" fill="white"/>
<path d="M69.9031 116.133C64.0161 116.133 58.6061 112.773 53.724 109.748L52.983 109.292C52.8686 109.22 52.7872 109.107 52.7568 108.975C52.7263 108.844 52.7493 108.706 52.8206 108.591C52.892 108.477 53.0058 108.396 53.1372 108.365C53.2685 108.335 53.4066 108.358 53.521 108.429L54.2619 108.886C60.3519 112.692 66.7464 116.63 73.8717 114.549C79.8095 112.804 84.5597 107.759 88.7415 103.313L89.5332 102.471C92.8827 98.9286 96.1104 95.2137 98.8813 91.986C97.9824 92.5868 97.1755 93.3151 96.4859 94.1479C96.4388 94.1955 96.3826 94.2332 96.3208 94.259C96.2589 94.2848 96.1926 94.298 96.1256 94.298C96.0586 94.298 95.9923 94.2848 95.9305 94.259C95.8686 94.2332 95.8125 94.1955 95.7653 94.1479C95.6723 94.0531 95.6202 93.9255 95.6202 93.7927C95.6202 93.6598 95.6723 93.5323 95.7653 93.4374L97.5212 91.4074C97.0633 91.7825 96.6262 92.1823 96.2119 92.6051C95.6333 93.3562 95.0243 94.0464 94.6285 94.4829C94.5341 94.5728 94.4087 94.623 94.2783 94.623C94.1479 94.623 94.0225 94.5728 93.9281 94.4829C93.8298 94.3998 93.766 94.283 93.7491 94.1554C93.7322 94.0278 93.7635 93.8985 93.8368 93.7927C94.3194 93.1361 94.8449 92.5122 95.41 91.9251C96.1221 91.1837 96.6383 90.2768 96.9122 89.2861C96.4499 89.5261 96.0286 89.8379 95.6638 90.2097C94.903 90.8926 94.1812 91.6178 93.5018 92.3818L92.7203 93.3055C92.6782 93.3569 92.6262 93.3994 92.5674 93.4304C92.5086 93.4614 92.4441 93.4803 92.3779 93.486C92.3117 93.4917 92.245 93.484 92.1817 93.4634C92.1185 93.4429 92.06 93.4099 92.0098 93.3664C91.9067 93.2812 91.8415 93.1588 91.8282 93.0257C91.8149 92.8927 91.8546 92.7598 91.9387 92.6559C92.2026 92.3412 92.4665 92.0164 92.7406 91.7119L95.0954 88.9511C95.2461 88.7993 95.3606 88.6154 95.4303 88.4132C95.4482 88.364 95.4482 88.3101 95.4303 88.2609C95.4303 88.2609 95.3694 88.2609 95.1664 88.4538C93.1364 90.0473 91.1876 91.8236 89.5535 93.3562C89.4654 93.4361 89.352 93.4825 89.2331 93.4873C89.1143 93.4921 88.9975 93.455 88.9032 93.3825C88.8089 93.3099 88.7431 93.2066 88.7173 93.0905C88.6914 92.9744 88.7072 92.8529 88.7618 92.7472C89.1881 91.9758 89.929 89.1744 89.452 88.6263C89.3708 88.535 89.0764 88.6263 88.9952 88.6263C88.6837 88.8128 88.4441 89.0989 88.3152 89.4383C87.7566 90.4958 87.2815 91.5954 86.8942 92.7269C86.804 93.0832 86.6639 93.4249 86.478 93.7419C86.2773 94.0363 86.0345 94.2996 85.7574 94.5235C83.847 96.1591 81.8368 97.6744 79.7384 99.0605L79.1802 99.4462C78.3783 100.004 77.5968 100.603 76.8355 101.182C75.3308 102.398 73.7207 103.479 72.0244 104.41C67.3859 106.795 56.16 99.3853 55.6931 99.0605C55.6369 99.0246 55.5886 98.9777 55.5509 98.9228C55.5132 98.8678 55.4869 98.8058 55.4737 98.7405C55.4604 98.6751 55.4604 98.6078 55.4737 98.5425C55.487 98.4771 55.5133 98.4151 55.551 98.3602C55.6254 98.2489 55.7407 98.1716 55.8719 98.145C56.0031 98.1183 56.1395 98.1446 56.2513 98.2181C59.3572 100.248 68.1471 105.262 71.5677 103.506C73.2118 102.603 74.771 101.553 76.2265 100.37C76.9878 99.7812 77.7795 99.1823 78.6016 98.6139L79.1599 98.2282C81.2228 96.8634 83.1991 95.3718 85.0773 93.7622C85.2856 93.5992 85.4701 93.4079 85.6254 93.1938C85.749 92.9755 85.8478 92.744 85.9198 92.5036C86.3239 91.3053 86.8228 90.1412 87.4118 89.0222C87.648 88.459 88.0809 88.0008 88.6298 87.7331C88.8815 87.5879 89.1748 87.532 89.4622 87.5743C89.7496 87.6167 90.0142 87.7549 90.2132 87.9666C90.7918 88.6263 90.6395 90.0473 90.335 91.2552C91.6342 90.0676 93.0552 88.8192 94.5473 87.6621C94.6978 87.5148 94.8814 87.4057 95.0827 87.3439C95.284 87.2821 95.4972 87.2694 95.7044 87.3068C95.9433 87.38 96.15 87.5326 96.2903 87.7394C96.4305 87.9461 96.496 88.1946 96.4758 88.4436C96.6519 88.36 96.847 88.3244 97.0413 88.3405C97.2355 88.3565 97.4221 88.4236 97.5821 88.535C97.6888 88.6127 97.7768 88.7131 97.84 88.8289C97.9031 88.9448 97.9399 89.0731 97.9475 89.2049C97.9622 89.4578 97.9206 89.7109 97.8257 89.9458C98.0679 89.8377 98.3324 89.789 98.5971 89.8037C98.7203 89.8132 98.8358 89.8674 98.9219 89.956C99.0146 90.0455 99.0849 90.1555 99.1272 90.2771C99.1695 90.3988 99.1826 90.5287 99.1655 90.6563C99.4444 90.5445 99.7333 90.4595 100.028 90.4026C100.153 90.3826 100.28 90.4088 100.387 90.476C100.493 90.5433 100.571 90.6471 100.607 90.768C100.647 90.9863 100.632 91.2113 100.563 91.4223C100.493 91.6332 100.373 91.8235 100.211 91.9758C97.3284 95.3456 93.8977 99.3041 90.3249 103.08L89.5433 103.912C85.2702 108.459 80.4083 113.616 74.2168 115.432C72.8201 115.872 71.3672 116.108 69.9031 116.133Z" fill="#231F20"/>
<path d="M51.8766 127.968L63.0619 214.659L51.0545 214.344L36.1238 153.069L25.4866 214.496L12.0074 213.542L19.5793 123.877L51.8766 127.968Z" fill="#231F20"/>
<path d="M32.2973 95.2441C32.6323 88.0071 31.1707 73.3302 31.1707 73.3302C31.1707 73.3302 40.3869 73.858 43.4928 69.4225C47.2889 72.3964 48.0704 80.7803 47.3802 83.2874C45.9998 88.2304 39.5749 87.1444 39.5749 87.1444L40.397 96.1982L32.2973 95.2441Z" fill="white"/>
<path d="M40.4173 96.7057H40.3564L32.2364 95.7415C32.109 95.7262 31.9921 95.6633 31.9093 95.5654C31.8264 95.4675 31.7837 95.3418 31.7898 95.2137C32.1247 88.1087 30.6834 73.5231 30.6631 73.381C30.6576 73.3072 30.6674 73.2331 30.6918 73.1632C30.7163 73.0934 30.7549 73.0293 30.8052 72.975C30.8571 72.9237 30.919 72.8836 30.9872 72.8574C31.0553 72.8312 31.1281 72.8194 31.2011 72.8228C31.2924 72.8228 40.1737 73.2795 43.0766 69.1383C43.1154 69.0801 43.1663 69.0309 43.2259 68.9941C43.2854 68.9573 43.3522 68.9338 43.4217 68.9252C43.5586 68.9073 43.697 68.9437 43.8074 69.0267C47.7862 72.1427 48.5982 80.7702 47.8674 83.4194C46.6595 87.7737 41.889 87.8448 40.1331 87.7128L40.9045 96.1475C40.9101 96.2237 40.8994 96.3002 40.8732 96.372C40.8469 96.4437 40.8057 96.5091 40.7522 96.5636C40.662 96.6508 40.5426 96.7014 40.4173 96.7057ZM32.8454 94.7975L39.859 95.6197L39.0876 87.1952C39.0819 87.1181 39.0935 87.0407 39.1216 86.9687C39.1497 86.8967 39.1936 86.8319 39.25 86.779C39.3049 86.7239 39.3725 86.6831 39.4468 86.6601C39.5211 86.6371 39.5999 86.6327 39.6763 86.6471C39.9199 86.6471 45.675 87.591 46.9031 83.1555C47.4918 81.0341 46.9031 73.31 43.5841 70.1635C40.5391 73.7261 33.7995 73.8885 31.7492 73.8581C32.0029 76.5783 33.0585 88.3523 32.8352 94.7975H32.8454Z" fill="#231F20"/>
<path d="M39.585 87.1444C38.1364 86.9705 36.7635 86.4017 35.6163 85.5001C35.6163 85.5001 37.3621 89.8849 40.0722 90.5751L39.585 87.1444Z" fill="#231F20"/>
<path d="M40.0722 91.0014H39.9606C37.0577 90.301 35.2611 85.8655 35.1799 85.6828C35.1399 85.5831 35.1362 85.4725 35.1696 85.3704C35.203 85.2683 35.2714 85.1812 35.3626 85.1245C35.4504 85.0639 35.557 85.0367 35.6632 85.0479C35.7693 85.059 35.8679 85.1078 35.9412 85.1854C37.0176 86.0135 38.2975 86.536 39.6459 86.6978C39.7465 86.7105 39.8399 86.7563 39.9116 86.828C39.9833 86.8996 40.0291 86.9931 40.0418 87.0936L40.529 90.4837C40.5396 90.5578 40.5322 90.6334 40.5075 90.7041C40.4827 90.7747 40.4414 90.8384 40.3869 90.8897C40.2989 90.9636 40.1871 91.0033 40.0722 91.0014ZM36.7938 86.8297C37.4102 88.0677 38.3457 89.1188 39.5038 89.8747L39.179 87.591C38.3568 87.4318 37.5562 87.1763 36.7938 86.8297Z" fill="#231F20"/>
<path d="M46.5073 91.519L67.5584 103.06L62.4834 117.787C62.4834 117.787 36.0325 103.78 35.8498 99.9943C35.6671 96.2083 46.5073 91.519 46.5073 91.519Z" fill="#FFBC5A"/>
<path d="M53.2265 135.976C53.2265 135.976 54.0893 116.965 52.2115 105.526C51.4097 100.654 51.7243 97.2335 50.1105 94.5945C44.6904 85.7437 23.5784 88.3827 20.5131 94.5235C17.4478 100.664 15.0422 136.159 15.0422 136.159L53.2265 135.976Z" fill="#FFBC5A"/>
<path d="M32.683 78.4763C32.5674 77.9074 32.2966 77.3816 31.9007 76.9571C31.5048 76.5325 30.9992 76.2258 30.4398 76.0707C30.1891 75.9881 29.9236 75.9598 29.6611 75.9878C29.3985 76.0158 29.145 76.0994 28.9173 76.2331C28.6534 76.46 28.4522 76.751 28.3331 77.078C28.214 77.4051 28.181 77.7573 28.2373 78.1007C28.3245 79.1986 28.8208 80.2238 29.6278 80.9732C30.4411 81.7111 31.5037 82.1137 32.6018 82.0998" fill="white"/>
<path d="M32.5307 82.6074C31.3124 82.6105 30.1382 82.1513 29.2452 81.3224C28.3522 80.4935 27.807 79.3566 27.7196 78.1414C27.6555 77.7079 27.7061 77.2652 27.8664 76.8574C28.0266 76.4495 28.291 76.0908 28.6331 75.817C28.9192 75.6382 29.2408 75.5237 29.5756 75.4816C29.9104 75.4396 30.2503 75.4709 30.5718 75.5734C31.2215 75.7566 31.8084 76.1148 32.2684 76.6088C32.7284 77.1028 33.0439 77.7137 33.1803 78.3748C33.1937 78.4401 33.194 78.5075 33.1814 78.5729C33.1687 78.6383 33.1432 78.7007 33.1065 78.7563C33.0697 78.8119 33.0224 78.8597 32.9671 78.897C32.9119 78.9343 32.8498 78.9604 32.7845 78.9737C32.6514 78.9976 32.5143 78.9685 32.4024 78.8927C32.2904 78.8168 32.2127 78.7002 32.1856 78.5677C32.0868 78.0906 31.8597 77.6494 31.5288 77.2917C31.198 76.9341 30.7759 76.6734 30.3079 76.5377C30.1288 76.474 29.9379 76.4501 29.7486 76.4676C29.5593 76.4852 29.3761 76.5437 29.2117 76.6392C29.0268 76.8202 28.8872 77.0424 28.8043 77.2875C28.7214 77.5327 28.6975 77.7939 28.7346 78.05C28.8107 79.0172 29.2494 79.9199 29.9628 80.5774C30.6792 81.2294 31.6128 81.5912 32.5815 81.5924C32.7153 81.595 32.8429 81.6493 32.9375 81.7439C33.0321 81.8385 33.0864 81.9661 33.089 82.0999C33.089 82.2345 33.0355 82.3636 32.9403 82.4587C32.8452 82.5539 32.7161 82.6074 32.5815 82.6074H32.5307Z" fill="#231F20"/>
<path d="M44.0439 74.9308C44.2794 74.8574 44.3606 74.4464 44.2254 74.013C44.0901 73.5795 43.7896 73.2877 43.5541 73.3612C43.3187 73.4346 43.2375 73.8456 43.3727 74.279C43.508 74.7125 43.8085 75.0043 44.0439 74.9308Z" fill="#231F20"/>
<path d="M51.0545 214.344C51.0545 214.344 50.7196 219.582 51.3996 220.434C52.0797 221.287 68.9388 222.332 68.0964 220.302C67.2539 218.272 62.0064 213.979 62.0064 213.979" fill="white"/>
<path d="M61.9353 221.987C57.2054 221.987 51.5315 221.409 51.0037 220.739C50.2628 219.815 50.4658 215.593 50.547 214.314C50.5598 214.179 50.6239 214.055 50.7258 213.966C50.8278 213.877 50.96 213.831 51.0951 213.837C51.1618 213.842 51.2268 213.86 51.2865 213.89C51.3461 213.921 51.3991 213.963 51.4425 214.014C51.4859 214.065 51.5188 214.124 51.5393 214.187C51.5598 214.251 51.5675 214.318 51.562 214.385C51.4097 216.811 51.4605 219.693 51.7954 220.109C54.4231 220.63 57.0945 220.899 59.7733 220.911C64.7367 221.084 67.0915 220.718 67.5787 220.394C66.8174 218.79 63.1228 215.522 61.7323 214.375C61.6798 214.332 61.6362 214.28 61.6042 214.221C61.5721 214.161 61.5522 214.096 61.5456 214.029C61.539 213.962 61.5458 213.894 61.5656 213.83C61.5855 213.766 61.618 213.706 61.6612 213.654C61.7464 213.551 61.8688 213.486 62.0019 213.472C62.1349 213.459 62.2678 213.499 62.3717 213.583C62.595 213.766 67.6802 217.988 68.5632 220.109C68.6492 220.325 68.6486 220.566 68.5616 220.781C68.4747 220.997 68.308 221.171 68.0963 221.266C67.2234 221.784 64.7773 221.987 61.9353 221.987Z" fill="#231F20"/>
<path d="M45.807 74.3655C45.807 74.3655 49.5117 78.5879 48.5982 79.5014C47.6847 80.4149 45.5532 79.9582 45.5532 79.9582" fill="white"/>
<path d="M46.7305 80.5774C46.298 80.5761 45.8666 80.5353 45.4415 80.4556C45.376 80.4412 45.3141 80.414 45.2592 80.3755C45.2043 80.337 45.1576 80.2881 45.1217 80.2314C45.0859 80.1748 45.0616 80.1117 45.0503 80.0456C45.0389 79.9795 45.0408 79.9119 45.0558 79.8466C45.069 79.7815 45.0951 79.7198 45.1326 79.6649C45.17 79.6101 45.2181 79.5634 45.2739 79.5274C45.3297 79.4915 45.3921 79.4671 45.4575 79.4557C45.5229 79.4442 45.5899 79.446 45.6546 79.4609C46.1418 79.5624 47.6846 79.7248 48.2429 79.1462C48.4154 78.7098 47.0756 76.5884 45.4313 74.7005C45.3828 74.655 45.3441 74.5999 45.3176 74.5388C45.2912 74.4777 45.2775 74.4118 45.2775 74.3453C45.2775 74.2787 45.2912 74.2128 45.3176 74.1517C45.3441 74.0906 45.3828 74.0356 45.4313 73.99C45.4785 73.9425 45.5346 73.9047 45.5965 73.8789C45.6583 73.8532 45.7247 73.8399 45.7917 73.8399C45.8587 73.8399 45.925 73.8532 45.9868 73.8789C46.0487 73.9047 46.1048 73.9425 46.152 73.99C47.6542 75.7054 50.009 78.7301 48.9229 79.8161C48.3153 80.3391 47.5315 80.6112 46.7305 80.5774Z" fill="#231F20"/>
<path d="M62.4936 118.295C62.4117 118.295 62.3312 118.274 62.2601 118.234C62.1079 118.163 47.5528 110.388 42.2545 107.505C42.1947 107.474 42.1418 107.432 42.099 107.38C42.0562 107.328 42.0243 107.268 42.0053 107.204C41.9863 107.139 41.9806 107.071 41.9886 107.005C41.9965 106.938 42.0179 106.873 42.0515 106.815C42.0823 106.757 42.1245 106.705 42.1756 106.663C42.2267 106.621 42.2856 106.59 42.3489 106.571C42.4122 106.552 42.4787 106.546 42.5443 106.553C42.61 106.56 42.6737 106.58 42.7315 106.612C48.04 109.495 62.5849 117.259 62.7372 117.341C62.7959 117.373 62.8478 117.416 62.8898 117.468C62.9319 117.52 62.9632 117.579 62.9821 117.644C63.0009 117.708 63.007 117.775 62.9998 117.841C62.9926 117.908 62.9723 117.972 62.9402 118.031C62.8972 118.112 62.8328 118.179 62.754 118.226C62.6752 118.272 62.5851 118.296 62.4936 118.295Z" fill="#231F20"/>
<path d="M36.1239 153.576C36.0621 153.577 36.0007 153.566 35.9432 153.544C35.8857 153.521 35.8333 153.487 35.7889 153.444C35.6976 153.363 33.5661 151.353 31.3635 143.944C31.3282 143.813 31.3443 143.674 31.4085 143.555C31.4728 143.436 31.5802 143.346 31.7086 143.304C31.8378 143.269 31.9755 143.286 32.0928 143.35C32.2101 143.414 32.298 143.522 32.3379 143.649C34.439 150.754 36.3979 152.683 36.469 152.693C36.5166 152.74 36.5543 152.796 36.5801 152.858C36.6058 152.92 36.6191 152.986 36.6191 153.053C36.6191 153.12 36.6058 153.187 36.5801 153.249C36.5543 153.31 36.5166 153.367 36.469 153.414C36.425 153.462 36.3719 153.501 36.3126 153.529C36.2534 153.557 36.1893 153.573 36.1239 153.576Z" fill="white"/>
<path d="M155.721 125.674C155.646 125.675 155.571 125.659 155.503 125.627C155.434 125.596 155.374 125.549 155.325 125.491C154.919 125.034 115.294 79.6639 110.31 76.1114C108.392 74.731 96.5061 79.4101 71.6488 97.9237C71.5365 97.9931 71.4024 98.018 71.2727 97.9934C71.143 97.9688 71.0273 97.8964 70.9483 97.7907C70.8694 97.685 70.8328 97.5535 70.846 97.4222C70.8592 97.2908 70.9211 97.1692 71.0195 97.0813C71.1108 97.0204 79.6876 90.636 88.782 84.7896C107.448 72.772 110.097 74.6396 110.919 75.2588C115.994 78.8823 154.473 122.964 156.107 124.801C156.204 124.9 156.259 125.033 156.259 125.171C156.259 125.31 156.204 125.443 156.107 125.542C156 125.633 155.862 125.68 155.721 125.674Z" fill="#D1D3D4"/>
<path d="M184.456 118.031C184.365 118.031 184.275 118.008 184.195 117.963C184.115 117.919 184.047 117.855 183.999 117.777C175.727 104.156 166.166 89.9154 164.481 89.6616C162.776 89.9052 148.809 101.101 140.415 108.094C140.306 108.171 140.173 108.204 140.041 108.186C139.909 108.168 139.788 108.102 139.703 107.999C139.619 107.896 139.576 107.765 139.584 107.632C139.591 107.499 139.649 107.374 139.745 107.282C141.988 105.414 161.75 89.012 164.369 88.6162C165.232 88.4741 168.977 91.042 184.903 117.239C184.973 117.359 184.994 117.502 184.96 117.637C184.925 117.772 184.839 117.888 184.72 117.96C184.64 118.008 184.549 118.033 184.456 118.031Z" fill="#D1D3D4"/>
<path d="M143.166 88.9308C142.306 88.9308 141.466 88.6758 140.751 88.198C140.037 87.7202 139.48 87.0411 139.151 86.2467C138.823 85.4523 138.737 84.5784 138.906 83.7354C139.074 82.8924 139.489 82.1184 140.098 81.5112C140.706 80.9041 141.481 80.4911 142.324 80.3247C143.168 80.1582 144.042 80.2457 144.835 80.576C145.629 80.9064 146.307 81.4648 146.783 82.1805C147.259 82.8962 147.512 83.7372 147.51 84.5968C147.507 85.7472 147.048 86.8495 146.234 87.662C145.42 88.4745 144.316 88.9308 143.166 88.9308ZM143.166 81.298C142.513 81.298 141.876 81.4915 141.333 81.854C140.791 82.2164 140.368 82.7316 140.118 83.3344C139.868 83.9372 139.803 84.6004 139.93 85.2403C140.058 85.8802 140.372 86.468 140.833 86.9294C141.294 87.3907 141.882 87.7049 142.522 87.8321C143.162 87.9594 143.825 87.8941 144.428 87.6444C145.031 87.3947 145.546 86.9719 145.909 86.4295C146.271 85.887 146.464 85.2492 146.464 84.5968C146.464 83.7219 146.117 82.8828 145.498 82.2642C144.88 81.6456 144.041 81.298 143.166 81.298Z" fill="#D1D3D4"/>
<path d="M40.2144 81.1356C40.4382 81.6927 40.8117 82.1771 41.2935 82.5353C41.7753 82.8935 42.3467 83.1117 42.9447 83.1656C43.536 83.2017 44.1279 83.1057 44.6774 82.8845C45.2269 82.6632 45.7203 82.3224 46.1217 81.8867" fill="white"/>
<path d="M43.239 83.6325H42.8939C42.2081 83.5761 41.551 83.3323 40.9943 82.9277C40.4376 82.5232 40.0028 81.9735 39.7373 81.3386C39.6888 81.2121 39.6926 81.0715 39.7478 80.9478C39.803 80.8241 39.9051 80.7273 40.0316 80.6789C40.1582 80.6304 40.2987 80.6342 40.4225 80.6894C40.5462 80.7446 40.6429 80.8467 40.6914 80.9732C40.8853 81.4328 41.2018 81.8302 41.6064 82.122C42.011 82.4138 42.488 82.5887 42.9853 82.6277C43.5008 82.656 44.0162 82.5707 44.495 82.3778C44.9738 82.1848 45.4044 81.889 45.7562 81.5112C45.8034 81.4636 45.8595 81.4258 45.9214 81.4001C45.9832 81.3743 46.0496 81.361 46.1166 81.361C46.1835 81.361 46.2499 81.3743 46.3117 81.4001C46.3736 81.4258 46.4297 81.4636 46.4769 81.5112C46.5241 81.5575 46.5617 81.6128 46.5873 81.6738C46.613 81.7348 46.6262 81.8003 46.6262 81.8664C46.6262 81.9326 46.613 81.9981 46.5873 82.0591C46.5617 82.1201 46.5241 82.1754 46.4769 82.2217C46.0586 82.6609 45.5566 83.012 45.0005 83.2543C44.4445 83.4966 43.8455 83.6252 43.239 83.6325Z" fill="#231F20"/>
<path d="M28.6434 86.5963C26.6016 86.5969 24.5884 86.1171 22.7665 85.1956C21.8606 84.7936 21.0991 84.1242 20.5843 83.2773C20.3059 82.7623 20.1959 82.1731 20.2696 81.5924C19.4516 81.7114 18.6169 81.5693 17.8844 81.1864C16.8223 80.5898 15.9123 79.7562 15.2251 78.7504C14.9793 78.469 14.8425 78.1089 14.8394 77.7354C14.8802 77.3766 15.0496 77.0449 15.3164 76.8016L15.9965 76.0606C17.2482 74.8004 18.3423 73.3928 19.2546 71.8687C19.806 70.77 20.2611 69.6255 20.6147 68.4481C20.9091 67.5651 21.2136 66.6516 21.6297 65.7787C24.3702 59.5872 29.4351 58.5823 34.0432 58.4098C36.9461 58.3083 40.8132 59.2218 42.5692 62.1145C42.6839 62.0291 42.8104 61.9607 42.9447 61.9115C43.4957 61.7081 44.1047 61.73 44.6398 61.9724C45.3973 62.4007 46.0037 63.0531 46.3754 63.84C48.0891 66.9344 48.8583 70.4632 48.5881 73.99C48.5844 74.0572 48.567 74.123 48.5371 74.1833C48.5071 74.2436 48.4653 74.2972 48.414 74.3409C48.3628 74.3845 48.3032 74.4173 48.2389 74.4373C48.1746 74.4572 48.107 74.4639 48.04 74.4569C47.9071 74.4465 47.7837 74.3843 47.6963 74.2836C47.609 74.183 47.5647 74.052 47.5731 73.919C47.8227 70.6039 47.0996 67.2881 45.4924 64.378C45.2052 63.7878 44.7449 63.2992 44.1729 62.9773C43.8865 62.861 43.566 62.861 43.2797 62.9773C43.1954 63.0058 43.1178 63.0511 43.0516 63.1104C42.9853 63.1697 42.9317 63.2418 42.894 63.3224C42.855 63.4116 42.7913 63.4877 42.7103 63.5417C42.6293 63.5957 42.5345 63.6253 42.4372 63.6269C42.3387 63.6248 42.2428 63.5951 42.1603 63.5413C42.0778 63.4875 42.012 63.4116 41.9703 63.3224C40.6508 60.3687 36.8953 59.4248 34.0533 59.5466C27.9024 59.7699 24.5631 61.7288 22.5432 66.3065C22.1819 67.1492 21.8635 68.0097 21.5891 68.8846C21.2005 70.0954 20.7081 71.2704 20.1174 72.3965C19.1688 73.9952 18.023 75.4684 16.707 76.7813L16.0371 77.5222C15.9442 77.6089 15.8685 77.7122 15.8138 77.8267C15.8633 77.9698 15.9469 78.0987 16.0574 78.2023C16.6479 79.0851 17.4325 79.8212 18.3513 80.3541C18.7682 80.5838 19.2385 80.6991 19.7145 80.6884C20.1904 80.6777 20.6551 80.5413 21.0613 80.2932C21.1682 80.2207 21.2988 80.1917 21.4263 80.2121C21.5539 80.2325 21.6689 80.3008 21.7478 80.4031C21.8268 80.5053 21.8637 80.6338 21.8512 80.7624C21.8387 80.891 21.7776 81.0099 21.6805 81.095C21.4588 81.3273 21.3198 81.6262 21.2849 81.9454C21.25 82.2646 21.3213 82.5864 21.4876 82.8611C21.9225 83.4936 22.5279 83.9899 23.2334 84.2923C25.1154 85.2465 27.2169 85.6843 29.3234 85.561C29.3904 85.5555 29.4578 85.5636 29.5215 85.5848C29.5853 85.6061 29.6441 85.64 29.6943 85.6846C29.7446 85.7292 29.7853 85.7835 29.814 85.8442C29.8427 85.905 29.8588 85.9709 29.8614 86.0381C29.8655 86.1048 29.8564 86.1716 29.8346 86.2347C29.8129 86.2979 29.7788 86.3561 29.7345 86.4061C29.6902 86.4561 29.6365 86.4968 29.5764 86.526C29.5163 86.5551 29.451 86.5721 29.3843 86.576L28.6434 86.5963Z" fill="#231F20"/>
<path d="M146.353 96.4114H320.74C328.322 96.4114 332.352 101.679 329.723 108.175L290.503 205.219C287.884 211.715 279.602 216.983 272.02 216.983H97.6227C90.0407 216.983 86.0213 211.715 88.6501 205.219L127.86 108.175C130.488 101.679 138.761 96.4114 146.353 96.4114Z" fill="white"/>
<path d="M272.02 217.511H97.6227C93.6338 217.511 90.3553 216.049 88.6298 213.451C87.1073 211.167 86.8942 208.122 88.1223 205.077L127.332 108.033C130.032 101.365 138.497 95.9445 146.312 95.9445H320.74C324.739 95.9445 328.018 97.4061 329.733 99.9537C331.306 102.278 331.479 105.293 330.21 108.429L290.99 205.463C288.301 212.081 279.785 217.511 272.02 217.511ZM146.353 96.9392C138.974 96.9392 130.894 102.014 128.347 108.378L89.1373 205.412C88.0107 208.214 88.1223 210.883 89.5129 212.913C91.0354 215.166 93.989 216.466 97.6329 216.466H272.02C279.399 216.466 287.468 211.33 290.026 205.027L329.236 107.982C330.372 105.181 330.251 102.522 328.87 100.492C327.348 98.2282 324.384 96.9392 320.75 96.9392H146.353Z" fill="#231F20"/>
<path d="M261.373 37.0745H231.938C231.869 37.0758 231.8 37.0634 231.736 37.038C231.672 37.0126 231.614 36.9747 231.565 36.9265C231.516 36.8783 231.477 36.8208 231.45 36.7573C231.424 36.6938 231.41 36.6257 231.41 36.5568V7.15227C231.387 7.07372 231.383 6.99103 231.398 6.91072C231.413 6.83041 231.447 6.75466 231.496 6.68944C231.545 6.62423 231.609 6.57132 231.682 6.53489C231.755 6.49846 231.836 6.47949 231.917 6.47949C231.999 6.47949 232.08 6.49846 232.153 6.53489C232.226 6.57132 232.289 6.62423 232.339 6.68944C232.388 6.75466 232.421 6.83041 232.436 6.91072C232.451 6.99103 232.447 7.07372 232.425 7.15227V36.029H261.362C261.441 36.0066 261.524 36.0027 261.604 36.0176C261.684 36.0326 261.76 36.066 261.825 36.1152C261.891 36.1644 261.943 36.228 261.98 36.3011C262.016 36.3742 262.035 36.4548 262.035 36.5365C262.035 36.6182 262.016 36.6988 261.98 36.7719C261.943 36.845 261.891 36.9087 261.825 36.9579C261.76 37.0071 261.684 37.0405 261.604 37.0554C261.524 37.0704 261.441 37.0665 261.362 37.044L261.373 37.0745Z" fill="#231F20"/>
<path d="M157.812 26.4373C157.007 26.4145 156.224 26.1716 155.548 25.7349C154.871 25.2983 154.328 24.6847 153.975 23.9607C152.788 21.6769 149.489 9.75066 148.9 5.00046C148.719 3.93474 148.961 2.84022 149.576 1.95073C150.19 1.06124 151.128 0.447316 152.189 0.240111C154.493 -0.399339 157.65 0.240114 158.492 2.13816C159.182 3.70126 160.4 6.64476 160.4 6.64476L159.436 7.05076C159.436 7.05076 158.157 4.10726 157.508 2.55431C156.97 1.31601 154.463 0.676563 152.433 1.24496C151.617 1.39103 150.892 1.85418 150.416 2.53317C149.941 3.21217 149.753 4.05179 149.895 4.86851C150.545 9.94351 153.833 21.4435 154.889 23.4735C155.187 24.1216 155.691 24.6531 156.323 24.9853C156.954 25.3175 157.677 25.4319 158.381 25.3106C158.896 25.1428 159.333 24.795 159.613 24.3308C159.893 23.8666 159.996 23.3172 159.903 22.7833C159.771 18.9466 154.595 4.91926 154.544 4.77716C154.52 4.71258 154.509 4.64382 154.512 4.57494C154.514 4.50606 154.531 4.43843 154.56 4.37602C154.59 4.31362 154.631 4.25771 154.682 4.21155C154.733 4.1654 154.793 4.12994 154.859 4.10726C154.988 4.06083 155.13 4.06666 155.255 4.12352C155.38 4.18038 155.478 4.28379 155.528 4.41176C155.742 5.00046 160.806 18.7436 160.949 22.7427C161.056 23.5167 160.883 24.3037 160.46 24.9611C160.038 25.6184 159.393 26.1025 158.644 26.3256C158.373 26.3972 158.093 26.4347 157.812 26.4373Z" fill="#231F20"/>
<path d="M300.572 128.485H240.839C240.217 128.525 239.595 128.405 239.031 128.137C238.468 127.868 237.983 127.461 237.622 126.953C237.27 126.338 237.076 125.646 237.054 124.938C237.033 124.23 237.186 123.528 237.5 122.893L239.53 117.99C240.186 116.528 241.224 115.27 242.535 114.348C243.846 113.426 245.382 112.875 246.98 112.753H306.723C307.345 112.718 307.965 112.84 308.527 113.108C309.09 113.376 309.576 113.781 309.94 114.286C310.292 114.901 310.486 115.592 310.508 116.3C310.529 117.008 310.376 117.711 310.062 118.346L308.032 123.258C307.375 124.721 306.334 125.978 305.021 126.898C303.708 127.818 302.171 128.367 300.572 128.485ZM247 113.727C245.607 113.84 244.27 114.326 243.129 115.133C241.988 115.94 241.085 117.039 240.514 118.315L238.484 123.228C238.229 123.707 238.096 124.242 238.096 124.786C238.096 125.329 238.229 125.864 238.484 126.344C238.763 126.694 239.123 126.97 239.534 127.147C239.945 127.324 240.393 127.397 240.839 127.359H300.572C301.956 127.256 303.287 126.785 304.428 125.995C305.568 125.204 306.476 124.122 307.058 122.862L309.088 117.96C309.344 117.479 309.478 116.942 309.478 116.397C309.478 115.852 309.344 115.315 309.088 114.834C308.818 114.473 308.462 114.187 308.052 114.001C307.642 113.814 307.192 113.734 306.743 113.768L247 113.727Z" fill="#D1D3D4"/>
</svg>
