<svg width="205" height="169" viewBox="0 0 205 169" fill="none" xmlns="http://www.w3.org/2000/svg">
<path d="M92.7824 67.3202L27.0416 103.964L95.9494 144.219L160.237 106.501L92.7824 67.3202Z" fill="#EED9CF"/>
<path d="M160.237 108.965L95.9314 146.44L114.374 156.668L178.662 118.95L160.237 108.965Z" fill="#5C5E6D"/>
<path d="M160.238 106.501L95.9495 144.219V146.44L160.238 108.965V106.501Z" fill="#887277"/>
<path d="M178.68 118.941L114.392 156.659V158.871L178.68 121.397V118.941Z" fill="#42444F"/>
<path d="M94.8576 67.573L94.8125 132.058L135.858 107.99L135.894 43.4959L94.8576 67.573Z" fill="#65260F"/>
<path d="M120.005 140.644L122.188 140.906L138.059 132.049L136.192 131.562L132.312 131.128L122.504 136.635L120.005 140.644Z" fill="#1E1E1E"/>
<path d="M113.815 134.451L118.434 131.065L119.806 127.635L126.194 131.39L124.994 134.857L120.004 138.269L113.815 134.451Z" fill="#2B2B6A"/>
<path d="M113.815 134.451V136.87L120.004 140.644V138.269L113.815 134.451Z" fill="#26245D"/>
<path d="M120.004 140.752L122.296 139.271C122.296 139.271 122.188 137.403 123.496 136.915C124.805 136.419 125.039 137.755 125.039 137.755L131.509 133.963C131.509 133.963 131.382 132.266 132.79 131.688C134.206 131.11 134.351 132.419 134.351 132.419L136.191 131.544V128.844L132.312 130.605L124.967 134.848L119.977 138.251V140.761H120.004V140.752Z" fill="#493491"/>
<path d="M136.191 128.862L129.081 124.746L126.194 126.569L132.312 130.614L136.191 128.862Z" fill="#2B2B6A"/>
<path d="M119.806 127.635L124.606 124.746L131.184 128.492L132.312 130.614L124.994 134.857L126.194 131.39L119.806 127.635Z" fill="#493491"/>
<path d="M123.92 137.024C124.137 137.005 124.371 137.087 124.516 137.24C124.705 137.43 124.877 137.818 124.768 138.459C124.66 139.082 124.407 139.443 124.191 139.678C123.956 139.912 123.613 140.039 123.289 140.021C122.946 139.976 122.558 139.768 122.522 138.946C122.441 137.71 123.28 137.087 123.92 137.024Z" fill="#030303"/>
<path d="M123.731 137.818C123.857 137.8 123.965 137.863 124.056 137.944C124.164 138.053 124.245 138.242 124.209 138.612C124.146 138.937 124.02 139.145 123.884 139.28C123.758 139.407 123.587 139.47 123.388 139.452C123.199 139.434 123 139.299 122.964 138.874C122.937 138.179 123.388 137.836 123.731 137.818Z" fill="#B8B3B3"/>
<path d="M133.169 131.67C133.385 131.652 133.62 131.733 133.764 131.887C133.954 132.076 134.125 132.465 134.017 133.106C133.909 133.728 133.656 134.09 133.439 134.324C133.205 134.559 132.862 134.685 132.537 134.667C132.194 134.622 131.806 134.415 131.77 133.593C131.716 132.356 132.546 131.733 133.169 131.67Z" fill="#030303"/>
<path d="M132.997 132.437C133.124 132.419 133.232 132.483 133.322 132.564C133.43 132.672 133.512 132.862 133.476 133.232C133.412 133.557 133.286 133.764 133.151 133.9C133.024 134.026 132.853 134.089 132.655 134.071C132.465 134.053 132.267 133.918 132.23 133.494C132.185 132.826 132.636 132.483 132.997 132.437Z" fill="#B8B3B3"/>
<path d="M125.265 135.227L125.905 135.444C126.122 135.507 126.329 135.363 126.329 135.119C126.329 134.965 126.221 134.839 126.077 134.794L125.238 134.559V135.227H125.265Z" fill="#191B48"/>
<path d="M126.618 131.327L130.94 128.862L131.888 130.487L125.68 134.062L126.618 131.327Z" fill="#96D0E0"/>
<path d="M118.931 131.282L124.606 134.667L125.743 131.562L120.104 128.213L118.931 131.282Z" fill="#AEE1F3"/>
<path d="M120.005 139.597L120.853 139.037V138.071L120.005 138.649V139.597Z" fill="#F6A45F"/>
<path d="M120.004 139.894L113.815 136.148V136.87L120.004 140.644V139.894Z" fill="#191B48"/>
<path d="M115.863 137.385V138.134L117.406 139.082V138.333L115.863 137.385Z" fill="#E8E5E3"/>
<path d="M120.004 138.649L118.669 137.881V138.847L120.004 139.596V138.649Z" fill="#F7963D"/>
<path d="M115.114 135.696L113.815 134.884V135.841L115.114 136.635V135.696Z" fill="#F7963D"/>
<path d="M115.114 135.696L118.669 137.881V138.847L115.114 136.635V135.696Z" fill="#D3D3D0"/>
<path d="M128.784 132.266V130.081L128.973 129.973V132.203L128.784 132.266Z" fill="#493491"/>
<path d="M127.99 133.747V133.981L128.784 133.512V133.25L127.99 133.747Z" fill="#191B48"/>
<path d="M131.283 131.797V132.049L132.077 131.598V131.345L131.283 131.797Z" fill="#191B48"/>
<path d="M114.834 135.092L119.463 131.598L120.104 131.986L115.249 135.326L114.834 135.092Z" fill="#493491"/>
<path d="M117.983 137.024L122.783 133.575L123.343 133.918L118.371 137.258L117.983 137.024Z" fill="#493491"/>
<path d="M146.099 126.479L148.075 126.714L162.421 118.724L160.716 118.282L157.233 117.894L148.363 122.868L146.099 126.479Z" fill="#1E1E1E"/>
<path d="M140.55 120.774L144.727 117.722L145.963 114.626L151.729 118.011L150.646 121.144L146.135 124.222L140.55 120.774Z" fill="#DF3626"/>
<path d="M140.55 120.774V122.958L146.135 126.362V124.222L140.55 120.774Z" fill="#CE2328"/>
<path d="M146.135 126.461L148.201 125.125C148.201 125.125 148.102 123.446 149.284 122.994C150.466 122.552 150.673 123.753 150.673 123.753L156.511 120.331C156.511 120.331 156.394 118.806 157.675 118.282C158.947 117.758 159.082 118.941 159.082 118.941L160.743 118.146V115.709L157.242 117.298L150.61 121.126L146.126 124.222V126.461H146.135Z" fill="#EF4124"/>
<path d="M160.752 115.727L154.355 112.008L151.729 113.66L157.278 117.316L160.752 115.727Z" fill="#DF3626"/>
<path d="M145.963 114.626L150.312 112.008L156.249 115.393L157.278 117.316L150.646 121.144L151.729 118.011L145.963 114.626Z" fill="#EF4124"/>
<path d="M149.672 123.094C149.861 123.076 150.078 123.148 150.213 123.283C150.384 123.455 150.538 123.807 150.448 124.385C150.348 124.944 150.123 125.278 149.924 125.486C149.708 125.703 149.401 125.811 149.112 125.793C148.805 125.757 148.454 125.558 148.417 124.827C148.345 123.717 149.094 123.157 149.672 123.094Z" fill="#030303"/>
<path d="M149.5 123.816C149.617 123.798 149.717 123.852 149.789 123.933C149.888 124.033 149.96 124.204 149.924 124.529C149.87 124.818 149.753 125.017 149.636 125.125C149.518 125.242 149.365 125.297 149.193 125.278C149.022 125.26 148.841 125.143 148.805 124.755C148.787 124.141 149.193 123.834 149.5 123.816Z" fill="#B8B3B3"/>
<path d="M158.045 118.264C158.234 118.246 158.451 118.318 158.586 118.454C158.758 118.625 158.911 118.977 158.821 119.555C158.722 120.115 158.496 120.449 158.298 120.656C158.081 120.873 157.774 120.981 157.486 120.963C157.179 120.927 156.827 120.729 156.791 119.997C156.71 118.878 157.468 118.318 158.045 118.264Z" fill="#030303"/>
<path d="M157.873 118.959C157.991 118.941 158.09 118.995 158.162 119.076C158.261 119.176 158.334 119.347 158.297 119.672C158.243 119.961 158.126 120.16 158.009 120.268C157.891 120.385 157.738 120.44 157.567 120.422C157.395 120.403 157.215 120.286 157.179 119.898C157.161 119.302 157.567 118.995 157.873 118.959Z" fill="#B8B3B3"/>
<path d="M150.89 121.469L151.467 121.658C151.657 121.713 151.855 121.577 151.855 121.37C151.855 121.234 151.756 121.117 151.621 121.081L150.863 120.864V121.46H150.89V121.469Z" fill="#AE1F25"/>
<path d="M152.108 117.948L156.015 115.727L156.872 117.199L151.278 120.431L152.108 117.948Z" fill="#96D0E0"/>
<path d="M145.169 117.912L150.312 120.972L151.341 118.165L146.234 115.149L145.169 117.912Z" fill="#AEE1F3"/>
<path d="M146.135 125.414L146.911 124.917V124.042L146.135 124.565V125.414Z" fill="#F6A45F"/>
<path d="M146.135 125.685L140.55 122.299V122.958L146.135 126.362V125.685Z" fill="#AE1F25"/>
<path d="M142.408 123.428V124.105L143.816 124.954V124.276L142.408 123.428Z" fill="#E8E5E3"/>
<path d="M146.135 124.565L144.962 123.87V124.737L146.135 125.414V124.565Z" fill="#F7963D"/>
<path d="M141.732 121.893L140.55 121.162V122.028L141.732 122.751V121.893Z" fill="#F7963D"/>
<path d="M141.732 121.893L144.962 123.87V124.737L141.732 122.751V121.893Z" fill="#D3D3D0"/>
<path d="M154.066 118.806V116.847L154.255 116.729V118.742L154.066 118.806Z" fill="#EF4124"/>
<path d="M153.353 120.133V120.349L154.066 119.925V119.69L153.353 120.133Z" fill="#AE1F25"/>
<path d="M156.331 118.399V118.607L157.062 118.201V117.966L156.331 118.399Z" fill="#AE1F25"/>
<path d="M141.497 121.351L145.657 118.201L146.252 118.553L141.849 121.568L141.497 121.351Z" fill="#F0504B"/>
<path d="M144.321 123.094L148.652 119.979L149.157 120.295L144.664 123.31L144.321 123.094Z" fill="#F0504B"/>
<path d="M95.9494 144.219L27.0416 103.964V108.306L95.9494 148.344V144.219Z" fill="#D3B9AC"/>
<path d="M41.7309 104.849C42.7865 106.113 42.4888 107.34 41.0632 107.575C39.6375 107.81 37.6254 106.979 36.5698 105.706C35.5141 104.442 35.8118 103.215 37.2375 102.98C38.6631 102.745 40.6752 103.576 41.7309 104.849Z" fill="#4D6830"/>
<g opacity="0.2">
<g opacity="0.2">
<path opacity="0.2" d="M44.1039 109.155C44.7445 109.994 45.6468 110.599 46.7385 110.807C46.4408 110.735 46.1791 110.545 45.9716 110.274C46.1882 110.545 46.4498 110.735 46.7566 110.798C46.8198 110.807 46.8829 110.816 46.9551 110.825C47.7491 110.951 48.5521 110.843 49.2559 110.572C49.3101 110.563 49.3552 110.563 49.4093 110.554C49.9326 110.328 50.3748 110.003 50.7627 109.597C50.7627 109.588 50.7718 109.561 50.7898 109.525C51.268 109.038 51.6199 108.424 51.8365 107.719C51.8726 107.629 52.044 106.763 51.6199 106.004C52.026 106.708 51.8996 107.503 51.8545 107.719C51.8996 107.539 51.9447 107.367 51.9718 107.187C52.1523 106.013 51.8455 104.885 51.2229 103.982C50.5552 103.043 49.5447 102.366 48.3085 102.167C46.2242 101.842 44.2392 103.052 43.5264 104.957L39.3308 104.307C39.0691 104.262 38.8074 104.533 38.7443 104.903C38.6901 105.273 38.8526 105.607 39.1142 105.652L43.2377 106.293C43.1835 107.349 43.5174 108.351 44.1039 109.155C44.1039 109.146 44.1039 109.146 44.1039 109.155ZM49.3642 109.976C48.3536 110.383 48.0739 109.534 48.092 108.965C48.0739 109.525 48.3536 110.365 49.3642 109.976C49.9597 109.733 50.2124 109.281 50.3206 109.01C50.2214 109.281 49.9687 109.733 49.3642 109.976ZM48.1461 108.622C48.1281 108.676 48.11 108.74 48.101 108.821C48.11 108.74 48.1281 108.676 48.1461 108.622C48.3176 108.207 49.0664 107.476 49.7702 107.602C49.0664 107.494 48.3176 108.216 48.1461 108.622ZM51.1327 107.756C51.241 108.18 51.0605 108.821 50.9071 109.209C51.0515 108.812 51.2319 108.198 51.1327 107.792C50.9613 107.151 50.1131 106.076 48.5792 106.979C47.4604 107.629 47.2077 108.523 47.1987 109.11C47.1987 108.523 47.4423 107.593 48.5792 106.934C50.0951 106.058 50.9613 107.115 51.1327 107.756ZM50.1402 103.314C49.1206 102.872 47.4694 102.592 45.5926 103.946C45.4122 104.072 45.2588 104.208 45.1144 104.343C45.2588 104.208 45.4212 104.072 45.5926 103.946C47.4694 102.574 49.1206 102.863 50.1402 103.314Z" fill="#392620"/>
<path opacity="0.2" d="M51.8456 107.719C51.8456 107.738 51.8365 107.747 51.8365 107.765C51.8365 107.756 51.8456 107.738 51.8456 107.719Z" fill="#392620"/>
</g>
</g>
<path d="M38.4375 100.064H39.7999V105.49C39.7999 105.76 39.4932 105.977 39.1142 105.977C38.7352 105.977 38.4285 105.76 38.4285 105.49L38.4375 100.064Z" fill="url(#paint0_linear)"/>
<path d="M37.481 94.259C37.0299 96.1277 38.1758 97.6173 39.7368 98.5472C41.2887 99.459 43.6166 98.4389 43.7068 97.1389C43.7068 97.0757 43.7068 97.0125 43.7068 96.9403C43.7068 96.0736 43.4452 95.243 43.0121 94.5569C43.4632 95.9833 42.7955 96.6604 42.4075 96.8319C42.0376 97.0034 40.7112 97.2833 39.6104 95.9201C38.5006 94.5569 39.4119 93.5368 40.0165 93.275C40.621 93.0131 41.812 93.3381 41.8571 93.3652C41.2977 92.959 40.621 92.6972 39.8811 92.5888C39.7368 92.5618 37.9232 92.4986 37.481 94.259Z" fill="#647E39"/>
<path d="M40.0616 93.2749C39.4571 93.5367 38.5278 94.5479 39.6556 95.9201C40.7654 97.2833 42.0828 97.0034 42.4527 96.8319C42.8226 96.6604 43.5084 95.9652 43.0572 94.5569C42.7505 94.0784 42.3625 93.6902 41.9113 93.3652C41.8391 93.3652 40.6391 93.0222 40.0616 93.2749ZM42.4888 94.6923C43.1835 95.8569 41.767 96.209 41.3429 96.1006C40.9098 95.9923 40.0707 95.3604 40.0887 94.6562C40.0887 93.961 41.1444 93.8798 41.1444 93.8798C41.1444 93.8798 41.9925 93.8437 42.4888 94.6923Z" fill="#78A03F"/>
<path d="M37.1112 99.3507C34.4224 96.6604 36.1999 93.916 36.2901 93.7806C35.469 94.5841 34.9457 95.6854 34.9457 96.9403C34.9457 99.3688 36.9217 101.337 39.3398 101.337C40.576 101.337 41.6768 100.822 42.4798 100.01C41.3158 100.579 39.0421 101.274 37.1112 99.3507Z" fill="#415325"/>
<path d="M39.7549 98.5472C38.2029 97.6354 37.048 96.1188 37.4991 94.259C37.9322 92.4806 39.7549 92.5618 39.9263 92.5889C39.7278 92.5708 39.5383 92.5438 39.3398 92.5438C38.1488 92.5438 37.0841 93.0222 36.2901 93.7806C36.1998 93.8889 34.4494 96.6604 37.1111 99.3507C39.033 101.274 41.3068 100.588 42.4798 100.019C43.2196 99.2604 43.6708 98.2674 43.7159 97.1569C43.6076 98.4299 41.2978 99.45 39.7549 98.5472Z" fill="#4D6830"/>
<path d="M40.0797 94.6472C40.0797 95.3694 40.9008 95.9923 41.3339 96.0916C41.767 96.2 43.1565 95.8479 42.4798 94.6833C41.9835 93.8618 41.1354 93.8618 41.1354 93.8618C41.1354 93.8618 40.0797 93.934 40.0797 94.6472Z" fill="url(#paint1_radial)"/>
<path d="M73.4013 55.0333L73.4735 87.9035L51.4486 75.075L51.4305 106.726L94.8036 132.031L94.8487 67.5368L73.4013 55.0333Z" fill="#B24F26"/>
<path d="M67.7529 116.251L75.0615 111.953L75.0164 120.485L67.7529 116.251Z" fill="#5C5E6D"/>
<path opacity="0.2" d="M94.8125 132.058L166.653 132.031L191.457 103.422L162.89 82.1438H99.7661L94.8125 132.058Z" fill="#392620"/>
<path d="M67.7529 116.251V103.215L75.0886 107.512L75.0615 111.954L67.7529 116.251Z" fill="#E5DACE"/>
<path d="M51.4485 75.0751L73.4734 62.1293V87.9036L51.4485 75.0751Z" fill="#5C5E6D"/>
<path d="M93.1343 18.218L129.163 39.1444L135.876 39.4243L93.1343 14.4986V18.218Z" fill="#FFFFFC"/>
<path d="M51.4215 42.2771L51.4486 75.075L53.2892 76.1493V43.3153L51.4215 42.2771Z" fill="#5C5E6D"/>
<path d="M53.2893 76.1494L54.4443 75.5084V44.0556L53.2893 43.3154V76.1494Z" fill="#242D34"/>
<path opacity="0.5" d="M73.4012 55.0333L51.4665 42.25L51.4485 75.075L73.4734 87.9035L73.4012 55.0333Z" fill="#00BAE7"/>
<path opacity="0.5" d="M61.7707 48.2625L51.4575 55.5569V59.2132L64.5497 49.8784L61.7707 48.2625Z" fill="#FFFFFC"/>
<path d="M63.0159 115.908V87.5244L78.1833 96.3716V124.755L74.9983 122.922L75.0885 107.512L65.6957 102.014L65.6686 117.451L63.0159 115.908Z" fill="#70491D"/>
<path d="M63.0159 87.5243L65.1002 86.3055L80.2496 95.1708L78.1833 96.3715L63.0159 87.5243Z" fill="#9B6533"/>
<path d="M80.2496 95.1709V123.554L78.1833 124.755V96.3716L80.2496 95.1709Z" fill="#503216"/>
<path d="M65.6686 117.451L67.7529 116.251V103.215L65.6956 102.014L65.6686 117.451Z" fill="#503216"/>
<path opacity="0.5" d="M75.0164 120.485L67.7529 116.251V103.215L75.0886 107.512L75.0164 120.485Z" fill="#00BAE7"/>
<path d="M65.6686 91.6049V99.748L75.0885 105.237V97.1209L65.6686 91.6049Z" fill="#EFE8DF"/>
<path d="M66.246 91.9389V99.4139L65.6686 99.748V91.6049L66.246 91.9389Z" fill="#DCD2C7"/>
<path d="M65.6686 99.7479L66.246 99.4139L75.0885 104.569V105.237L65.6686 99.7479Z" fill="#BCB1A6"/>
<path opacity="0.5" d="M71.4252 105.363V118.39L71.6778 118.544V105.517L71.4252 105.363Z" fill="#00A2BC"/>
<path d="M71.1816 110.609L70.3064 110.095V111.918L71.1816 112.433V110.609Z" fill="#EBE6E5"/>
<path d="M70.3064 110.094L70.4598 110.003L71.335 110.518L71.1816 110.608L70.3064 110.094Z" fill="#DDDAD3"/>
<path d="M71.335 110.518V112.333L71.1816 112.432V110.608L71.335 110.518Z" fill="#B7B3AB"/>
<path d="M72.6163 111.44L71.7411 110.925V112.749L72.6163 113.263V111.44Z" fill="#EBE6E5"/>
<path d="M71.7411 110.924L71.8945 110.834L72.7697 111.349L72.6163 111.439L71.7411 110.924Z" fill="#DDDAD3"/>
<path d="M72.7697 111.349V113.163L72.6163 113.263V111.439L72.7697 111.349Z" fill="#B7B3AB"/>
<path d="M93.1343 18.2181L53.0276 40.6792L89.8229 62.1834L129.163 39.1445L93.1343 18.2181Z" fill="#B69F99"/>
<path d="M89.8228 62.1834L53.0275 40.6792L47.0543 41.5188L89.8228 66.4084V62.1834Z" fill="#FFFFFC"/>
<path d="M106.181 68.4576V117.406L107.553 118.165V67.6451L106.181 68.4576Z" fill="#B24F26"/>
<path d="M106.181 117.406L98.7555 121.667V123.337L107.553 118.165L106.181 117.406Z" fill="#89301C"/>
<path d="M106.181 68.4577L105.008 69.1348V116.729L106.181 117.406V68.4577Z" fill="#392620"/>
<path d="M105.008 116.729L98.7555 120.376V121.667L106.181 117.406L105.008 116.729Z" fill="#392620"/>
<path d="M101.832 71.0035V114.878L105.008 116.729V69.1347L101.832 71.0035Z" fill="#B49C82"/>
<path d="M101.832 114.878L98.7555 116.485V120.376L105.008 116.729L101.832 114.878Z" fill="#9B8167"/>
<path d="M103.871 69.8028V116.07L105.008 116.729V69.1347L103.871 69.8028Z" fill="#281915"/>
<path d="M105.008 80.2479L98.7555 84.0305V85.5111L105.008 81.6924V80.2479Z" fill="#392620"/>
<path d="M105.008 80.2479H103.871L98.7555 83.2813V84.0306L105.008 80.2479Z" fill="#16100F"/>
<path d="M105.008 93.9972L98.7555 97.7798V99.2604L105.008 95.4416V93.9972Z" fill="#392620"/>
<path d="M105.008 93.9972H103.871L98.7555 97.0305V97.7798L105.008 93.9972Z" fill="#16100F"/>
<path d="M105.008 105.779L98.7555 109.561V111.042L105.008 107.223V105.779Z" fill="#392620"/>
<path d="M105.008 105.779H103.871L98.7555 108.812V109.561L105.008 105.779Z" fill="#16100F"/>
<path d="M103.871 116.07L98.7555 118.986V120.376L105.008 116.729L103.871 116.07Z" fill="#16100F"/>
<path opacity="0.5" d="M98.7014 72.8542L98.7556 120.376L104.963 116.729L105.008 69.1347L98.7014 72.8542Z" fill="#00BAE7"/>
<path opacity="0.3" d="M105.008 70.1097L98.7555 79.4445V82.1438L105.008 72.7368V70.1097Z" fill="white"/>
<path opacity="0.3" d="M105.008 78.2257L98.7555 88.2014V89.4202L105.008 79.2549V78.2257Z" fill="white"/>
<path opacity="0.3" d="M105.008 90.1966L98.7555 102.258V108.812L105.008 95.8841V90.1966Z" fill="white"/>
<path opacity="0.3" d="M105.008 104.885L98.7555 119.203V120.376L105.008 106.149V104.885Z" fill="white"/>
<path d="M118.669 61.091V110.049L120.041 110.807V60.2785L118.669 61.091Z" fill="#B24F26"/>
<path d="M118.669 110.049L111.243 114.301V115.971L120.041 110.807L118.669 110.049Z" fill="#89301C"/>
<path d="M118.669 61.0911L117.496 61.7772V109.363L118.669 110.049V61.0911Z" fill="#392620"/>
<path d="M117.496 109.363L111.243 113.01V114.301L118.669 110.049L117.496 109.363Z" fill="#392620"/>
<path d="M114.32 63.6368V107.512L117.496 109.362V61.777L114.32 63.6368Z" fill="#B49C82"/>
<path d="M114.32 107.512L111.243 109.119V113.01L117.496 109.363L114.32 107.512Z" fill="#9B8167"/>
<path d="M116.359 62.4361V108.703L117.496 109.362V61.777L116.359 62.4361Z" fill="#281915"/>
<path d="M117.496 72.8813L111.243 76.664V78.1445L117.496 74.3258V72.8813Z" fill="#392620"/>
<path d="M117.496 72.8813H116.359L111.243 75.9147V76.664L117.496 72.8813Z" fill="#16100F"/>
<path d="M117.496 86.6307L111.243 90.4133V91.8939L117.496 88.0751V86.6307Z" fill="#392620"/>
<path d="M117.496 86.6307H116.359L111.243 89.664V90.4133L117.496 86.6307Z" fill="#16100F"/>
<path d="M117.496 98.4119L111.243 102.195V103.675L117.496 99.8563V98.4119Z" fill="#392620"/>
<path d="M117.496 98.4119H116.359L111.243 101.445V102.195L117.496 98.4119Z" fill="#16100F"/>
<path d="M116.359 108.703L111.243 111.619V113.01L117.496 109.363L116.359 108.703Z" fill="#16100F"/>
<path opacity="0.5" d="M111.198 65.4875L111.243 113.01L117.451 109.362L117.496 61.777L111.198 65.4875Z" fill="#00BAE7"/>
<path opacity="0.3" d="M117.496 62.7431L111.243 72.0778V74.7771L117.496 65.3702V62.7431Z" fill="white"/>
<path opacity="0.3" d="M117.496 70.8591L111.243 80.8348V82.0535L117.496 71.8882V70.8591Z" fill="white"/>
<path opacity="0.3" d="M117.496 82.8389L111.243 94.8909V101.445L117.496 88.5264V82.8389Z" fill="white"/>
<path opacity="0.3" d="M117.496 97.518L111.243 111.836V113.01L117.496 98.7909V97.518Z" fill="white"/>
<path d="M130.633 54.0763V103.034L132.005 103.792V53.2728L130.633 54.0763Z" fill="#B24F26"/>
<path d="M130.633 103.034L123.208 107.295V108.965L132.005 103.792L130.633 103.034Z" fill="#89301C"/>
<path d="M130.633 54.0763L129.469 54.7624V102.357L130.633 103.034V54.0763Z" fill="#392620"/>
<path d="M129.469 102.357L123.208 106.004V107.295L130.633 103.034L129.469 102.357Z" fill="#392620"/>
<path d="M126.293 56.6311V100.506L129.469 102.357V54.7624L126.293 56.6311Z" fill="#B49C82"/>
<path d="M126.293 100.506L123.208 102.104V106.004L129.469 102.357L126.293 100.506Z" fill="#9B8167"/>
<path d="M128.333 55.4214V101.698L129.469 102.357V54.7624L128.333 55.4214Z" fill="#281915"/>
<path d="M129.469 65.8755L123.208 69.6582V71.1387L129.469 67.32V65.8755Z" fill="#392620"/>
<path d="M129.469 65.8756H128.333L123.208 68.9089V69.6582L129.469 65.8756Z" fill="#16100F"/>
<path d="M129.469 79.625L123.208 83.4077V84.8792L129.469 81.0694V79.625Z" fill="#392620"/>
<path d="M129.469 79.625H128.333L123.208 82.6583V83.4076L129.469 79.625Z" fill="#16100F"/>
<path d="M129.469 91.4063L123.208 95.1889V96.6604L129.469 92.8507V91.4063Z" fill="#392620"/>
<path d="M129.469 91.4063H128.333L123.208 94.4396V95.1889L129.469 91.4063Z" fill="#16100F"/>
<path d="M128.333 101.698L123.208 104.614V106.004L129.469 102.357L128.333 101.698Z" fill="#16100F"/>
<path opacity="0.5" d="M123.162 58.4818L123.207 106.004L129.415 102.357L129.469 54.7624L123.162 58.4818Z" fill="#00BAE7"/>
<path opacity="0.3" d="M129.469 55.7374L123.208 65.0721V67.7624L129.469 58.3555V55.7374Z" fill="white"/>
<path opacity="0.3" d="M129.469 63.8444L123.208 73.8291V75.0479L129.469 64.8826V63.8444Z" fill="white"/>
<path opacity="0.3" d="M129.469 75.8242L123.208 87.8853V94.4395L129.469 81.5117V75.8242Z" fill="white"/>
<path opacity="0.3" d="M129.469 90.5124L123.208 104.83V106.004L129.469 91.7763V90.5124Z" fill="white"/>
<path d="M47.0543 41.5189V45.5994L89.8228 70.5251V66.4085L47.0543 41.5189Z" fill="#EDE9E0"/>
<path d="M91.3568 82.6132C91.3568 79.5257 88.9025 76.0951 85.925 74.3708C84.1475 73.3507 82.5685 73.143 81.576 73.784L79.4827 75.0028L80.6015 75.2917C80.5293 75.5986 80.4932 75.9417 80.4932 76.3208C80.4932 79.4806 82.9294 82.7757 85.925 84.509C86.5205 84.8521 87.0889 85.1049 87.6213 85.2764L87.8559 86.5854L90.265 85.159C90.265 85.159 90.265 85.159 90.274 85.159C90.9597 84.7347 91.3568 83.8952 91.3568 82.6132ZM85.925 81.4215C84.8422 80.7986 84.0843 79.5889 84.0843 78.4694C84.0843 78.1625 84.1475 77.9007 84.2648 77.7111L86.5746 79.5257L86.9716 81.7375C86.6829 81.7556 86.322 81.6563 85.925 81.4215Z" fill="url(#paint2_linear)"/>
<path d="M81.2782 78.9119L83.0557 78.2167L84.2467 79.4084C84.2467 79.4084 84.4452 80.1667 85.2663 80.9341L86.1325 82.4508L84.0753 83.5792L82.1715 82.532L81.2782 78.9119Z" fill="#7A6B59"/>
<path d="M89.0559 83.9584C89.0559 87.1181 86.6198 87.5966 83.6242 85.8633C80.6286 84.1299 78.1924 80.8348 78.1924 77.6751C78.1924 74.5876 80.6466 73.9917 83.6242 75.716C86.6107 77.4403 89.0559 80.8709 89.0559 83.9584ZM81.7835 79.8056C81.7835 80.9251 82.5414 82.1348 83.6242 82.7577C84.7069 83.3806 85.4648 83.0466 85.4648 81.9272C85.4648 80.8799 84.761 79.607 83.6242 78.948C82.4873 78.298 81.7835 78.7674 81.7835 79.8056Z" fill="#EDE9E0"/>
<path d="M91.7177 105.3V124.638L83.3174 119.871V100.533L91.7177 105.3Z" fill="#54B9CE"/>
<path d="M83.3174 119.871L84.3911 119.365V101.129L83.3174 100.533V119.871Z" fill="#75665A"/>
<path opacity="0.3" d="M84.3911 101.129L91.7177 110.726V108.279L87.5221 102.917L84.3911 101.129Z" fill="white"/>
<path opacity="0.3" d="M84.3911 113.741L91.7177 123.337V120.891L84.3911 111.349V113.741Z" fill="white"/>
<path opacity="0.3" d="M84.3911 103.982L91.7177 114.012V113.308L84.3911 103.422V103.982Z" fill="white"/>
<path opacity="0.3" d="M84.3911 107.954L91.7177 118.544V118.02L84.3911 107.349V107.954Z" fill="white"/>
<path d="M84.3911 119.365L91.7177 123.482V124.637L83.3174 119.871L84.3911 119.365Z" fill="#9A8C7F"/>
<path d="M61.7076 88.3639V107.692L53.3073 102.926V83.5883L61.7076 88.3639Z" fill="#54B9CE"/>
<path d="M53.3073 102.926L54.3719 102.42V84.1931L53.3073 83.5883V102.926Z" fill="#75665A"/>
<path opacity="0.3" d="M54.3719 84.1931L61.7076 93.7806V91.3431L57.5029 85.9715L54.3719 84.1931Z" fill="white"/>
<path opacity="0.3" d="M54.3719 96.8048L61.7076 106.392V103.946L54.3719 94.4034V96.8048Z" fill="white"/>
<path opacity="0.3" d="M54.3719 87.0369L61.7076 97.0758V96.3716L54.3719 86.4772V87.0369Z" fill="white"/>
<path opacity="0.3" d="M54.3719 91.018L61.7076 101.599V101.075L54.3719 90.4131V91.018Z" fill="white"/>
<path d="M54.372 102.42L61.7076 106.537V107.692L53.3073 102.926L54.372 102.42Z" fill="#9A8C7F"/>
<path d="M53.8034 41.1396L93.1342 18.218V14.4986L47.0543 41.5187L53.8034 41.1396Z" fill="#FFFFFC"/>
<path d="M93.1342 18.2181V22.3077L57.0878 43.0535L53.8035 41.1396L93.1342 18.2181Z" fill="#94846D"/>
<path d="M93.1343 22.3077L125.86 41.0674L129.163 39.1445L93.1343 18.2181V22.3077Z" fill="#EDE9E0"/>
<path d="M49.274 76.4744V79.3542L92.9358 104.813V101.897L49.274 76.4744Z" fill="#EDE9E0"/>
<path d="M92.9358 104.812L94.8486 103.684L94.8396 100.795L92.9358 101.896V104.812Z" fill="#93846F"/>
<path d="M94.8216 100.795L51.4395 75.2465L49.274 76.4743L92.9358 101.897L94.8216 100.795Z" fill="#FFFFFC"/>
<path d="M93.3238 137.276C94.3795 138.54 94.0817 139.768 92.6561 140.003C91.2305 140.238 89.2183 139.407 88.1627 138.134C87.107 136.861 87.4047 135.642 88.8304 135.408C90.247 135.173 92.2681 136.013 93.3238 137.276Z" fill="#4D6830"/>
<g opacity="0.2">
<g opacity="0.2">
<path opacity="0.2" d="M95.6969 141.592C96.3375 142.431 97.2398 143.036 98.3316 143.244C98.0338 143.172 97.7722 142.982 97.5647 142.711C97.7812 142.982 98.0429 143.172 98.3496 143.235C98.4128 143.244 98.476 143.253 98.5481 143.262C99.3422 143.388 100.145 143.28 100.849 143.009C100.903 143 100.948 143 101.002 142.991C101.526 142.765 101.968 142.44 102.356 142.034C102.356 142.025 102.365 141.998 102.383 141.962C102.861 141.474 103.213 140.86 103.43 140.156C103.466 140.066 103.637 139.199 103.213 138.441C103.619 139.145 103.493 139.94 103.448 140.156C103.493 139.976 103.538 139.804 103.565 139.624C103.745 138.45 103.439 137.322 102.816 136.419C102.148 135.48 101.138 134.803 99.9016 134.604C97.8173 134.279 95.8322 135.489 95.1194 137.394L90.9238 136.744C90.6621 136.699 90.4005 136.969 90.3373 137.34C90.2832 137.71 90.4456 138.044 90.7072 138.089L94.8307 138.73C94.7766 139.786 95.1014 140.779 95.6969 141.592C95.6879 141.583 95.6879 141.583 95.6969 141.592C95.6879 141.583 95.6879 141.583 95.6969 141.592ZM100.948 142.404C99.9377 142.81 99.658 141.962 99.676 141.393C99.658 141.962 99.9467 142.792 100.948 142.404C101.544 142.16 101.796 141.709 101.905 141.438C101.805 141.718 101.562 142.169 100.948 142.404ZM99.7392 141.059C99.7211 141.113 99.7031 141.176 99.6941 141.258C99.7031 141.176 99.7211 141.104 99.7392 141.059C99.9106 140.644 100.66 139.913 101.363 140.039C100.65 139.931 99.9106 140.644 99.7392 141.059ZM102.717 140.183C102.825 140.608 102.645 141.249 102.491 141.637C102.636 141.24 102.816 140.626 102.717 140.219C102.545 139.578 101.697 138.504 100.163 139.407C99.0444 140.057 98.7918 140.951 98.7827 141.538C98.7827 140.951 99.0264 140.021 100.163 139.362C101.688 138.495 102.554 139.551 102.717 140.183ZM101.724 135.751C100.705 135.308 99.0534 135.028 97.1767 136.383C96.9962 136.509 96.8428 136.644 96.6984 136.78C96.8428 136.644 97.0052 136.509 97.1767 136.383C99.0624 135.001 100.705 135.29 101.724 135.751Z" fill="#392620"/>
<path opacity="0.2" d="M103.438 140.156C103.438 140.174 103.429 140.183 103.429 140.201C103.429 140.192 103.429 140.174 103.438 140.156Z" fill="#392620"/>
</g>
</g>
<path d="M90.3102 132.266H91.6726V137.692C91.6726 137.962 91.3659 138.179 90.9869 138.179C90.6079 138.179 90.3011 137.962 90.3011 137.692V132.266H90.3102Z" fill="url(#paint3_linear)"/>
<path d="M89.3626 126.47C88.9115 128.339 90.0574 129.828 91.6184 130.758C93.1703 131.67 95.4982 130.65 95.5884 129.35C95.5884 129.287 95.5884 129.224 95.5884 129.151C95.5884 128.285 95.3267 127.454 94.8936 126.768C95.3448 128.194 94.6771 128.871 94.2891 129.043C93.9192 129.214 92.5928 129.494 91.492 128.131C90.3822 126.768 91.2935 125.748 91.8981 125.486C92.5026 125.224 93.6936 125.549 93.7387 125.576C93.1793 125.17 92.5026 124.908 91.7627 124.8C91.6183 124.773 89.7957 124.71 89.3626 126.47Z" fill="#647E39"/>
<path d="M91.9432 125.486C91.3387 125.748 90.4093 126.759 91.5372 128.131C92.647 129.494 93.9644 129.215 94.3343 129.043C94.7043 128.872 95.39 128.176 94.9388 126.768C94.6321 126.29 94.2441 125.901 93.7929 125.576C93.7208 125.576 92.5207 125.224 91.9432 125.486ZM94.3614 126.894C95.0562 128.059 93.6395 128.411 93.2155 128.303C92.7824 128.194 91.9432 127.562 91.9613 126.858C91.9613 126.163 93.017 126.082 93.017 126.082C93.017 126.082 93.8651 126.046 94.3614 126.894Z" fill="#78A03F"/>
<path d="M88.9928 131.553C86.3039 128.862 88.0815 126.118 88.1717 125.983C87.3506 126.786 86.8273 127.887 86.8273 129.142C86.8273 131.571 88.8033 133.539 91.2214 133.539C92.4576 133.539 93.5584 133.024 94.3614 132.212C93.1884 132.79 90.9146 133.485 88.9928 131.553Z" fill="#415325"/>
<path d="M91.6364 130.749C90.0845 129.837 88.9296 128.321 89.3807 126.461C89.8138 124.683 91.6364 124.764 91.8079 124.791C91.6094 124.773 91.4199 124.746 91.2214 124.746C90.0304 124.746 88.9657 125.224 88.1717 125.983C88.0814 126.091 86.331 128.862 88.9927 131.553C90.9146 133.476 93.1884 132.79 94.3614 132.221C95.1012 131.462 95.5524 130.469 95.5975 129.359C95.4892 130.641 93.1703 131.661 91.6364 130.749Z" fill="#4D6830"/>
<path d="M91.9613 126.858C91.9613 127.581 92.7824 128.203 93.2155 128.303C93.6486 128.411 95.0381 128.059 94.3614 126.894C93.8651 126.073 93.017 126.073 93.017 126.073C93.017 126.073 91.9613 126.136 91.9613 126.858Z" fill="url(#paint4_radial)"/>
<g opacity="0.2">
<g opacity="0.2">
<path opacity="0.2" d="M65.0189 46.7007C65.6595 47.5403 66.5618 48.1451 67.6536 48.3528C67.3558 48.2805 67.0942 48.091 66.8866 47.8201C67.1032 48.091 67.3649 48.2806 67.6716 48.3437C67.7348 48.3528 67.798 48.3618 67.8701 48.3708C68.6641 48.4972 69.4672 48.3889 70.171 48.118C70.2251 48.109 70.2702 48.109 70.3244 48.1C70.8477 47.8743 71.2898 47.5493 71.6778 47.1431C71.6778 47.134 71.6868 47.1069 71.7049 47.0708C72.1831 46.5833 72.535 45.9694 72.7515 45.2653C72.7876 45.175 72.959 44.3083 72.535 43.55C72.941 44.2542 72.8147 45.0486 72.7696 45.2653C72.8147 45.0847 72.8598 44.9132 72.8868 44.7326C73.0673 43.559 72.7605 42.4305 72.138 41.5278C71.4703 40.5889 70.4597 39.9118 69.2236 39.7132C67.1393 39.3882 65.1542 40.5979 64.4414 42.5028L60.2458 41.8528C59.9841 41.8076 59.7225 42.0785 59.6593 42.4486C59.6052 42.8187 59.7676 43.1528 60.0293 43.1979L64.1527 43.8389C64.0895 44.8951 64.4234 45.8882 65.0189 46.7007C65.0099 46.6917 65.0099 46.6917 65.0189 46.7007C65.0099 46.6917 65.0099 46.6917 65.0189 46.7007C65.0189 46.6917 65.0189 46.7007 65.0189 46.7007ZM70.2702 47.5132C69.2597 47.9194 68.9799 47.0708 68.998 46.5021C68.9799 47.0708 69.2687 47.9014 70.2702 47.5132C70.8657 47.2694 71.1184 46.818 71.2266 46.5472C71.1274 46.8271 70.8838 47.2785 70.2702 47.5132ZM69.0612 46.168C69.0431 46.2222 69.0251 46.2854 69.016 46.3667C69.0251 46.2854 69.0341 46.2132 69.0612 46.168C69.2326 45.7528 69.9815 45.0215 70.6853 45.1479C69.9725 45.0305 69.2326 45.7528 69.0612 46.168ZM72.0387 45.2924C72.147 45.7167 71.9665 46.3576 71.8131 46.7458C71.9575 46.3486 72.138 45.7347 72.0387 45.3285C71.8673 44.6875 71.0191 43.6132 69.4852 44.516C68.3664 45.166 68.1137 46.0597 68.1047 46.6465C68.1047 46.0597 68.3483 45.1299 69.4852 44.4708C71.0101 43.6042 71.8763 44.6604 72.0387 45.2924ZM71.0462 40.8597C70.0266 40.4174 68.3754 40.1375 66.4987 41.4917C66.3182 41.618 66.1648 41.7535 66.0204 41.8889C66.1648 41.7535 66.3272 41.618 66.4987 41.4917C68.3844 40.1104 70.0266 40.3993 71.0462 40.8597Z" fill="#392620"/>
<path opacity="0.2" d="M72.7605 45.2653C72.7605 45.2834 72.7515 45.2924 72.7515 45.3104C72.7515 45.3014 72.7515 45.2834 72.7605 45.2653Z" fill="#392620"/>
</g>
</g>
<path d="M59.3435 37.6008H60.706V43.0265C60.706 43.2973 60.3992 43.514 60.0202 43.514C59.6413 43.514 59.3345 43.2973 59.3345 43.0265V37.6008H59.3435Z" fill="url(#paint5_linear)"/>
<path d="M58.3961 31.8048C57.9449 33.6736 59.0908 35.1631 60.6518 36.093C62.2037 37.0048 64.5317 35.9847 64.6219 34.6847C64.6219 34.6215 64.6219 34.5583 64.6219 34.4861C64.6219 33.6194 64.3602 32.7888 63.9271 32.1027C64.3783 33.5291 63.7106 34.2062 63.3226 34.3777C62.9526 34.5493 61.6263 34.8291 60.5255 33.4659C59.4157 32.1027 60.327 31.0826 60.9315 30.8208C61.5361 30.559 62.7271 30.884 62.7722 30.9111C62.2128 30.5048 61.5361 30.243 60.7962 30.1347C60.6518 30.1076 58.8292 30.0444 58.3961 31.8048Z" fill="#647E39"/>
<path d="M60.9767 30.8209C60.3721 31.0827 59.4428 32.0939 60.5707 33.4661C61.6805 34.8293 62.9978 34.5494 63.3678 34.3779C63.7377 34.2064 64.4234 33.5112 63.9723 32.1029C63.6655 31.6244 63.2775 31.2362 62.8264 30.9112C62.7452 30.9112 61.5542 30.5591 60.9767 30.8209ZM63.3948 32.2293C64.0896 33.3939 62.673 33.7459 62.2489 33.6376C61.8158 33.5293 60.9767 32.8973 60.9947 32.1932C60.9947 31.498 62.0504 31.4168 62.0504 31.4168C62.0504 31.4168 62.8986 31.3807 63.3948 32.2293Z" fill="#78A03F"/>
<path d="M58.0262 36.8875C55.3374 34.1972 57.1149 31.4527 57.2051 31.3173C56.384 32.1208 55.8607 33.2222 55.8607 34.477C55.8607 36.9055 57.8367 38.8736 60.2549 38.8736C61.491 38.8736 62.5918 38.359 63.3948 37.5465C62.2218 38.1243 59.9481 38.8194 58.0262 36.8875Z" fill="#415325"/>
<path d="M60.6699 36.084C59.118 35.1722 57.963 33.6556 58.4142 31.7958C58.8473 30.0174 60.6699 30.0986 60.8413 30.1257C60.6428 30.1076 60.4534 30.0806 60.2548 30.0806C59.0638 30.0806 57.9991 30.559 57.2051 31.3174C57.1149 31.4257 55.3644 34.1972 58.0262 36.8875C59.9481 38.8104 62.2218 38.1243 63.3948 37.5556C64.1347 36.7972 64.5858 35.8042 64.631 34.6938C64.5227 35.9757 62.2038 36.9958 60.6699 36.084Z" fill="#4D6830"/>
<path d="M60.9857 32.1931C60.9857 32.9153 61.8068 33.5382 62.2399 33.6375C62.673 33.7459 64.0625 33.3938 63.3858 32.2292C62.8895 31.4077 62.0414 31.4077 62.0414 31.4077C62.0414 31.4077 60.9857 31.4708 60.9857 32.1931Z" fill="url(#paint6_radial)"/>
<g opacity="0.2">
<g opacity="0.2">
<path opacity="0.2" d="M74.0328 52.0542C74.6735 52.8938 75.5757 53.4986 76.6675 53.7063C76.3698 53.6341 76.1081 53.4445 75.9006 53.1736C76.1171 53.4445 76.3788 53.6341 76.6856 53.6972C76.7487 53.7063 76.8119 53.7153 76.8841 53.7243C77.6781 53.8507 78.4811 53.7424 79.1849 53.4716C79.239 53.4625 79.2841 53.4625 79.3383 53.4535C79.8616 53.2278 80.3037 52.9028 80.6917 52.4966C80.6917 52.4875 80.7007 52.4604 80.7188 52.4243C81.197 51.9368 81.5489 51.3229 81.7654 50.6188C81.8015 50.5285 81.973 49.6618 81.5489 48.9035C81.9549 49.6077 81.8286 50.4021 81.7835 50.6188C81.8286 50.4382 81.8737 50.2667 81.9008 50.0861C82.0812 48.9125 81.7745 47.7841 81.1519 46.8813C80.4842 45.9424 79.4736 45.2653 78.2375 45.0667C76.1532 44.7417 74.1682 45.9514 73.4554 47.8563L69.2597 47.2063C68.9981 47.1611 68.7364 47.432 68.6732 47.8021C68.6191 48.1723 68.7815 48.5063 69.0432 48.5514L73.1666 49.1924C73.1125 50.2486 73.4373 51.2507 74.0328 52.0542C74.0238 52.0452 74.0238 52.0452 74.0328 52.0542C74.0238 52.0452 74.0238 52.0452 74.0328 52.0542ZM79.2841 52.8757C78.2736 53.282 77.9939 52.4334 78.0119 51.8646C77.9939 52.4243 78.2826 53.2549 79.2841 52.8757C79.8797 52.632 80.1323 52.1806 80.2406 51.9097C80.1413 52.1806 79.8977 52.632 79.2841 52.8757ZM78.0751 51.5216C78.057 51.5757 78.039 51.6389 78.03 51.7202C78.039 51.6389 78.057 51.5757 78.0751 51.5216C78.2465 51.1063 78.9954 50.375 79.6992 50.5014C78.9864 50.3931 78.2465 51.1153 78.0751 51.5216ZM81.0526 50.6549C81.1609 51.0792 80.9804 51.7202 80.8271 52.1084C80.9714 51.7111 81.1519 51.0972 81.0526 50.691C80.8812 50.05 80.033 48.9757 78.4992 49.8785C77.3803 50.5285 77.1277 51.4222 77.1187 52.0091C77.1187 51.4222 77.3623 50.4924 78.4992 49.8334C80.024 48.9577 80.8902 50.0139 81.0526 50.6549ZM80.0601 46.2132C79.0405 45.7709 77.3893 45.491 75.5126 46.8452C75.3321 46.9716 75.1787 47.107 75.0344 47.2424C75.1787 47.107 75.3411 46.9716 75.5126 46.8452C77.3984 45.4729 79.0405 45.7618 80.0601 46.2132Z" fill="#392620"/>
<path opacity="0.2" d="M81.7744 50.6188C81.7744 50.6368 81.7654 50.6459 81.7654 50.6639C81.7654 50.6549 81.7654 50.6368 81.7744 50.6188Z" fill="#392620"/>
</g>
</g>
<path d="M68.3574 42.9633H69.7199V48.389C69.7199 48.6598 69.4131 48.8765 69.0341 48.8765C68.6552 48.8765 68.3484 48.6598 68.3484 48.389V42.9633H68.3574Z" fill="url(#paint7_linear)"/>
<path d="M67.41 37.1583C66.9589 39.027 68.1048 40.5166 69.6657 41.4465C71.2176 42.3583 73.5455 41.3381 73.6358 40.0381C73.6358 39.9749 73.6358 39.9117 73.6358 39.8395C73.6358 38.9729 73.3741 38.1423 72.941 37.4562C73.3922 38.8826 72.7245 39.5597 72.3365 39.7312C71.9665 39.9027 70.6402 40.1826 69.5394 38.8194C68.4296 37.4562 69.3409 36.4361 69.9454 36.1742C70.55 35.9124 71.741 36.2374 71.7861 36.2645C71.2267 35.8583 70.55 35.5965 69.8101 35.4881C69.6657 35.4611 67.8431 35.3979 67.41 37.1583Z" fill="#647E39"/>
<path d="M69.9907 36.1743C69.3862 36.4361 68.4568 37.4472 69.5847 38.8194C70.6945 40.1826 72.0118 39.9028 72.3818 39.7312C72.7517 39.5597 73.4374 38.8646 72.9863 37.4562C72.6795 36.9778 72.2915 36.5896 71.8404 36.2646C71.7682 36.2646 70.5682 35.9215 69.9907 36.1743ZM72.4088 37.5916C73.1036 38.7562 71.687 39.1083 71.2629 39C70.8298 38.8916 69.9907 38.2597 70.0088 37.5555C70.0088 36.8604 71.0644 36.7791 71.0644 36.7791C71.0644 36.7791 71.9126 36.734 72.4088 37.5916Z" fill="#78A03F"/>
<path d="M67.0401 42.241C64.3513 39.5507 66.1288 36.8063 66.219 36.6708C65.398 37.4743 64.8746 38.5757 64.8746 39.8306C64.8746 42.259 66.8506 44.2271 69.2688 44.2271C70.5049 44.2271 71.6057 43.7125 72.4087 42.9C71.2358 43.4778 68.962 44.1729 67.0401 42.241Z" fill="#415325"/>
<path d="M69.6838 41.4465C68.1319 40.5347 66.9769 39.018 67.4281 37.1583C67.8612 35.3799 69.6838 35.4611 69.8552 35.4882C69.6567 35.4701 69.4673 35.4431 69.2688 35.4431C68.0777 35.4431 67.013 35.9215 66.219 36.6799C66.1288 36.7882 64.3783 39.5597 67.0401 42.25C68.962 44.1729 71.2358 43.4868 72.4087 42.918C73.1486 42.1597 73.5998 41.1667 73.6449 40.0562C73.5366 41.3292 71.2177 42.3493 69.6838 41.4465Z" fill="#4D6830"/>
<path d="M70.0087 37.5465C70.0087 38.2687 70.8297 38.8917 71.2628 38.991C71.6959 39.0993 73.0855 38.7472 72.4087 37.5826C71.9125 36.7611 71.0643 36.7611 71.0643 36.7611C71.0643 36.7611 70.0087 36.8243 70.0087 37.5465Z" fill="url(#paint8_radial)"/>
<g opacity="0.2">
<g opacity="0.2">
<path opacity="0.2" d="M82.9565 57.2993C83.5972 58.1389 84.4994 58.7437 85.5912 58.9514C85.2934 58.8792 85.0318 58.6896 84.8243 58.4187C85.0408 58.6896 85.3025 58.8792 85.6092 58.9424C85.6724 58.9514 85.7356 58.9604 85.8078 58.9694C86.6018 59.0958 87.4048 58.9875 88.1086 58.7167C88.1627 58.7076 88.2078 58.7076 88.262 58.6986C88.7853 58.4729 89.2274 58.1479 89.6154 57.7417C89.6154 57.7326 89.6244 57.7056 89.6425 57.6694C90.1207 57.1819 90.4726 56.5681 90.6891 55.8639C90.7252 55.7736 90.8967 54.9069 90.4726 54.1486C90.8786 54.8528 90.7523 55.6472 90.7072 55.8639C90.7523 55.6833 90.7974 55.5118 90.8245 55.3313C91.0049 54.1576 90.6981 53.0292 90.0756 52.1264C89.4079 51.1875 88.3973 50.5104 87.1612 50.3118C85.0769 49.9868 83.0919 51.1965 82.3791 53.1014L78.1834 52.4514C77.9218 52.4063 77.6601 52.6771 77.5969 53.0472C77.5428 53.4174 77.7052 53.7514 77.9669 53.7965L82.0903 54.4375C82.0362 55.4938 82.361 56.4868 82.9565 57.2993C82.9475 57.2903 82.9475 57.2903 82.9565 57.2993C82.9565 57.2903 82.9565 57.2903 82.9565 57.2993C82.9565 57.2903 82.9565 57.2993 82.9565 57.2993ZM88.2078 58.1118C87.1973 58.5181 86.9176 57.6694 86.9356 57.1007C86.9266 57.6694 87.2063 58.5 88.2078 58.1118C88.8033 57.8681 89.056 57.4167 89.1643 57.1458C89.065 57.4257 88.8214 57.8771 88.2078 58.1118ZM86.9988 56.7667C86.9807 56.8208 86.9627 56.884 86.9537 56.9653C86.9627 56.884 86.9807 56.8118 86.9988 56.7667C87.1702 56.3514 87.9191 55.6201 88.6229 55.7465C87.9101 55.6292 87.1702 56.3514 86.9988 56.7667ZM89.9763 55.891C90.0846 56.3153 89.9041 56.9562 89.7507 57.3444C89.8951 56.9472 90.0756 56.3333 89.9763 55.9271C89.8049 55.2861 88.9567 54.2118 87.4228 55.1146C86.304 55.7646 86.0514 56.6583 86.0423 57.2451C86.0423 56.6583 86.286 55.7285 87.4228 55.0694C88.9477 54.2028 89.8139 55.259 89.9763 55.891ZM88.9838 51.4493C87.9642 51.007 86.313 50.7271 84.4363 52.0813C84.2558 52.2076 84.1024 52.3431 83.9581 52.4785C84.1024 52.3431 84.2648 52.2076 84.4363 52.0813C86.3221 50.709 87.9642 50.9979 88.9838 51.4493Z" fill="#392620"/>
<path opacity="0.2" d="M90.6982 55.8639C90.6982 55.8819 90.6892 55.891 90.6892 55.909C90.6892 55.9 90.6892 55.8819 90.6982 55.8639Z" fill="#392620"/>
</g>
</g>
<path d="M77.2811 48.1993H78.6436V53.625C78.6436 53.8958 78.3368 54.1125 77.9578 54.1125C77.5789 54.1125 77.2721 53.8958 77.2721 53.625L77.2811 48.1993Z" fill="url(#paint9_linear)"/>
<path d="M76.3337 42.4034C75.8826 44.2722 77.0285 45.7618 78.5894 46.6916C80.1414 47.6034 82.4693 46.5833 82.5595 45.2833C82.5595 45.2201 82.5595 45.1569 82.5595 45.0847C82.5595 44.218 82.2978 43.3875 81.8647 42.7014C82.3159 44.1277 81.6482 44.8048 81.2602 44.9764C80.8903 45.1479 79.5639 45.4277 78.4631 44.0646C77.3533 42.7014 78.2646 41.6812 78.8691 41.4194C79.4737 41.1576 80.6647 41.4826 80.7098 41.5097C80.1504 41.1034 79.4737 40.8416 78.7338 40.7333C78.5894 40.7062 76.7668 40.643 76.3337 42.4034Z" fill="#647E39"/>
<path d="M78.9142 41.4195C78.3096 41.6813 77.3803 42.6924 78.5081 44.0647C79.618 45.4278 80.9353 45.148 81.3052 44.9765C81.6752 44.8049 82.3609 44.1098 81.9098 42.7015C81.603 42.223 81.215 41.8348 80.7639 41.5098C80.6917 41.5098 79.4916 41.1577 78.9142 41.4195ZM81.3323 42.8278C82.0271 43.9924 80.6105 44.3445 80.1864 44.2362C79.7533 44.1278 78.9142 43.4959 78.9322 42.7917C78.9322 42.0966 79.9879 42.0153 79.9879 42.0153C79.9879 42.0153 80.8361 41.9792 81.3323 42.8278Z" fill="#78A03F"/>
<path d="M75.9637 47.4861C73.2749 44.7958 75.0524 42.0514 75.1426 41.916C74.3215 42.7194 73.7982 43.8208 73.7982 45.0757C73.7982 47.5041 75.7742 49.4722 78.1924 49.4722C79.4285 49.4722 80.5293 48.9576 81.3324 48.1451C80.1594 48.7229 77.8856 49.418 75.9637 47.4861Z" fill="#415325"/>
<path d="M78.6074 46.6827C77.0555 45.7708 75.9005 44.2542 76.3517 42.3945C76.7848 40.616 78.6074 40.6973 78.7788 40.7243C78.5803 40.7063 78.3909 40.6792 78.1923 40.6792C77.0013 40.6792 75.9366 41.1577 75.1426 41.916C75.0524 42.0243 73.3019 44.7959 75.9637 47.4861C77.8856 49.409 80.1594 48.7229 81.3323 48.1542C82.0722 47.3958 82.5234 46.4028 82.5685 45.2924C82.4602 46.5743 80.1413 47.5945 78.6074 46.6827Z" fill="#4D6830"/>
<path d="M78.9323 42.7917C78.9323 43.5139 79.7533 44.1369 80.1864 44.2362C80.6195 44.3445 82.0091 43.9924 81.3323 42.8278C80.8361 42.0063 79.9879 42.0063 79.9879 42.0063C79.9879 42.0063 78.9323 42.0695 78.9323 42.7917Z" fill="url(#paint10_radial)"/>
<g opacity="0.2">
<g opacity="0.2">
<path opacity="0.2" d="M93.7568 63.5556C94.3974 64.3952 95.2997 65 96.3915 65.2077C96.0938 65.1355 95.8321 64.9459 95.6246 64.675C95.8411 64.9459 96.1028 65.1355 96.4096 65.1987C96.4727 65.2077 96.5359 65.2167 96.6081 65.2257C97.4021 65.3521 98.2051 65.2438 98.9089 64.973C98.963 64.9639 99.0081 64.9639 99.0623 64.9549C99.5856 64.7292 100.028 64.4042 100.416 63.998C100.416 63.9889 100.425 63.9619 100.443 63.9257C100.921 63.4382 101.273 62.8244 101.489 62.1202C101.526 62.0299 101.697 61.1632 101.273 60.4049C101.679 61.1091 101.553 61.9035 101.507 62.1202C101.553 61.9396 101.598 61.7681 101.625 61.5875C101.805 60.4139 101.498 59.2855 100.876 58.3827C100.208 57.4438 99.1976 56.7667 97.9615 56.5681C95.8772 56.2431 93.8922 57.4528 93.1794 59.3577L88.9837 58.7077C88.7221 58.6625 88.4604 58.9334 88.3972 59.3035C88.3431 59.6737 88.5055 60.0077 88.7672 60.0528L92.8906 60.6938C92.8365 61.75 93.1703 62.7431 93.7568 63.5556C93.7568 63.5466 93.7568 63.5466 93.7568 63.5556C93.7568 63.5466 93.7568 63.5466 93.7568 63.5556C93.7568 63.5466 93.7568 63.5556 93.7568 63.5556ZM99.0172 64.3681C98.0066 64.7744 97.7269 63.9257 97.7449 63.357C97.7269 63.9257 98.0066 64.7563 99.0172 64.3681C99.6127 64.1244 99.8653 63.673 99.9736 63.4021C99.8743 63.682 99.6217 64.1334 99.0172 64.3681ZM97.8081 63.023C97.7901 63.0771 97.772 63.1403 97.763 63.2216C97.763 63.1403 97.781 63.0681 97.8081 63.023C97.9795 62.6077 98.7284 61.8764 99.4322 62.0028C98.7194 61.8855 97.9795 62.6077 97.8081 63.023ZM100.786 62.1473C100.894 62.5716 100.713 63.2125 100.56 63.6007C100.704 63.2035 100.885 62.5896 100.786 62.1834C100.614 61.5424 99.7661 60.4681 98.2322 61.3709C97.1133 62.0209 96.8607 62.9146 96.8517 63.5014C96.8517 62.9146 97.0953 61.9848 98.2322 61.3257C99.748 60.4591 100.614 61.5153 100.786 62.1473ZM99.7931 57.7146C98.7735 57.2723 97.1224 56.9924 95.2456 58.3466C95.0651 58.473 94.9118 58.6084 94.7674 58.7438C94.9118 58.6084 95.0742 58.473 95.2456 58.3466C97.1224 56.9653 98.7735 57.2542 99.7931 57.7146Z" fill="#392620"/>
<path opacity="0.2" d="M101.499 62.1202C101.499 62.1382 101.49 62.1473 101.49 62.1653C101.49 62.1563 101.499 62.1382 101.499 62.1202Z" fill="#392620"/>
</g>
</g>
<path d="M88.0904 54.4556H89.4529V59.8813C89.4529 60.1521 89.1461 60.3688 88.7672 60.3688C88.3882 60.3688 88.0814 60.1521 88.0814 59.8813L88.0904 54.4556Z" fill="url(#paint11_linear)"/>
<path d="M87.134 48.6599C86.6828 50.5286 87.8288 52.0182 89.3897 52.9481C90.9417 53.8599 93.2696 52.8397 93.3598 51.5397C93.3598 51.4765 93.3598 51.4133 93.3598 51.3411C93.3598 50.4744 93.0981 49.6439 92.665 48.9578C93.1162 50.3842 92.4485 51.0613 92.0605 51.2328C91.6906 51.4043 90.3642 51.6842 89.2634 50.321C88.1536 48.9578 89.0649 47.9376 89.6694 47.6758C90.274 47.414 91.465 47.739 91.5101 47.7661C90.9507 47.3599 90.274 47.0981 89.5341 46.9897C89.3897 46.9626 87.5761 46.8994 87.134 48.6599Z" fill="#647E39"/>
<path d="M89.7146 47.6758C89.1101 47.9376 88.1807 48.9487 89.3086 50.3209C90.4184 51.6841 91.7357 51.4043 92.1056 51.2328C92.4756 51.0612 93.1613 50.3661 92.7102 48.9577C92.4034 48.4793 92.0154 48.0911 91.5643 47.7661C91.4921 47.7661 90.3011 47.414 89.7146 47.6758ZM92.1417 49.0841C92.8365 50.2487 91.4199 50.6008 90.9958 50.4925C90.5627 50.3841 89.7236 49.7522 89.7417 49.048C89.7417 48.3529 90.7973 48.2716 90.7973 48.2716C90.7973 48.2716 91.6455 48.2355 92.1417 49.0841Z" fill="#78A03F"/>
<path d="M86.7641 53.7425C84.0753 51.0522 85.8528 48.3078 85.943 48.1724C85.122 48.9758 84.5986 50.0772 84.5986 51.3321C84.5986 53.7606 86.5747 55.7286 88.9928 55.7286C90.2289 55.7286 91.3297 55.214 92.1328 54.4015C90.9688 54.9793 88.695 55.6745 86.7641 53.7425Z" fill="#415325"/>
<path d="M89.4078 52.939C87.8559 52.0271 86.7009 50.5105 87.1521 48.6508C87.5852 46.8723 89.4078 46.9535 89.5792 46.9806C89.3807 46.9626 89.1913 46.9355 88.9928 46.9355C87.8017 46.9355 86.737 47.414 85.943 48.1723C85.8528 48.2806 84.1023 51.0521 86.7641 53.7424C88.686 55.6653 90.9597 54.9792 92.1327 54.4105C92.8726 53.6521 93.3238 52.6591 93.3689 51.5487C93.2606 52.8306 90.9507 53.8508 89.4078 52.939Z" fill="#4D6830"/>
<path d="M89.7327 49.0479C89.7327 49.7702 90.5538 50.3931 90.9869 50.4924C91.42 50.6007 92.8095 50.2486 92.1328 49.084C91.6365 48.2625 90.7884 48.2625 90.7884 48.2625C90.7884 48.2625 89.7327 48.3257 89.7327 49.0479Z" fill="url(#paint12_radial)"/>
<path d="M89.8229 66.4084V62.1834L129.163 39.1445L135.876 39.4244L89.8229 66.4084Z" fill="#FFFFFC"/>
<path d="M135.876 39.4244L135.894 43.4959L89.8229 70.5251V66.4084L135.876 39.4244Z" fill="#93846F"/>
<path opacity="0.2" d="M94.2261 39.1445L111.108 39.1355L113.012 33.6646L113.084 29.8188L110.224 24.682H95.39L94.2261 39.1445Z" fill="#392620"/>
<path d="M82.8391 15.564L82.8301 32.491L94.217 39.1445L94.226 22.1994L82.8391 15.564Z" fill="#EDE9E0"/>
<path d="M94.2261 22.1993L94.217 39.1445L104.999 32.816L105.008 15.8799L94.2261 22.1993Z" fill="#93846F"/>
<path d="M82.8391 15.5639L93.6305 9.20837L105.008 15.8799L94.226 22.1993L82.8391 15.5639Z" fill="#FFFFFC"/>
<path d="M84.779 23.1201L84.77 33.6464L91.862 37.7721V27.2457L84.779 23.1201Z" fill="#94846D"/>
<path d="M87.8198 29.5849L86.9446 29.0703V30.8939L87.8198 31.4085V29.5849Z" fill="#EBE6E5"/>
<path d="M86.9446 29.0695L87.098 28.9792L87.9732 29.4938L87.8198 29.5841L86.9446 29.0695Z" fill="#DDDAD3"/>
<path d="M87.9731 29.4939V31.3085L87.8197 31.4078V29.5842L87.9731 29.4939Z" fill="#B7B3AB"/>
<path d="M89.6965 30.6772L88.8213 30.1626L88.8123 31.9862L89.6965 32.5008V30.6772Z" fill="#EBE6E5"/>
<path d="M88.8217 30.1618L88.966 30.0715L89.8503 30.5861L89.6969 30.6764L88.8217 30.1618Z" fill="#DDDAD3"/>
<path d="M89.8499 30.5861V32.4006L89.6965 32.5V30.6763L89.8499 30.5861Z" fill="#B7B3AB"/>
<path d="M88.5327 25.3049V35.8313L88.3883 35.714V25.2237L88.5327 25.3049Z" fill="#72634F"/>
<path d="M106.254 140.508V133.62L108.978 135.236V142.287L106.254 140.508Z" fill="#9C1F21"/>
<path d="M106.254 133.62L108.401 132.528L110.982 134.234L108.978 135.236L106.254 133.62Z" fill="#EF3A38"/>
<path d="M110.982 134.252V141.285L108.979 142.287V135.254L110.982 134.252Z" fill="#C52328"/>
<path d="M107.625 135.66L108.13 135.471L121.43 142.747C121.43 142.747 122.359 143.469 121.619 144.399C121.619 144.399 121.394 144.697 120.69 144.327C120.004 143.939 107.616 137.168 107.616 137.168V135.66H107.625Z" fill="#BDB8B8"/>
<path d="M107.625 135.66L121.313 143.226C121.502 143.334 121.629 143.542 121.629 143.767C121.629 144.246 121.123 144.544 120.699 144.309L107.625 137.15V135.66Z" fill="#999897"/>
<path d="M108.013 135.886L108.509 137.647L109.457 138.17L108.978 136.419L108.013 135.886Z" fill="#030303"/>
<path d="M110.368 137.204L110.846 138.965L111.812 139.488L111.333 137.755L110.368 137.204Z" fill="#030303"/>
<path d="M112.849 138.558L113.336 140.319L114.293 140.842L113.815 139.091L112.849 138.558Z" fill="#030303"/>
<path d="M115.484 139.985L115.98 141.745L116.928 142.269L116.449 140.527L115.484 139.985Z" fill="#030303"/>
<path d="M118.083 141.429L118.561 143.181L119.526 143.713L119.048 141.971L118.083 141.429Z" fill="#030303"/>
<path d="M95.9495 148.344L114.392 158.871V156.659L95.9495 146.439V148.344Z" fill="#525560"/>
<defs>
<linearGradient id="paint0_linear" x1="38.429" y1="103.017" x2="39.795" y2="103.017" gradientUnits="userSpaceOnUse">
<stop offset="0.030466" stop-color="#F58321"/>
<stop offset="0.4283" stop-color="#C06E2B"/>
<stop offset="1" stop-color="#4B2F19"/>
</linearGradient>
<radialGradient id="paint1_radial" cx="0" cy="0" r="1" gradientUnits="userSpaceOnUse" gradientTransform="translate(41.5422 94.883) scale(1.36256 1.36331)">
<stop offset="0.030466" stop-color="white"/>
<stop offset="0.4283" stop-color="#C6DA48"/>
<stop offset="1" stop-color="#C1D833"/>
</radialGradient>
<linearGradient id="paint2_linear" x1="85.2397" y1="77.742" x2="87.5506" y2="85.6571" gradientUnits="userSpaceOnUse">
<stop stop-color="#93846F"/>
<stop offset="1" stop-color="#655D51"/>
</linearGradient>
<linearGradient id="paint3_linear" x1="90.3087" y1="135.225" x2="91.6746" y2="135.225" gradientUnits="userSpaceOnUse">
<stop offset="0.030466" stop-color="#F58321"/>
<stop offset="0.4283" stop-color="#C06E2B"/>
<stop offset="1" stop-color="#4B2F19"/>
</linearGradient>
<radialGradient id="paint4_radial" cx="0" cy="0" r="1" gradientUnits="userSpaceOnUse" gradientTransform="translate(93.4218 127.091) scale(1.36257 1.36331)">
<stop offset="0.030466" stop-color="white"/>
<stop offset="0.4283" stop-color="#C6DA48"/>
<stop offset="1" stop-color="#C1D833"/>
</radialGradient>
<linearGradient id="paint5_linear" x1="59.3394" y1="40.5599" x2="60.7054" y2="40.5599" gradientUnits="userSpaceOnUse">
<stop offset="0.030466" stop-color="#F58321"/>
<stop offset="0.4283" stop-color="#C06E2B"/>
<stop offset="1" stop-color="#4B2F19"/>
</linearGradient>
<radialGradient id="paint6_radial" cx="0" cy="0" r="1" gradientUnits="userSpaceOnUse" gradientTransform="translate(62.4526 32.4256) scale(1.36256 1.3633)">
<stop offset="0.030466" stop-color="white"/>
<stop offset="0.4283" stop-color="#C6DA48"/>
<stop offset="1" stop-color="#C1D833"/>
</radialGradient>
<linearGradient id="paint7_linear" x1="68.3544" y1="45.916" x2="69.7203" y2="45.916" gradientUnits="userSpaceOnUse">
<stop offset="0.030466" stop-color="#F58321"/>
<stop offset="0.4283" stop-color="#C06E2B"/>
<stop offset="1" stop-color="#4B2F19"/>
</linearGradient>
<radialGradient id="paint8_radial" cx="0" cy="0" r="1" gradientUnits="userSpaceOnUse" gradientTransform="translate(71.4676 37.7817) scale(1.36256 1.3633)">
<stop offset="0.030466" stop-color="white"/>
<stop offset="0.4283" stop-color="#C6DA48"/>
<stop offset="1" stop-color="#C1D833"/>
</radialGradient>
<linearGradient id="paint9_linear" x1="77.2795" y1="51.1575" x2="78.6454" y2="51.1575" gradientUnits="userSpaceOnUse">
<stop offset="0.030466" stop-color="#F58321"/>
<stop offset="0.4283" stop-color="#C06E2B"/>
<stop offset="1" stop-color="#4B2F19"/>
</linearGradient>
<radialGradient id="paint10_radial" cx="0" cy="0" r="1" gradientUnits="userSpaceOnUse" gradientTransform="translate(80.3926 43.0233) scale(1.36257 1.36331)">
<stop offset="0.030466" stop-color="white"/>
<stop offset="0.4283" stop-color="#C6DA48"/>
<stop offset="1" stop-color="#C1D833"/>
</radialGradient>
<linearGradient id="paint11_linear" x1="88.084" y1="57.4146" x2="89.4499" y2="57.4146" gradientUnits="userSpaceOnUse">
<stop offset="0.030466" stop-color="#F58321"/>
<stop offset="0.4283" stop-color="#C06E2B"/>
<stop offset="1" stop-color="#4B2F19"/>
</linearGradient>
<radialGradient id="paint12_radial" cx="0" cy="0" r="1" gradientUnits="userSpaceOnUse" gradientTransform="translate(91.1972 49.2804) scale(1.36257 1.36331)">
<stop offset="0.030466" stop-color="white"/>
<stop offset="0.4283" stop-color="#C6DA48"/>
<stop offset="1" stop-color="#C1D833"/>
</radialGradient>
</defs>
</svg>
