<svg width="254" height="222" viewBox="0 0 254 222" fill="none" xmlns="http://www.w3.org/2000/svg">
<path d="M185.031 98.1614L207.199 90.1023C206.397 88.9046 192.938 63.9965 182.443 58.82C173.308 52.73 156.246 53.8668 137.002 55.2168C130.823 55.5228 124.731 56.7933 118.945 58.9824C97.2542 67.5896 94.1584 96.172 94.1584 96.172L114.113 103.054C114.113 103.054 110.875 141.877 107.82 162.177C107.82 162.177 132.82 176.915 187.335 167.882C187.335 167.882 185.133 103.906 185.031 98.1614Z" fill="#FFBC5A"/>
<path d="M140.179 71.4771C140.179 71.4771 141.194 90.8636 148.085 95.0759C154.977 99.2881 164.478 64.6259 164.478 64.6259L140.179 71.4771Z" fill="#231F20"/>
<path d="M149.293 95.9387C148.773 95.9345 148.264 95.787 147.821 95.5124C140.716 91.1986 139.701 72.2993 139.701 71.4975C139.693 71.3835 139.725 71.2702 139.792 71.1774C139.859 71.0846 139.956 71.0183 140.067 70.99L164.356 64.1793C164.443 64.155 164.535 64.1544 164.622 64.1776C164.71 64.2008 164.79 64.247 164.853 64.3113C164.918 64.3727 164.964 64.4506 164.987 64.5365C165.01 64.6224 165.01 64.713 164.985 64.7985C164.67 65.9556 157.19 93.0358 150.46 95.7052C150.091 95.862 149.694 95.9415 149.293 95.9387ZM140.706 71.8527C140.899 74.6338 142.28 90.9449 148.349 94.6496C148.603 94.8092 148.893 94.9037 149.192 94.925C149.491 94.9462 149.791 94.8935 150.065 94.7714C155.698 92.5384 162.397 70.1069 163.747 65.3973L140.706 71.8527Z" fill="#231F20"/>
<path d="M136.931 39.0885C136.971 37.5583 136.696 36.0361 136.124 34.6166C135.551 33.197 134.692 31.9103 133.601 30.8366V28.9081H128.912C124.477 28.9081 120.883 33.4654 120.883 39.0581C120.883 44.6507 124.477 49.2081 128.912 49.2081H133.601V47.2796C134.685 46.2129 135.539 44.9361 136.111 43.5277C136.684 42.1192 136.963 40.6086 136.931 39.0885Z" fill="#231F20"/>
<path d="M133.601 49.7662H128.912C124.203 49.7662 120.376 44.9754 120.376 39.0884C120.376 33.2014 124.203 28.4106 128.912 28.4106H133.601C133.668 28.4106 133.733 28.4238 133.794 28.4494C133.855 28.4751 133.91 28.5126 133.957 28.5599C134.003 28.6071 134.039 28.6632 134.064 28.7247C134.088 28.7862 134.1 28.852 134.099 28.9181V30.6233C136.244 32.9203 137.437 35.9458 137.437 39.0884C137.437 42.2311 136.244 45.2566 134.099 47.5535V49.2587C134.1 49.3249 134.088 49.3907 134.064 49.4522C134.039 49.5137 134.003 49.5697 133.957 49.617C133.91 49.6643 133.855 49.7018 133.794 49.7274C133.733 49.7531 133.668 49.7663 133.601 49.7662ZM128.912 29.4662C124.761 29.4662 121.391 33.8104 121.391 39.1392C121.391 44.4679 124.761 48.802 128.912 48.802H133.094V47.381C133.095 47.3107 133.109 47.2413 133.137 47.1768C133.165 47.1124 133.206 47.0541 133.256 47.0054C135.295 44.8922 136.434 42.0704 136.434 39.1341C136.434 36.1978 135.295 33.3761 133.256 31.2628C133.205 31.2145 133.164 31.1563 133.136 31.0917C133.109 31.0272 133.094 30.9576 133.094 30.8872V29.4662H128.912Z" fill="#231F20"/>
<path d="M164.062 3.87818C163.871 3.76667 163.674 3.66503 163.473 3.57368C161.944 2.88797 160.353 2.34764 158.723 1.95983L155.749 1.14783C154.649 0.694589 153.466 0.476759 152.277 0.508381C151.506 0.609881 148.958 2.38613 148.502 2.23388C147.443 1.9126 146.306 1.9583 145.276 2.36358C144.247 2.76887 143.384 3.51 142.828 4.46688C141.702 3.71516 140.412 3.24564 139.067 3.09808C137.722 2.95052 136.361 3.12927 135.099 3.61918C133.837 4.10909 132.712 4.89574 131.819 5.91256C130.926 6.92938 130.291 8.14643 129.968 9.46068C127.826 8.89582 125.563 8.99852 123.482 9.75503C119.199 11.511 117.869 17.7938 119.351 21.8335C119.807 23.0916 120.556 24.2234 121.536 25.1357C122.515 26.048 123.697 26.7147 124.984 27.0811C119.138 35.3432 130.983 38.8652 136.261 41.1896C141.041 43.2906 146.208 44.803 151.415 44.4477C156.513 44.0559 161.277 41.7541 164.752 38.0025C166.924 35.6274 171.603 32.0647 169.756 28.3803C169.433 27.9442 169.272 27.4097 169.299 26.8679C169.435 26.4943 169.674 26.167 169.989 25.924C170.698 25.1487 171.237 24.2341 171.572 23.2386C171.907 22.2432 172.031 21.1888 171.935 20.1428C171.84 19.0968 171.527 18.0823 171.017 17.164C170.507 16.2457 169.811 15.4439 168.974 14.8097C170.669 13.947 170.466 11.4196 169.634 9.73473C168.42 7.25804 166.475 5.21376 164.062 3.87818Z" fill="white"/>
<path d="M149.892 44.9856C145.099 44.8382 140.388 43.6977 136.058 41.6361C135.479 41.3824 134.83 41.1083 134.129 40.8241C129.968 39.1291 124.274 36.7641 123.106 32.7752C122.881 31.8462 122.86 30.8793 123.046 29.9416C123.232 29.0038 123.62 28.1178 124.182 27.3449C122.963 26.8876 121.857 26.1717 120.941 25.2467C120.025 24.3216 119.319 23.2091 118.874 21.9857C117.26 17.6009 118.874 11.0846 123.299 9.26778C125.314 8.51654 127.506 8.37187 129.602 8.85163C129.999 7.56288 130.682 6.38058 131.6 5.39339C132.518 4.4062 133.648 3.63973 134.905 3.15146C136.162 2.66319 137.513 2.46579 138.857 2.57406C140.201 2.68233 141.503 3.09347 142.665 3.77664C143.325 2.86966 144.247 2.18807 145.308 1.82479C146.369 1.46151 147.516 1.43422 148.593 1.74663C149.126 1.52923 149.642 1.27134 150.136 0.975233C150.762 0.559867 151.446 0.238429 152.166 0.0211343C153.14 -0.0584544 154.119 0.0874146 155.028 0.447432C155.282 0.518482 155.546 0.609832 155.83 0.680882L158.804 1.48273C160.465 1.88282 162.086 2.4367 163.645 3.13718L164.254 3.45184C166.753 4.84594 168.764 6.97107 170.02 9.54183C170.903 11.3485 171.035 13.6729 169.756 14.8706C171.287 16.2154 172.23 18.1064 172.385 20.1384C172.518 21.261 172.399 22.399 172.037 23.47C171.676 24.5409 171.08 25.5179 170.294 26.3299L170.212 26.4213C170.002 26.582 169.837 26.7956 169.735 27.0404C169.736 27.376 169.843 27.7028 170.04 27.9742L170.152 28.2077C171.877 31.6181 168.639 34.8255 166.284 37.16C165.838 37.6066 165.422 38.0126 165.077 38.3983C161.513 42.2119 156.657 44.5605 151.455 44.9856C150.938 44.9856 150.42 44.9856 149.892 44.9856ZM127.004 9.62303C125.866 9.61026 124.737 9.81347 123.675 10.2219C119.736 11.8357 118.366 17.6923 119.828 21.6609C120.256 22.8432 120.958 23.907 121.877 24.7646C122.797 25.6223 123.907 26.2492 125.116 26.5938C125.194 26.6148 125.267 26.6544 125.327 26.7091C125.387 26.7639 125.433 26.8322 125.461 26.9085C125.487 26.9858 125.495 27.0681 125.484 27.1489C125.474 27.2298 125.445 27.3073 125.4 27.3754C124.06 29.2734 123.624 30.9482 124.081 32.5113C125.096 36.0638 130.546 38.2866 134.505 39.9106C135.215 40.1948 135.885 40.4689 136.464 40.7226C142.066 43.1891 146.938 44.2447 151.384 43.9402C156.348 43.542 160.982 41.3007 164.376 37.6573C164.731 37.2716 165.158 36.8453 165.614 36.3886C167.878 34.1556 170.689 31.3136 169.299 28.6137L169.187 28.4005C168.865 27.9167 168.728 27.3329 168.802 26.7562C168.935 26.3174 169.196 25.9284 169.553 25.6397L169.634 25.5585C170.285 24.8315 170.779 23.977 171.082 23.0492C171.386 22.1214 171.494 21.1406 171.398 20.169C171.303 19.1975 171.006 18.2563 170.528 17.4054C170.049 16.5544 169.399 15.8122 168.619 15.2258C168.545 15.1785 168.485 15.1119 168.446 15.0333C168.406 14.9547 168.389 14.8669 168.396 14.7792C168.402 14.6909 168.43 14.6055 168.478 14.531C168.526 14.4565 168.592 14.3953 168.67 14.3529C170.101 13.6323 169.786 11.3079 169.106 9.92753C167.936 7.55797 166.07 5.6029 163.757 4.32473C163.576 4.21665 163.39 4.1184 163.199 4.03039C161.699 3.3564 160.139 2.82622 158.54 2.44698L155.566 1.64513L154.724 1.39138C153.954 1.08372 153.124 0.955291 152.298 1.01583C151.695 1.23284 151.117 1.51177 150.572 1.84813C149.212 2.59923 148.705 2.86313 148.288 2.71088C147.337 2.43394 146.321 2.48336 145.401 2.85127C144.481 3.21918 143.711 3.88439 143.213 4.74088C143.183 4.80568 143.138 4.8624 143.081 4.90648C143.025 4.95056 142.959 4.98075 142.889 4.99463C142.821 5.011 142.751 5.01314 142.683 5.0009C142.615 4.98867 142.55 4.96233 142.493 4.92358C141.436 4.21859 140.224 3.77845 138.961 3.64034C137.698 3.50224 136.42 3.67024 135.235 4.13015C134.051 4.59005 132.994 5.32834 132.155 6.28263C131.316 7.23693 130.719 8.37919 130.414 9.61288C130.381 9.74184 130.299 9.85285 130.185 9.92281C130.072 9.99276 129.936 10.0163 129.805 9.98843C128.888 9.76453 127.948 9.64199 127.004 9.62303Z" fill="#231F20"/>
<path d="M159.687 30.1463C159.687 30.1463 161.199 16.4743 156.277 10.7497C151.354 5.02509 142.828 4.46684 142.828 4.46684C142.828 4.46684 145.487 1.83799 148.502 2.23384C148.502 2.23384 156.825 5.10629 161.697 11.0745C166.569 17.0427 165.513 29.3445 165.513 29.3445L159.687 30.1463Z" fill="#231F20"/>
<path d="M159.687 30.6538C159.622 30.6539 159.558 30.6403 159.498 30.6141C159.439 30.5879 159.386 30.5496 159.342 30.5016C159.285 30.4497 159.241 30.3848 159.214 30.3123C159.188 30.2398 159.179 30.162 159.19 30.0854C159.19 29.9535 160.621 16.5758 155.891 11.0846C151.161 5.5935 142.868 4.99465 142.787 4.99465C142.689 4.99026 142.594 4.95692 142.515 4.89882C142.436 4.84072 142.376 4.76048 142.342 4.6682C142.308 4.57592 142.303 4.47575 142.326 4.3803C142.349 4.28486 142.4 4.19843 142.472 4.1319C142.584 4.02025 145.345 1.32035 148.562 1.7568H148.664C149.009 1.8786 157.19 4.8018 162.072 10.7497C166.954 16.6976 166.041 28.8877 165.99 29.3952C165.982 29.5086 165.935 29.6158 165.858 29.6989C165.78 29.782 165.676 29.836 165.564 29.852L159.758 30.6437L159.687 30.6538ZM144.066 4.10145C146.644 4.48715 152.714 5.84725 156.652 10.4249C161.108 15.5506 160.489 26.7157 160.255 29.5576L165.016 28.9081C165.148 26.7664 165.533 16.6062 161.291 11.3891C156.774 5.84725 149.111 2.9748 148.39 2.7312C146.831 2.65811 145.298 3.14405 144.066 4.10145Z" fill="#231F20"/>
<path d="M140.788 56.8713L140.179 71.4771C140.179 71.4771 146.066 79.7291 155.069 75.9025C164.072 72.076 164.478 64.6665 164.478 64.6462L162.884 49.34L161.869 39.9208C161.915 38.9445 161.819 37.9668 161.585 37.0179C161.118 36.1247 159.748 35.6476 159.007 34.8661C158.251 34.0563 157.676 33.0942 157.322 32.0444C156.978 30.9919 156.865 29.8775 156.991 28.7774C157.117 27.6774 157.479 26.6175 158.053 25.6702C157.286 25.5973 156.544 25.359 155.878 24.9717C155.212 24.5845 154.638 24.0575 154.196 23.427C153.759 22.7716 153.467 22.031 153.337 21.2542C153.208 20.4774 153.244 19.682 153.445 18.9204C152.988 19.4253 152.557 19.9538 152.156 20.5038C151.845 20.9637 151.443 21.355 150.975 21.6535C150.507 21.952 149.983 22.1514 149.435 22.2395C148.723 22.3125 148.005 22.1838 147.362 21.8679C146.72 21.552 146.179 21.0617 145.802 20.4531C145.654 21.2822 145.239 22.0401 144.619 22.6103C143.999 23.1805 143.21 23.5316 142.371 23.6097C140.69 23.7276 139.005 23.4531 137.448 22.8079C137.051 24.7025 136.141 26.4518 134.819 27.8656C133.496 29.2793 131.811 30.3034 129.947 30.8264C128.361 37.2897 128.551 44.0614 130.495 50.426C132.86 57.5006 140.788 56.8713 140.788 56.8713Z" fill="white"/>
<path d="M150.379 77.4656C143.883 77.4656 139.813 71.8831 139.773 71.8222C139.706 71.7309 139.67 71.6206 139.671 71.5076L140.26 57.4397C138.331 57.4397 132.14 56.8713 130.049 50.6392C128.074 44.1793 127.881 37.3057 129.491 30.7452C129.512 30.6593 129.556 30.5808 129.619 30.5182C129.682 30.4556 129.76 30.4113 129.846 30.3899C131.614 29.8913 133.212 28.9168 134.465 27.5727C135.718 26.2286 136.578 24.5664 136.951 22.7673C136.962 22.6961 136.989 22.6282 137.029 22.5685C137.069 22.5088 137.122 22.4589 137.184 22.4222C137.25 22.3928 137.321 22.3776 137.392 22.3776C137.464 22.3776 137.535 22.3928 137.601 22.4222C139.085 23.0448 140.694 23.3124 142.3 23.2037C143.024 23.1382 143.707 22.8397 144.247 22.3529C144.787 21.866 145.154 21.2172 145.294 20.5038C145.3 20.3962 145.341 20.2934 145.411 20.211C145.48 20.1287 145.575 20.0711 145.68 20.0471C145.784 20.0199 145.895 20.028 145.994 20.0703C146.093 20.1125 146.175 20.1865 146.228 20.2805C146.556 20.8056 147.025 21.2284 147.581 21.5011C148.137 21.7737 148.758 21.8853 149.375 21.8233C149.856 21.7389 150.316 21.5578 150.726 21.2909C151.136 21.024 151.488 20.6768 151.76 20.2704L152.135 19.7832C152.426 19.3659 152.745 18.9692 153.089 18.5956C153.169 18.5224 153.269 18.4754 153.376 18.4608C153.483 18.4463 153.592 18.465 153.688 18.5144C153.784 18.5686 153.859 18.6523 153.903 18.753C153.947 18.8536 153.957 18.9658 153.932 19.0727C153.755 19.7594 153.725 20.4754 153.842 21.1747C153.959 21.874 154.221 22.541 154.612 23.1327C155.01 23.7031 155.528 24.1802 156.129 24.5307C156.731 24.8812 157.401 25.0968 158.093 25.1627C158.179 25.1723 158.262 25.2034 158.333 25.253C158.404 25.3027 158.461 25.3693 158.499 25.4469C158.542 25.5209 158.565 25.605 158.565 25.6905C158.565 25.776 158.542 25.86 158.499 25.9341C157.687 27.2638 157.335 28.8237 157.496 30.3735C157.658 31.9232 158.324 33.377 159.393 34.5108C159.702 34.8134 160.042 35.0822 160.408 35.3127C161.059 35.6585 161.611 36.1651 162.011 36.7844C162.272 37.5125 162.379 38.2866 162.326 39.058C162.326 39.3625 162.326 39.6467 162.326 39.87L164.894 64.5954C164.894 64.6462 164.488 72.4312 155.191 76.3694C153.677 77.0555 152.041 77.4284 150.379 77.4656ZM140.696 71.3756C141.508 72.3906 146.878 78.8866 154.906 75.4965C163.564 71.8324 164.041 64.768 164.041 64.6969L161.484 40.0324C161.484 39.7888 161.484 39.4742 161.484 39.1291C161.517 38.5164 161.448 37.9024 161.281 37.3122C160.955 36.8542 160.523 36.4816 160.022 36.2262C159.575 35.96 159.162 35.6395 158.794 35.2721C157.662 34.0702 156.924 32.5521 156.678 30.92C156.431 29.288 156.688 27.6196 157.413 26.1371C156.152 25.8602 155.022 25.165 154.205 24.1645C153.389 23.1639 152.935 21.9168 152.917 20.6256L152.704 20.9098C152.349 21.4152 151.897 21.8445 151.374 22.1722C150.851 22.5 150.268 22.7196 149.659 22.818C149.031 22.89 148.394 22.8218 147.796 22.6182C147.197 22.4146 146.652 22.0807 146.198 21.6406C145.853 22.3279 145.345 22.9203 144.719 23.3661C144.093 23.812 143.367 24.0977 142.605 24.1984C140.989 24.3307 139.365 24.0804 137.864 23.4676C137.385 25.2911 136.448 26.9622 135.143 28.3227C133.837 29.6831 132.206 30.6881 130.404 31.2425C128.93 37.5272 129.147 44.0902 131.034 50.2636C133.206 56.8713 140.463 56.3536 140.767 56.3536C140.913 56.3476 141.055 56.3986 141.163 56.4957C141.214 56.5457 141.254 56.6059 141.281 56.6723C141.307 56.7388 141.319 56.81 141.315 56.8814L140.696 71.3756Z" fill="#231F20"/>
<path d="M140.473 64.5447C142.139 64.5935 143.791 64.2354 145.288 63.5014C146.784 62.7674 148.079 61.6797 149.06 60.3325C152.531 55.6736 151.658 52.3749 151.658 52.3749C151.658 52.3749 147.141 57.0946 140.788 56.8713L140.473 64.5447Z" fill="#231F20"/>
<path d="M140.909 65.0725C140.656 65.0725 140.493 65.0725 140.453 65.0725C140.323 65.0596 140.204 64.9977 140.119 64.8996C140.034 64.8014 139.99 64.6744 139.996 64.5447L140.311 56.8713C140.321 56.7384 140.381 56.6144 140.479 56.524C140.577 56.4337 140.705 56.3837 140.838 56.3841C146.928 56.5566 151.283 52.0906 151.323 52.05C151.387 51.9856 151.466 51.9387 151.553 51.9139C151.64 51.889 151.732 51.8869 151.821 51.9079C151.907 51.9311 151.986 51.9773 152.049 52.0417C152.111 52.106 152.155 52.186 152.176 52.2733C152.176 52.4154 153.079 55.8461 149.496 60.6572C148.508 62.0113 147.217 63.1156 145.726 63.8822C144.235 64.6488 142.586 65.0564 140.909 65.0725ZM141.305 57.3889L141.021 64.0575C142.525 64.016 143.998 63.6281 145.328 62.9239C146.657 62.2197 147.805 61.2182 148.684 59.9975C150.227 58.1329 151.137 55.8259 151.283 53.4101C148.504 55.8482 144.969 57.2535 141.275 57.3889H141.305Z" fill="#231F20"/>
<path d="M141.924 33.6989C141.924 33.6989 137.935 41.7174 139.275 42.8339C140.615 43.9504 143.792 42.6918 143.792 42.6918" fill="white"/>
<path d="M140.909 43.8183C140.207 43.8599 139.513 43.6513 138.95 43.2296C137.469 41.9812 140.229 35.9927 141.478 33.4755C141.507 33.4154 141.548 33.3617 141.598 33.3175C141.648 33.2732 141.706 33.2392 141.769 33.2176C141.832 33.1959 141.899 33.1869 141.966 33.1911C142.033 33.1953 142.098 33.2126 142.158 33.242C142.218 33.2711 142.272 33.312 142.316 33.3623C142.36 33.4126 142.393 33.4712 142.414 33.5346C142.435 33.5981 142.443 33.6651 142.437 33.7317C142.431 33.7983 142.412 33.863 142.381 33.9221C140.351 37.9821 139.062 42.0421 139.61 42.4582C140.503 43.2195 142.858 42.5293 143.609 42.2349C143.734 42.1851 143.874 42.1871 143.998 42.2404C144.122 42.2937 144.219 42.394 144.269 42.5191C144.319 42.6443 144.317 42.7841 144.264 42.9079C144.21 43.0316 144.11 43.1291 143.985 43.1789C143.003 43.5631 141.963 43.7792 140.909 43.8183Z" fill="#231F20"/>
<path d="M148.209 34.088C148.872 33.9444 149.245 33.0684 149.042 32.1316C148.839 31.1948 148.137 30.5518 147.474 30.6955C146.811 30.8392 146.438 31.7151 146.641 32.6519C146.844 33.5888 147.546 34.2317 148.209 34.088Z" fill="#231F20"/>
<path d="M137.531 34.0723C137.613 33.1172 137.131 32.2959 136.456 32.2379C135.78 32.1798 135.166 32.907 135.083 33.862C135.001 34.8171 135.483 35.6384 136.159 35.6964C136.834 35.7545 137.449 35.0273 137.531 34.0723Z" fill="#231F20"/>
<path d="M141.498 53.9176C140.489 53.9524 139.501 53.6207 138.717 52.9838C136.23 50.7609 136.464 46.4168 136.474 46.2341C136.478 46.114 136.526 45.9996 136.608 45.9119C136.69 45.8242 136.801 45.7692 136.92 45.757C148.085 44.4476 148.197 44.539 148.42 44.742C148.474 44.7909 148.517 44.8505 148.547 44.9168C148.577 44.9832 148.592 45.055 148.593 45.1277C148.589 46.8424 148.183 48.5322 147.405 50.0606C146.925 51.0114 146.235 51.8407 145.388 52.486C144.54 53.1313 143.557 53.5757 142.513 53.7856C142.179 53.8594 141.84 53.9036 141.498 53.9176ZM137.438 46.7111C137.438 47.7971 137.641 50.6899 139.336 52.2022C139.752 52.5211 140.234 52.743 140.747 52.8519C141.26 52.9608 141.79 52.9538 142.3 52.8316C143.191 52.6429 144.028 52.2568 144.75 51.7017C145.472 51.1466 146.06 50.4367 146.472 49.6241C147.092 48.3827 147.438 47.0223 147.487 45.6352C145.984 45.7468 140.909 46.3051 137.479 46.7111H137.438Z" fill="#231F20"/>
<path d="M146.999 49.8678C144.969 53.6131 140.848 54.1511 139.093 52.5981C139.671 51.1467 140.605 49.6749 142.138 49.2588C143.779 48.8789 145.502 49.0947 146.999 49.8678Z" fill="#231F20"/>
<path d="M141.498 53.9177C140.489 53.9525 139.501 53.6208 138.717 52.9839C138.64 52.9134 138.587 52.8215 138.563 52.7201C138.54 52.6187 138.547 52.5125 138.585 52.4155C139.387 50.3855 140.514 49.1675 141.945 48.7716C143.708 48.3606 145.56 48.5871 147.172 49.4111C147.233 49.44 147.288 49.481 147.334 49.5315C147.379 49.5821 147.414 49.6412 147.436 49.7054C147.486 49.8326 147.486 49.9741 147.436 50.1013C146.956 51.0521 146.266 51.8814 145.418 52.5267C144.571 53.172 143.588 53.6164 142.544 53.8263C142.199 53.8883 141.849 53.9189 141.498 53.9177ZM139.671 52.4358C140.483 52.8875 141.432 53.0283 142.341 52.8316C143.146 52.6635 143.908 52.3305 144.579 51.8536C145.25 51.3768 145.815 50.7663 146.238 50.0607C144.957 49.5133 143.535 49.3889 142.178 49.7054C141.582 49.9431 141.047 50.312 140.613 50.7846C140.179 51.2573 139.857 51.8216 139.671 52.4358Z" fill="#231F20"/>
<path d="M171.055 36.6626C171.093 35.1334 170.816 33.6127 170.241 32.1949C169.667 30.7771 168.807 29.4925 167.716 28.4208V26.4923H163.026C158.591 26.4923 154.998 31.0395 154.998 36.6423C154.998 42.2451 158.591 46.7923 163.026 46.7923H167.716V44.8638C168.802 43.7968 169.659 42.5188 170.233 41.1084C170.807 39.698 171.087 38.1851 171.055 36.6626Z" fill="#231F20"/>
<path d="M167.716 47.3405H163.026C158.327 47.3405 154.5 42.5497 154.5 36.6627C154.5 30.7757 158.327 25.9849 163.026 25.9849H167.716C167.85 25.9849 167.979 26.0383 168.074 26.1335C168.17 26.2287 168.223 26.3578 168.223 26.4924V28.1976C170.368 30.4945 171.561 33.52 171.561 36.6627C171.561 39.8053 170.368 42.8308 168.223 45.1278V46.833C168.223 46.9676 168.17 47.0966 168.074 47.1918C167.979 47.287 167.85 47.3405 167.716 47.3405ZM163.026 27.0405C158.885 27.0405 155.505 31.3847 155.505 36.7134C155.505 42.0422 158.885 46.3762 163.026 46.3762H167.208V44.9552C167.209 44.884 167.225 44.8138 167.254 44.7491C167.284 44.6844 167.327 44.6267 167.381 44.5797C169.412 42.4628 170.547 39.6424 170.547 36.7083C170.547 33.7743 169.412 30.9539 167.381 28.837C167.326 28.7929 167.283 28.7372 167.253 28.6739C167.223 28.6107 167.208 28.5416 167.208 28.4716V26.9897L163.026 27.0405Z" fill="#231F20"/>
<path d="M167.716 46.8329C172.15 46.8329 175.744 42.2795 175.744 36.6626C175.744 31.0457 172.15 26.4923 167.716 26.4923C163.281 26.4923 159.687 31.0457 159.687 36.6626C159.687 42.2795 163.281 46.8329 167.716 46.8329Z" fill="white"/>
<path d="M167.716 47.3405C163.016 47.3405 159.179 42.5497 159.179 36.6627C159.179 30.7757 163.016 25.9849 167.716 25.9849C172.415 25.9849 176.252 30.7757 176.252 36.6627C176.252 42.5497 172.425 47.3405 167.716 47.3405ZM167.716 27.0405C163.574 27.0405 160.194 31.3745 160.194 36.7033C160.194 42.032 163.574 46.3661 167.716 46.3661C171.857 46.3661 175.237 42.032 175.237 36.7033C175.237 31.3745 171.867 26.9999 167.716 26.9999V27.0405Z" fill="#231F20"/>
<path d="M167.716 43.6864C165.097 43.6864 162.965 40.5399 162.965 36.6626C162.965 32.7853 165.097 29.6388 167.716 29.6388C170.334 29.6388 172.466 32.7853 172.466 36.6626C172.466 40.5399 170.344 43.6864 167.716 43.6864ZM167.716 30.6538C165.686 30.6538 163.98 33.3435 163.98 36.6626C163.98 39.9816 165.655 42.6714 167.716 42.6714C169.776 42.6714 171.451 39.9715 171.451 36.6626C171.451 33.3537 169.776 30.6538 167.716 30.6538Z" fill="#D1D3D4"/>
<path d="M120.386 70.3606C120.477 71.2538 114.113 103.013 114.113 103.013L120.386 70.3606Z" fill="#231F20"/>
<path d="M114.113 103.561H114.012C113.881 103.532 113.767 103.453 113.693 103.342C113.619 103.23 113.592 103.094 113.616 102.962C116.133 90.4373 119.868 71.4365 119.879 70.4824C119.872 70.417 119.878 70.3509 119.896 70.2879C119.915 70.2248 119.946 70.1661 119.987 70.1152C120.029 70.0642 120.08 70.0219 120.138 69.9909C120.196 69.9599 120.26 69.9406 120.325 69.9343C120.461 69.923 120.596 69.9657 120.7 70.0531C120.805 70.1405 120.87 70.2656 120.883 70.4012C120.985 71.3045 116.103 95.7762 114.611 103.206C114.576 103.31 114.509 103.401 114.42 103.465C114.331 103.529 114.223 103.562 114.113 103.561Z" fill="#231F20"/>
<path d="M94.1585 96.1721L90.0173 116.726L75.7464 99.9479C75.7464 99.9479 73.3002 95.8879 71.6864 95.2789C69.8188 94.5786 62.1251 94.1117 59.5571 92.0106C56.9892 89.9096 55.5986 89.4528 55.3652 91.0768C55.1317 92.7008 62.1251 96.9131 62.1251 96.9131C62.1251 96.9131 56.5121 98.5472 55.355 98.0803C54.1979 97.6134 51.295 91.5742 50.1582 91.5742C49.5594 91.5742 48.3008 92.8429 49.468 95.5124C48.453 92.9444 47.032 90.1024 45.8039 90.1024C44.5757 90.1024 44.6366 92.2441 45.408 95.0962C45.408 95.0962 42.363 90.0923 41.1349 93.1779C40.0387 96.0097 48.1384 106.007 49.9958 106.474C51.8533 106.941 64.2058 103.206 64.2058 103.206C64.2058 103.206 79.2075 146.019 100.989 151.611C106.41 153.002 114.042 103.054 114.042 103.054L94.1585 96.1721Z" fill="white"/>
<path d="M101.324 152.149C101.206 152.164 101.087 152.164 100.969 152.149C91.8342 149.795 82.7601 140.862 74.092 125.607C70.1637 118.627 66.7772 111.355 63.9623 103.856C61.4654 104.607 51.7214 107.449 49.9248 106.992C48.3211 106.596 43.6927 101.095 41.6729 97.1972C40.6579 95.289 40.3737 93.9188 40.7188 93.0256C41.0639 92.1324 41.7338 91.7467 42.1499 91.7061C42.6083 91.7472 43.0529 91.8841 43.455 92.1079C43.8572 92.3317 44.2079 92.6374 44.4844 93.0053C44.2261 92.0378 44.3421 91.0084 44.8092 90.1227C44.9285 89.9669 45.0822 89.841 45.2583 89.7547C45.4344 89.6684 45.6281 89.6241 45.8242 89.6253C46.7073 89.6253 47.6614 90.5794 48.6662 92.4774C48.7332 92.274 48.8252 92.0796 48.9403 91.8989C49.0668 91.6753 49.2454 91.4857 49.461 91.3461C49.6767 91.2064 49.9228 91.121 50.1786 91.097C51.0413 91.097 51.9345 92.4165 53.4367 94.7612C54.0135 95.811 54.7306 96.7774 55.5682 97.6337C56.096 97.8468 58.5422 97.3799 60.8868 96.7607C58.4508 95.2281 54.6649 92.579 54.878 91.0362C54.8879 90.7559 54.9746 90.4837 55.1285 90.2492C55.2824 90.0148 55.4977 89.8271 55.7509 89.7065C56.5934 89.3817 57.8418 89.9603 59.9023 91.6553C61.5263 92.985 65.5457 93.6853 68.4892 94.1319C69.6353 94.2794 70.7685 94.5135 71.8793 94.8323C73.5642 95.4616 75.8885 99.2881 76.1524 99.7144L89.6925 115.63L93.6307 96.101C93.6456 96.0308 93.6751 95.9646 93.7174 95.9067C93.7597 95.8487 93.8138 95.8004 93.8762 95.7649C93.9385 95.7295 94.0077 95.7076 94.0791 95.7008C94.1505 95.694 94.2226 95.7024 94.2905 95.7255L114.245 102.607C114.358 102.646 114.453 102.723 114.514 102.825C114.575 102.928 114.599 103.048 114.58 103.165C114.306 105.003 107.638 148.272 102.177 151.885C101.922 152.049 101.627 152.141 101.324 152.149ZM64.2769 102.699C64.3809 102.7 64.482 102.733 64.5671 102.792C64.6521 102.852 64.7173 102.936 64.754 103.033C64.8961 103.46 79.9181 145.663 101.182 151.124C101.264 151.139 101.348 151.135 101.429 151.114C101.51 151.093 101.585 151.055 101.649 151.002C105.821 148.242 111.586 116.107 113.545 103.399L94.5341 96.842L90.4741 116.827C90.4563 116.921 90.4112 117.008 90.3444 117.077C90.2776 117.145 90.1921 117.193 90.0985 117.213C90.0074 117.24 89.9104 117.238 89.82 117.209C89.7296 117.18 89.6499 117.125 89.591 117.051L75.3201 100.283C74.3559 98.6893 72.5289 96.1315 71.5139 95.7559C70.4617 95.4626 69.3898 95.2455 68.3065 95.1063C65.0889 94.5684 61.0797 93.9086 59.2425 92.4064C57.0095 90.5693 56.3092 90.549 56.1163 90.6302C55.9235 90.7114 55.9032 90.9854 55.8727 91.158C55.7712 91.8482 58.8264 94.3349 62.3992 96.4766C62.4836 96.5263 62.551 96.6005 62.5927 96.6892C62.6343 96.7779 62.6483 96.8771 62.6326 96.9739C62.6225 97.0722 62.5833 97.1653 62.52 97.2412C62.4567 97.3171 62.3722 97.3725 62.2774 97.4002C61.3131 97.6743 56.4411 99.0547 55.1724 98.5472C54.5228 98.2833 53.7615 97.1363 52.574 95.2789C51.833 94.1218 50.544 92.2339 50.138 92.0715C49.9687 92.1692 49.8312 92.3137 49.7421 92.4876C49.5688 92.8595 49.479 93.2649 49.479 93.6752C49.479 94.0855 49.5688 94.4908 49.7421 94.8627L49.935 95.3195C49.9822 95.4448 49.9789 95.5836 49.9259 95.7067C49.8729 95.8297 49.7743 95.9274 49.6508 95.9792C49.5281 96.0303 49.3904 96.0313 49.267 95.982C49.1436 95.9326 49.0446 95.8369 48.991 95.7153L48.7982 95.2281C47.499 92.041 46.3622 90.6099 45.7532 90.6099C45.6619 90.6112 45.5747 90.6475 45.5096 90.7114C45.2254 91.0869 45.1543 92.4064 45.8445 94.9642C45.874 95.0827 45.8606 95.2078 45.8067 95.3174C45.7528 95.427 45.662 95.514 45.5502 95.5631C45.4386 95.6122 45.3129 95.6187 45.1969 95.5813C45.0809 95.5439 44.9827 95.4651 44.9209 95.3601C44.2307 94.2436 42.8909 92.6297 42.1398 92.6805C41.8657 92.6805 41.6729 93.0662 41.5612 93.3605C41.4496 93.6549 41.3379 94.5075 42.4646 96.6999C44.657 100.922 49.0621 105.723 50.0669 105.977C51.3255 106.302 59.3034 104.15 64.0232 102.719L64.2769 102.699Z" fill="#231F20"/>
<path d="M52.2086 99.7956C52.1273 99.7953 52.0473 99.7758 51.9751 99.7387C51.9028 99.7017 51.8402 99.6482 51.7924 99.5825L49.1027 95.7661C49.0341 95.6556 49.0106 95.523 49.0369 95.3957C49.0632 95.2683 49.1374 95.156 49.2442 95.0818C49.351 95.0075 49.4822 94.9771 49.6107 94.9968C49.7392 95.0165 49.8553 95.0848 49.935 95.1875L52.6146 98.9938C52.6535 99.0483 52.6813 99.1101 52.6962 99.1754C52.7112 99.2407 52.7131 99.3084 52.7017 99.3744C52.6904 99.4405 52.6661 99.5036 52.6302 99.5603C52.5944 99.6169 52.5477 99.6658 52.4928 99.7043C52.4102 99.7644 52.3106 99.7964 52.2086 99.7956Z" fill="#231F20"/>
<path d="M45.4994 95.0962C46.4324 96.561 47.4491 97.9708 48.5444 99.3186L45.4994 95.0962Z" fill="white"/>
<path d="M48.5444 99.7956C48.4029 99.792 48.2684 99.7338 48.1688 99.6332C47.0446 98.2662 46.004 96.8324 45.0528 95.3398C44.9793 95.2279 44.9531 95.0915 44.9797 94.9604C45.0063 94.8292 45.0836 94.7139 45.1949 94.6394C45.3096 94.5664 45.4484 94.5415 45.5814 94.57C45.7143 94.5985 45.8307 94.6781 45.9054 94.7917C46.8415 96.2316 47.8582 97.6176 48.9504 98.943C48.9977 98.9894 49.0352 99.0446 49.0608 99.1056C49.0865 99.1666 49.0997 99.2321 49.0997 99.2983C49.0997 99.3645 49.0865 99.43 49.0608 99.491C49.0352 99.552 48.9977 99.6072 48.9504 99.6535C48.8969 99.705 48.8329 99.7442 48.7629 99.7688C48.6928 99.7933 48.6183 99.8024 48.5444 99.7956Z" fill="#231F20"/>
<path d="M31.1676 147.308H222.231L252.894 200.717H0.504456L31.1676 147.308Z" fill="white"/>
<path d="M252.894 201.225H0.504442C0.415616 201.224 0.328485 201.2 0.25176 201.155C0.175035 201.111 0.111406 201.047 0.0672248 200.97C0.0230437 200.892 -0.000134379 200.805 5.86066e-07 200.716C0.000135551 200.628 0.0235764 200.54 0.0679915 200.463L30.7311 147.054C30.7754 146.977 30.839 146.914 30.9156 146.869C30.9921 146.825 31.079 146.801 31.1676 146.8H222.231C222.32 146.801 222.407 146.825 222.483 146.869C222.56 146.914 222.623 146.977 222.668 147.054L253.331 200.463C253.375 200.54 253.399 200.628 253.399 200.716C253.399 200.805 253.376 200.892 253.332 200.97C253.287 201.047 253.224 201.111 253.147 201.155C253.07 201.2 252.983 201.224 252.894 201.225ZM1.38749 200.21H252.011L221.937 147.815H31.4619L1.38749 200.21Z" fill="#231F20"/>
<path d="M143.244 162.705C154.287 162.705 163.239 160.011 163.239 156.686C163.239 153.362 154.287 150.667 143.244 150.667C132.201 150.667 123.248 153.362 123.248 156.686C123.248 160.011 132.201 162.705 143.244 162.705Z" fill="white"/>
<path d="M143.244 163.213C133.165 163.213 122.741 160.777 122.741 156.686C122.741 152.596 133.165 150.16 143.244 150.16C153.323 150.16 163.747 152.606 163.747 156.686C163.747 160.767 153.323 163.213 143.244 163.213ZM143.244 151.175C131.764 151.175 123.756 154.078 123.756 156.686C123.756 159.295 131.764 162.198 143.244 162.198C154.723 162.198 162.732 159.295 162.732 156.686C162.732 154.078 154.723 151.175 143.244 151.175Z" fill="#D1D3D4"/>
<path d="M143.244 159.965C149.264 159.965 154.145 158.497 154.145 156.686C154.145 154.876 149.264 153.408 143.244 153.408C137.223 153.408 132.343 154.876 132.343 156.686C132.343 158.497 137.223 159.965 143.244 159.965Z" fill="white"/>
<path d="M143.244 160.472C137.712 160.472 131.835 159.143 131.835 156.686C131.835 154.23 137.712 152.9 143.244 152.9C148.776 152.9 154.653 154.22 154.653 156.686C154.653 159.153 148.776 160.472 143.244 160.472ZM143.244 153.915C136.809 153.915 132.85 155.529 132.85 156.686C132.85 157.843 136.809 159.457 143.244 159.457C149.679 159.457 153.638 157.843 153.638 156.686C153.638 155.529 149.679 153.915 143.244 153.915Z" fill="#D1D3D4"/>
<path d="M61.7089 172.013L61.9424 174.611L120.437 183.158L119.848 180.427L61.7089 172.013Z" fill="white"/>
<path d="M120.437 183.665H120.366L61.8714 175.109C61.7577 175.093 61.6527 175.039 61.5734 174.956C61.4941 174.874 61.4453 174.766 61.4349 174.652L61.2015 172.064C61.1924 171.987 61.2015 171.909 61.2278 171.836C61.2542 171.763 61.2972 171.698 61.3534 171.645C61.4095 171.591 61.4773 171.552 61.5514 171.53C61.6255 171.507 61.7037 171.502 61.78 171.516L119.919 179.981C120.022 179.995 120.118 180.041 120.195 180.111C120.271 180.182 120.324 180.275 120.346 180.376L120.934 183.107C120.951 183.186 120.948 183.267 120.927 183.345C120.906 183.423 120.867 183.494 120.812 183.553C120.761 183.597 120.701 183.629 120.636 183.648C120.572 183.667 120.504 183.673 120.437 183.665ZM62.4093 174.165L119.787 182.549L119.422 180.884L62.2672 172.612L62.4093 174.165Z" fill="#231F20"/>
<path d="M61.7394 172.013C61.7394 172.013 75.0156 160.594 75.4622 160.696C75.9088 160.797 135.733 167.963 135.733 167.963L119.848 180.417L61.7394 172.013Z" fill="white"/>
<path d="M119.848 180.935H119.777L61.6379 172.52C61.5401 172.508 61.4484 172.466 61.3743 172.401C61.3002 172.336 61.2471 172.25 61.2218 172.155C61.1925 172.062 61.1913 171.962 61.2184 171.868C61.2455 171.774 61.2996 171.69 61.374 171.627C74.8938 160.036 75.2795 160.137 75.584 160.208C76.3351 160.33 115.301 165.009 135.794 167.466C135.893 167.477 135.987 167.517 136.063 167.582C136.14 167.648 136.194 167.734 136.22 167.831C136.249 167.928 136.248 168.031 136.218 168.127C136.187 168.223 136.127 168.307 136.048 168.369L120.163 180.833C120.072 180.901 119.961 180.937 119.848 180.935ZM62.8864 171.668L119.726 179.899L134.474 168.328C122.599 166.907 78.7711 161.65 75.6043 161.223C74.4878 161.853 67.6163 167.628 62.8864 171.668Z" fill="#231F20"/>
<path d="M120.437 183.158L135.966 170.561L135.733 167.973L119.848 180.427L120.437 183.158Z" fill="white"/>
<path d="M120.437 183.665C120.38 183.675 120.321 183.675 120.264 183.665C120.183 183.637 120.111 183.589 120.054 183.525C119.997 183.461 119.958 183.383 119.939 183.3L119.351 180.569C119.33 180.476 119.337 180.379 119.369 180.289C119.401 180.2 119.458 180.121 119.533 180.062L135.418 167.598C135.492 167.544 135.578 167.51 135.669 167.499C135.76 167.488 135.852 167.501 135.936 167.537C136.019 167.573 136.091 167.63 136.145 167.703C136.198 167.776 136.231 167.863 136.24 167.953L136.474 170.551C136.484 170.634 136.472 170.717 136.44 170.794C136.408 170.87 136.357 170.937 136.291 170.988L120.762 183.584C120.664 183.643 120.551 183.671 120.437 183.665ZM120.437 180.62L120.792 182.234L135.469 170.328L135.347 168.937L120.437 180.62Z" fill="#231F20"/>
<path d="M61.709 172.013L50.4628 134.346L112.124 144.862L119.848 180.427L61.709 172.013Z" fill="white"/>
<path d="M119.848 180.935H119.777L61.6379 172.52C61.5401 172.508 61.4484 172.466 61.3743 172.401C61.3002 172.336 61.2471 172.25 61.2218 172.155L49.9756 134.488C49.9504 134.406 49.9474 134.319 49.967 134.235C49.9867 134.151 50.0281 134.074 50.0872 134.011C50.1441 133.946 50.2171 133.896 50.299 133.868C50.3809 133.839 50.4689 133.833 50.5541 133.849L112.215 144.354C112.315 144.372 112.406 144.42 112.479 144.49C112.551 144.561 112.601 144.651 112.621 144.75L120.346 180.326C120.362 180.407 120.359 180.491 120.336 180.57C120.313 180.65 120.271 180.723 120.214 180.782C120.167 180.832 120.11 180.871 120.047 180.897C119.984 180.924 119.916 180.936 119.848 180.935ZM62.0947 171.556L119.199 179.828L111.708 145.318L51.1834 134.986L62.0947 171.556Z" fill="#231F20"/>
<path d="M155.119 115.427L155.667 115.518C157.315 115.767 158.814 116.612 159.88 117.893C160.474 118.803 160.802 119.862 160.827 120.948C160.852 122.035 160.573 123.107 160.022 124.044C157.606 128.409 151.699 129.606 147.172 130.033C146.533 130.134 145.88 130.085 145.264 129.89C144.975 129.815 144.717 129.652 144.527 129.422C144.337 129.192 144.223 128.909 144.203 128.611C144.183 128.314 144.257 128.018 144.414 127.764C144.572 127.511 144.805 127.314 145.081 127.201C145.555 126.98 146.063 126.839 146.583 126.785C149.405 126.318 152.379 125.973 154.967 124.673C156.469 123.912 158.57 122.166 157.474 120.289C157.089 119.69 156.534 119.22 155.881 118.939C153.292 117.7 150.806 118.634 148.268 119.395C148.083 119.462 147.886 119.49 147.69 119.477C147.445 119.412 147.234 119.258 147.097 119.046C146.96 118.834 146.907 118.579 146.949 118.33C147.03 117.213 148.146 116.472 149.192 116.076C151.08 115.356 153.12 115.133 155.119 115.427Z" fill="white"/>
<path d="M146.401 130.591C145.943 130.598 145.489 130.519 145.061 130.357C144.651 130.219 144.296 129.953 144.048 129.599C143.799 129.245 143.671 128.821 143.68 128.388C143.721 128.042 143.847 127.711 144.047 127.426C144.248 127.141 144.516 126.91 144.827 126.754C145.353 126.508 145.915 126.347 146.492 126.277L147.507 126.115C149.986 125.855 152.41 125.215 154.693 124.217C155.781 123.742 156.658 122.886 157.16 121.811C157.224 121.6 157.243 121.378 157.215 121.159C157.187 120.94 157.113 120.73 156.997 120.542C156.663 120.03 156.182 119.63 155.617 119.395C153.434 118.38 151.293 118.999 149.029 119.679L148.37 119.882C148.116 119.972 147.846 120.007 147.578 119.984C147.206 119.899 146.879 119.678 146.661 119.364C146.443 119.051 146.35 118.667 146.401 118.289C146.482 117.152 147.416 116.198 148.968 115.599C150.939 114.843 153.073 114.612 155.16 114.929C155.353 114.929 155.536 114.99 155.728 115.021C157.497 115.297 159.103 116.21 160.245 117.589C160.901 118.578 161.264 119.732 161.295 120.918C161.325 122.105 161.021 123.276 160.418 124.298C158.449 127.85 154.115 129.89 147.223 130.54C146.999 130.56 146.675 130.591 146.401 130.591ZM153.181 117.832C154.186 117.822 155.179 118.044 156.084 118.482C156.831 118.805 157.464 119.346 157.9 120.035C158.085 120.335 158.204 120.672 158.249 121.022C158.295 121.371 158.266 121.727 158.164 122.065C157.677 123.729 155.759 124.805 155.18 125.11C152.808 126.171 150.284 126.856 147.7 127.14L146.685 127.302C146.218 127.35 145.762 127.473 145.335 127.668C145.142 127.731 144.976 127.857 144.863 128.026C144.75 128.194 144.696 128.395 144.71 128.598C144.724 128.8 144.805 128.992 144.94 129.144C145.075 129.295 145.257 129.397 145.457 129.434C145.998 129.603 146.572 129.641 147.131 129.545C153.719 128.936 157.789 127.059 159.585 123.821C160.095 122.969 160.355 121.992 160.337 121C160.319 120.008 160.024 119.04 159.484 118.208C158.488 117.038 157.104 116.267 155.586 116.036L155.058 115.944C153.145 115.66 151.191 115.873 149.385 116.563C148.837 116.777 147.537 117.375 147.466 118.39C147.466 118.675 147.588 118.979 147.761 118.999C147.889 118.996 148.016 118.972 148.136 118.928L148.786 118.736C150.199 118.222 151.68 117.918 153.181 117.832Z" fill="#231F20"/>
<path d="M152.988 110.758C152.988 110.758 148.725 132.073 148.38 133.311C148.035 134.549 137.946 139.858 129.927 134.691L122.913 112.991L152.988 110.758Z" fill="white"/>
<path d="M137.783 137.432C134.909 137.464 132.088 136.66 129.663 135.118C129.565 135.054 129.493 134.956 129.46 134.844L122.436 113.102C122.411 113.029 122.403 112.951 122.413 112.875C122.423 112.798 122.451 112.725 122.494 112.661C122.538 112.596 122.595 112.543 122.663 112.506C122.73 112.468 122.806 112.446 122.883 112.443L152.968 110.25C153.045 110.246 153.123 110.259 153.195 110.289C153.267 110.319 153.332 110.364 153.384 110.423C153.433 110.483 153.469 110.553 153.488 110.628C153.508 110.704 153.51 110.783 153.495 110.859C153.323 111.732 149.222 132.174 148.877 133.443C148.654 134.285 146.695 135.382 144.817 136.082C142.573 136.952 140.19 137.41 137.783 137.432ZM130.353 134.387C135.043 137.32 140.219 136.417 142.899 135.696C145.944 134.813 147.74 133.524 147.893 133.189C148.187 132.083 151.638 114.919 152.359 111.346L123.593 113.437L130.353 134.387Z" fill="#231F20"/>
<path d="M152.988 110.758C152.969 111.371 152.811 111.971 152.526 112.515C152.241 113.058 151.837 113.529 151.344 113.894C148.887 116.056 143.944 117.66 138.149 117.954C132.191 118.198 126.984 116.939 124.446 114.848C123.986 114.515 123.604 114.085 123.327 113.589C123.05 113.093 122.885 112.542 122.842 111.976C122.69 108.372 129.318 105.175 137.641 104.871C145.964 104.566 152.846 107.154 152.988 110.758Z" fill="#231F20"/>
<path d="M136.717 118.431C131.389 118.431 126.669 117.223 124.172 115.183C123.649 114.816 123.213 114.339 122.895 113.784C122.578 113.23 122.386 112.612 122.335 111.976C122.328 111.409 122.436 110.848 122.652 110.324C122.869 109.801 123.189 109.327 123.593 108.931C125.979 106.353 131.48 104.515 137.621 104.272C143.762 104.028 149.415 105.388 151.993 107.774C152.426 108.127 152.782 108.565 153.04 109.061C153.298 109.556 153.453 110.099 153.495 110.656C153.484 111.346 153.313 112.024 152.996 112.636C152.679 113.249 152.225 113.78 151.668 114.188C149.06 116.503 143.904 118.086 138.209 118.319L136.717 118.431ZM139.103 105.327H137.661C131.774 105.571 126.496 107.266 124.345 109.672C124.03 109.962 123.778 110.313 123.603 110.704C123.429 111.095 123.336 111.517 123.33 111.945C123.382 112.43 123.539 112.898 123.79 113.317C124.04 113.736 124.378 114.095 124.781 114.371C127.288 116.401 132.536 117.599 138.138 117.416C143.741 117.233 148.532 115.701 150.988 113.529C151.426 113.216 151.786 112.807 152.041 112.334C152.296 111.861 152.439 111.335 152.46 110.798C152.42 110.375 152.297 109.964 152.096 109.59C151.896 109.215 151.623 108.884 151.293 108.616C149.111 106.566 144.421 105.327 139.103 105.327Z" fill="#231F20"/>
<path d="M151.344 113.894C148.887 116.056 143.944 117.66 138.149 117.954C132.19 118.198 126.984 116.939 124.446 114.848C126.902 112.676 131.845 111.072 137.641 110.839C143.599 110.544 148.806 111.834 151.344 113.894Z" fill="#FFBC5A"/>
<path d="M207.199 90.1024C207.199 90.1024 228.687 124.328 226.301 134.346C223.916 144.364 170.344 130.073 170.344 130.073C168.612 130.567 166.863 131.014 165.097 131.413C163.432 131.788 158.276 133.585 156.896 132.184C155.785 130.996 155.099 129.474 154.943 127.855C154.787 126.236 155.17 124.611 156.033 123.232C155.23 122.79 154.511 122.21 153.912 121.517C153.616 121.169 153.415 120.751 153.328 120.303C153.241 119.855 153.271 119.392 153.414 118.959C153.845 118.156 154.574 117.554 155.444 117.284C160.194 115.345 166.071 115.457 171.156 115.386L199.221 121.608L185.011 98.1615" fill="white"/>
<path d="M215.867 138.366C200.206 138.366 172.902 131.261 170.334 130.56C168.67 131.037 166.944 131.474 165.198 131.86L164.062 132.164C160.925 133.027 157.769 133.758 156.52 132.499C155.394 131.291 154.674 129.76 154.461 128.122C154.248 126.484 154.553 124.82 155.333 123.364C154.64 122.949 154.023 122.421 153.506 121.801C153.154 121.387 152.915 120.889 152.814 120.355C152.712 119.821 152.751 119.27 152.927 118.756C153.169 118.294 153.5 117.883 153.9 117.549C154.301 117.215 154.763 116.962 155.262 116.807C159.687 115 165.066 114.939 169.807 114.889H171.156H171.278L198.186 120.857L184.605 98.4254C184.569 98.3694 184.545 98.3065 184.534 98.2407C184.523 98.1749 184.526 98.1076 184.542 98.0429C184.558 97.9782 184.587 97.9175 184.628 97.8646C184.668 97.8117 184.719 97.7676 184.778 97.7352C184.834 97.7 184.896 97.6763 184.961 97.6654C185.026 97.6545 185.093 97.6567 185.157 97.6718C185.221 97.6869 185.282 97.7147 185.335 97.7535C185.389 97.7922 185.434 97.8412 185.468 97.8976L199.678 121.344C199.731 121.429 199.757 121.529 199.754 121.629C199.75 121.729 199.717 121.826 199.658 121.908C199.6 121.99 199.518 122.052 199.424 122.087C199.33 122.122 199.228 122.128 199.13 122.105L171.116 115.894H169.827C165.178 115.944 159.9 115.995 155.617 117.731C155.243 117.836 154.894 118.014 154.589 118.254C154.285 118.495 154.03 118.793 153.841 119.131C153.738 119.479 153.724 119.847 153.801 120.202C153.877 120.557 154.041 120.886 154.277 121.161C154.857 121.806 155.544 122.345 156.307 122.755C156.364 122.791 156.413 122.839 156.451 122.895C156.49 122.951 156.517 123.013 156.53 123.08C156.554 123.214 156.525 123.352 156.449 123.465C155.649 124.744 155.293 126.252 155.438 127.753C155.583 129.255 156.221 130.666 157.251 131.768C158.185 132.722 161.981 131.677 163.798 131.179L164.985 130.865C166.762 130.469 168.517 130.022 170.202 129.535C170.293 129.515 170.386 129.515 170.476 129.535C170.923 129.657 215.238 141.37 224.403 135.909C224.748 135.735 225.052 135.49 225.297 135.191C225.541 134.892 225.721 134.546 225.824 134.174C228.128 124.48 206.996 90.6607 206.783 90.3156C206.746 90.2594 206.721 90.1963 206.709 90.1301C206.698 90.064 206.699 89.9961 206.715 89.9307C206.73 89.8652 206.758 89.8036 206.798 89.7493C206.837 89.6951 206.888 89.6495 206.945 89.6152C207.06 89.5463 207.198 89.5247 207.328 89.555C207.459 89.5853 207.573 89.6651 207.646 89.7776C208.529 91.1885 229.214 124.288 226.809 134.438C226.673 134.94 226.435 135.409 226.11 135.816C225.785 136.223 225.381 136.558 224.921 136.803C223.023 137.96 219.816 138.366 215.867 138.366Z" fill="#231F20"/>
<path d="M11.4258 193.064V196.19H41.5206L49.0316 178.184L47.438 174.865L11.4258 193.064Z" fill="#231F20"/>
<path d="M41.5206 196.688H11.4258C11.2912 196.688 11.1622 196.634 11.067 196.539C10.9718 196.444 10.9183 196.315 10.9183 196.18V193.064C10.92 192.971 10.9474 192.88 10.9976 192.801C11.0477 192.722 11.1187 192.659 11.2025 192.617L47.2147 174.408C47.3419 174.358 47.4834 174.358 47.6106 174.408C47.7366 174.459 47.8409 174.552 47.9049 174.672L49.4883 178.001C49.5163 178.065 49.5307 178.135 49.5307 178.204C49.5307 178.274 49.5163 178.343 49.4883 178.407L41.9773 196.414C41.9332 196.496 41.8674 196.566 41.7869 196.614C41.7065 196.662 41.6144 196.688 41.5206 196.688ZM11.9333 195.673H41.1755L48.4733 178.194L47.2046 175.545L11.9333 193.379V195.673Z" fill="#231F20"/>
<path d="M22.1544 174.246C21.7586 175.119 11.4157 193.064 11.4157 193.064H40.262L47.4381 174.906L22.1544 174.246Z" fill="white"/>
<path d="M40.2721 193.571H11.4258C11.3368 193.573 11.2491 193.55 11.1722 193.506C11.0952 193.461 11.032 193.396 10.9894 193.318C10.9448 193.241 10.9214 193.153 10.9214 193.064C10.9214 192.975 10.9448 192.887 10.9894 192.81C13.8618 187.827 21.383 174.733 21.7078 174.033C21.7563 173.95 21.824 173.88 21.9053 173.829C21.9866 173.777 22.0789 173.746 22.1747 173.738L47.4583 174.358C47.5394 174.357 47.6192 174.378 47.6903 174.417C47.7613 174.456 47.8212 174.512 47.8643 174.581C47.9017 174.653 47.9212 174.733 47.9212 174.814C47.9212 174.896 47.9017 174.976 47.8643 175.048L40.6984 193.257C40.6632 193.343 40.6048 193.419 40.5296 193.474C40.4544 193.53 40.3653 193.563 40.2721 193.571ZM12.3089 192.556H39.927L46.7072 175.352L22.469 174.764C21.2815 176.936 14.1765 189.308 12.3089 192.556Z" fill="#231F20"/>
<path d="M27.9094 186.071C27.4302 186.079 26.9635 185.917 26.592 185.614C26.2205 185.312 25.968 184.887 25.8794 184.416L6.37115 79.0287C6.28913 78.5949 6.3508 78.1461 6.54678 77.7505C6.74276 77.3549 7.06238 77.0339 7.4572 76.8363L66.6012 47.4622C66.841 47.3108 67.1099 47.2113 67.3905 47.1702C67.6711 47.129 67.9572 47.1471 68.2304 47.2233C68.5035 47.2995 68.7577 47.4321 68.9765 47.6125C69.1953 47.7929 69.3739 48.0172 69.5007 48.2708C69.6276 48.5245 69.6998 48.8019 69.7129 49.0852C69.7259 49.3685 69.6795 49.6514 69.5765 49.9156C69.4736 50.1799 69.3164 50.4196 69.1151 50.6194C68.9139 50.8192 68.673 50.9746 68.408 51.0756L10.6443 79.7899L29.9293 183.624C29.9792 183.887 29.9768 184.157 29.9221 184.419C29.8675 184.68 29.7616 184.929 29.6107 185.149C29.4599 185.37 29.2668 185.559 29.0428 185.705C28.8188 185.851 28.5682 185.951 28.3053 186C28.1756 186.035 28.0432 186.058 27.9094 186.071Z" fill="#231F20"/>
<path d="M32.2131 184.67C31.9727 184.674 31.7388 184.592 31.5529 184.44C31.3671 184.287 31.2413 184.074 31.1981 183.838L12.38 81.6271C12.341 81.4073 12.3756 81.1808 12.4783 80.9826C12.5811 80.7844 12.7463 80.6257 12.9484 80.5309L71.1282 53.2274C71.3709 53.1189 71.6466 53.11 71.8958 53.2026C72.1451 53.2952 72.3481 53.4819 72.4611 53.7226C72.5741 53.9633 72.5882 54.2387 72.5003 54.4897C72.4124 54.7406 72.2295 54.947 71.9909 55.0645L14.5216 82.0331L33.2078 183.472C33.2327 183.604 33.2315 183.738 33.2042 183.869C33.1769 184 33.1239 184.124 33.0485 184.235C32.9731 184.345 32.8765 184.439 32.7645 184.512C32.6525 184.585 32.5272 184.635 32.3958 184.66L32.2131 184.67Z" fill="#231F20"/>
<path d="M12.6641 86.4991C16.2126 86.4991 19.0891 83.6225 19.0891 80.0741C19.0891 76.5257 16.2126 73.6492 12.6641 73.6492C9.11575 73.6492 6.2392 76.5257 6.2392 80.0741C6.2392 83.6225 9.11575 86.4991 12.6641 86.4991Z" fill="#231F20"/>
<path d="M12.6641 87.0066C11.293 87.0066 9.95272 86.6 8.81268 85.8383C7.67264 85.0766 6.7841 83.9939 6.2594 82.7271C5.7347 81.4604 5.59741 80.0665 5.8649 78.7217C6.13239 77.377 6.79264 76.1417 7.76216 75.1722C8.73168 74.2027 9.96693 73.5424 11.3117 73.2749C12.6565 73.0074 14.0503 73.1447 15.3171 73.6694C16.5838 74.1941 17.6665 75.0827 18.4283 76.2227C19.19 77.3627 19.5966 78.7031 19.5966 80.0742C19.5912 81.9111 18.8591 83.6713 17.5602 84.9702C16.2613 86.2692 14.5011 87.0013 12.6641 87.0066ZM12.6641 74.1466C11.4918 74.1466 10.3457 74.4942 9.37095 75.1456C8.39616 75.7969 7.63641 76.7227 7.18776 77.8058C6.73911 78.8889 6.62172 80.0808 6.85044 81.2306C7.07916 82.3804 7.64371 83.4366 8.4727 84.2656C9.30169 85.0946 10.3579 85.6592 11.5077 85.8879C12.6576 86.1166 13.8494 85.9992 14.9325 85.5506C16.0157 85.1019 16.9414 84.3422 17.5928 83.3674C18.2441 82.3926 18.5917 81.2465 18.5917 80.0742C18.5917 78.5021 17.9672 76.9944 16.8556 75.8827C15.7439 74.7711 14.2362 74.1466 12.6641 74.1466Z" fill="#231F20"/>
<path d="M70.6004 57.6426C74.1488 57.6426 77.0253 54.7661 77.0253 51.2177C77.0253 47.6693 74.1488 44.7927 70.6004 44.7927C67.052 44.7927 64.1754 47.6693 64.1754 51.2177C64.1754 54.7661 67.052 57.6426 70.6004 57.6426Z" fill="#231F20"/>
<path d="M70.6003 58.1806C69.2268 58.1826 67.8835 57.7771 66.7405 57.0155C65.5974 56.2539 64.706 55.1703 64.179 53.9019C63.652 52.6334 63.513 51.2372 63.7798 49.8898C64.0465 48.5424 64.7069 47.3044 65.6774 46.3324C66.648 45.3605 67.885 44.6983 69.232 44.4296C70.579 44.1609 71.9755 44.2977 73.2447 44.8229C74.5138 45.3481 75.5987 46.2379 76.362 47.3799C77.1254 48.5218 77.5328 49.8645 77.5328 51.238C77.5301 53.0767 76.7992 54.8395 75.5 56.1406C74.2008 57.4417 72.439 58.1752 70.6003 58.1806ZM70.6003 45.3206C69.4275 45.3206 68.2811 45.6685 67.3061 46.3202C66.3311 46.972 65.5713 47.8984 65.123 48.9821C64.6746 50.0658 64.5579 51.2582 64.7874 52.4083C65.0169 53.5584 65.5825 54.6146 66.4125 55.4432C67.2425 56.2718 68.2996 56.8355 69.4502 57.0631C70.6007 57.2907 71.7928 57.1718 72.8758 56.7216C73.9587 56.2714 74.8838 55.5101 75.5339 54.534C76.184 53.5578 76.53 52.4108 76.5279 51.238C76.5293 50.4587 76.3769 49.6868 76.0796 48.9665C75.7823 48.2462 75.3459 47.5915 74.7954 47.04C74.2448 46.4885 73.5909 46.051 72.8711 45.7524C72.1512 45.4539 71.3796 45.3003 70.6003 45.3003V45.3206Z" fill="#231F20"/>
<path d="M177.652 153.986L185.762 193.561H236.867L219.978 153.986H177.652Z" fill="#231F20"/>
<path d="M236.867 194.069H185.762C185.645 194.069 185.532 194.028 185.441 193.955C185.351 193.881 185.288 193.777 185.265 193.663L177.145 154.078C177.132 154.004 177.135 153.929 177.153 153.857C177.172 153.784 177.206 153.717 177.253 153.659C177.301 153.601 177.36 153.554 177.427 153.521C177.494 153.489 177.568 153.471 177.642 153.469H219.968C220.066 153.47 220.163 153.499 220.246 153.553C220.328 153.607 220.394 153.683 220.435 153.773L237.324 193.358C237.362 193.434 237.381 193.517 237.381 193.602C237.381 193.686 237.362 193.77 237.324 193.846C237.274 193.919 237.205 193.978 237.125 194.017C237.045 194.056 236.956 194.074 236.867 194.069ZM186.178 193.054H236.096L219.643 154.484H178.282L186.178 193.054Z" fill="#231F20"/>
<path d="M185.762 193.561L187.072 178.306H236.066L237.71 193.561H185.762Z" fill="white"/>
<path d="M237.71 194.069H185.762C185.692 194.069 185.623 194.055 185.558 194.027C185.494 193.999 185.436 193.958 185.388 193.906C185.341 193.855 185.304 193.794 185.281 193.727C185.258 193.661 185.249 193.591 185.255 193.521L186.564 178.296C186.579 178.171 186.639 178.056 186.732 177.972C186.825 177.888 186.946 177.841 187.072 177.839H236.066C236.19 177.838 236.311 177.883 236.405 177.966C236.498 178.048 236.558 178.162 236.573 178.286L238.217 193.511C238.227 193.58 238.221 193.65 238.199 193.717C238.178 193.784 238.143 193.845 238.096 193.896C238.047 193.95 237.987 193.993 237.921 194.023C237.854 194.053 237.783 194.068 237.71 194.069ZM186.31 193.054H237.152L235.609 178.844H187.539L186.31 193.054Z" fill="#231F20"/>
<path d="M187.072 178.306L177.652 153.986H219.978L236.066 178.306H187.072Z" fill="white"/>
<path d="M236.066 178.813H187.072C186.97 178.812 186.872 178.78 186.788 178.723C186.705 178.665 186.641 178.583 186.605 178.489L177.186 154.129C177.148 154.056 177.129 153.976 177.129 153.895C177.129 153.814 177.148 153.734 177.186 153.662C177.231 153.593 177.293 153.536 177.365 153.497C177.438 153.459 177.519 153.438 177.602 153.438H219.927C220.01 153.437 220.091 153.457 220.164 153.496C220.237 153.535 220.299 153.592 220.343 153.662L236.441 178.022C236.489 178.1 236.514 178.189 236.514 178.281C236.514 178.372 236.489 178.461 236.441 178.539C236.406 178.613 236.354 178.676 236.288 178.724C236.223 178.772 236.146 178.803 236.066 178.813ZM187.417 177.798H235.122L219.704 154.453H178.393L187.417 177.798Z" fill="#231F20"/>
<path d="M224.464 174.276C224.374 174.276 224.286 174.252 224.208 174.207C224.13 174.163 224.064 174.099 224.018 174.023L214.487 156.93C214.421 156.813 214.404 156.674 214.441 156.545C214.477 156.416 214.563 156.306 214.68 156.24C214.799 156.178 214.937 156.164 215.066 156.202C215.195 156.24 215.304 156.326 215.37 156.443L224.911 173.525C224.977 173.642 224.993 173.781 224.957 173.91C224.921 174.04 224.835 174.149 224.718 174.215C224.639 174.255 224.552 174.276 224.464 174.276Z" fill="#D1D3D4"/>
<path d="M215.593 174.276C215.503 174.276 215.415 174.252 215.337 174.207C215.259 174.163 215.193 174.099 215.147 174.023L205.616 156.93C205.55 156.813 205.533 156.674 205.57 156.545C205.606 156.416 205.692 156.306 205.809 156.24C205.927 156.178 206.066 156.164 206.195 156.202C206.323 156.24 206.432 156.326 206.499 156.443L216.04 173.525C216.082 173.603 216.104 173.69 216.102 173.778C216.1 173.866 216.076 173.952 216.031 174.028C215.986 174.104 215.922 174.167 215.845 174.21C215.768 174.254 215.681 174.277 215.593 174.276Z" fill="#D1D3D4"/>
<path d="M206.722 174.276C206.632 174.278 206.543 174.255 206.464 174.21C206.386 174.166 206.321 174.101 206.275 174.023L196.734 156.93C196.669 156.813 196.652 156.674 196.688 156.545C196.724 156.416 196.81 156.306 196.927 156.24C197.046 156.178 197.185 156.164 197.313 156.202C197.442 156.24 197.551 156.326 197.617 156.443L207.158 173.525C207.201 173.603 207.222 173.69 207.221 173.778C207.219 173.866 207.195 173.952 207.149 174.028C207.104 174.104 207.04 174.167 206.964 174.21C206.887 174.254 206.8 174.277 206.712 174.276H206.722Z" fill="#D1D3D4"/>
<path d="M196.491 174.52C196.394 174.52 196.3 174.493 196.219 174.441C196.138 174.388 196.073 174.314 196.034 174.226L187.853 156.9C187.815 156.839 187.791 156.77 187.782 156.699C187.772 156.628 187.778 156.556 187.799 156.487C187.819 156.419 187.854 156.355 187.901 156.301C187.948 156.247 188.005 156.203 188.07 156.173C188.135 156.143 188.206 156.126 188.277 156.125C188.349 156.124 188.42 156.138 188.486 156.167C188.552 156.195 188.611 156.237 188.659 156.29C188.707 156.343 188.744 156.405 188.767 156.473L196.948 173.799C196.976 173.859 196.993 173.924 196.996 173.99C197 174.057 196.99 174.123 196.967 174.186C196.944 174.248 196.909 174.305 196.864 174.354C196.819 174.403 196.765 174.442 196.704 174.469C196.637 174.5 196.565 174.518 196.491 174.52Z" fill="#D1D3D4"/>
<path d="M221.521 169.577C223.146 169.577 224.464 168.859 224.464 167.973C224.464 167.088 223.146 166.37 221.521 166.37C219.895 166.37 218.577 167.088 218.577 167.973C218.577 168.859 219.895 169.577 221.521 169.577Z" fill="white"/>
<path d="M221.521 170.084C219.592 170.084 218.08 169.151 218.08 167.973C218.08 166.796 219.562 165.862 221.521 165.862C223.48 165.862 224.972 166.775 224.972 167.973C224.972 169.171 223.459 170.084 221.521 170.084ZM221.521 166.877C220.13 166.877 219.095 167.455 219.095 167.973C219.095 168.491 220.018 169.069 221.521 169.069C223.023 169.069 223.957 168.43 223.957 167.973C223.957 167.516 222.921 166.877 221.521 166.877Z" fill="#D1D3D4"/>
<path d="M203.778 170.815C205.404 170.815 206.722 170.097 206.722 169.211C206.722 168.326 205.404 167.608 203.778 167.608C202.153 167.608 200.835 168.326 200.835 169.211C200.835 170.097 202.153 170.815 203.778 170.815Z" fill="white"/>
<path d="M203.779 171.313C201.809 171.313 200.328 170.409 200.328 169.212C200.328 168.014 201.85 167.1 203.779 167.1C205.707 167.1 207.23 168.024 207.23 169.212C207.23 170.399 205.748 171.313 203.779 171.313ZM203.779 168.115C202.276 168.115 201.343 168.755 201.343 169.212C201.343 169.668 202.358 170.298 203.779 170.298C205.2 170.298 206.215 169.729 206.215 169.212C206.215 168.694 205.291 168.115 203.779 168.115Z" fill="#D1D3D4"/>
<path d="M191.73 164.776C193.356 164.776 194.674 164.058 194.674 163.172C194.674 162.286 193.356 161.568 191.73 161.568C190.105 161.568 188.787 162.286 188.787 163.172C188.787 164.058 190.105 164.776 191.73 164.776Z" fill="white"/>
<path d="M191.73 165.283C189.802 165.283 188.29 164.35 188.29 163.172C188.29 161.995 189.771 161.061 191.73 161.061C193.689 161.061 195.181 161.975 195.181 163.172C195.181 164.37 193.689 165.283 191.73 165.283ZM191.73 162.076C190.34 162.076 189.305 162.655 189.305 163.172C189.305 163.69 190.228 164.268 191.73 164.268C193.233 164.268 194.166 163.629 194.166 163.172C194.166 162.715 193.131 162.076 191.73 162.076Z" fill="#D1D3D4"/>
<path d="M208.996 164.776C210.621 164.776 211.939 164.058 211.939 163.172C211.939 162.286 210.621 161.568 208.996 161.568C207.37 161.568 206.052 162.286 206.052 163.172C206.052 164.058 207.37 164.776 208.996 164.776Z" fill="white"/>
<path d="M208.996 165.283C207.067 165.283 205.545 164.35 205.545 163.172C205.545 161.995 207.026 161.061 208.996 161.061C210.965 161.061 212.447 161.975 212.447 163.172C212.447 164.37 210.944 165.283 208.996 165.283ZM208.996 162.076C207.605 162.076 206.56 162.655 206.56 163.172C206.56 163.69 207.493 164.268 208.996 164.268C210.498 164.268 211.432 163.629 211.432 163.172C211.432 162.715 210.386 162.076 208.996 162.076Z" fill="#D1D3D4"/>
<path d="M252.894 200.717H0.798767V211.08H252.894V200.717Z" fill="white"/>
<path d="M252.894 211.588H0.839409C0.704812 211.588 0.575727 211.534 0.480552 211.439C0.385377 211.344 0.331909 211.215 0.331909 211.08V200.717C0.331909 200.582 0.385377 200.453 0.480552 200.358C0.575727 200.263 0.704812 200.21 0.839409 200.21H252.894C253.029 200.21 253.158 200.263 253.253 200.358C253.348 200.453 253.402 200.582 253.402 200.717V211.08C253.402 211.215 253.348 211.344 253.253 211.439C253.158 211.534 253.029 211.588 252.894 211.588ZM1.30631 210.573H252.387V201.225H1.30631V210.573Z" fill="#231F20"/>
<path d="M247.464 211.08H6.21887V221.443H247.464V211.08Z" fill="#231F20"/>
<path d="M247.484 221.951H6.21893C6.08433 221.951 5.95524 221.897 5.86007 221.802C5.76489 221.707 5.71143 221.578 5.71143 221.443V211.08C5.71143 210.946 5.76489 210.817 5.86007 210.721C5.95524 210.626 6.08433 210.573 6.21893 210.573H247.484C247.619 210.573 247.748 210.626 247.843 210.721C247.938 210.817 247.992 210.946 247.992 211.08V221.443C247.992 221.51 247.979 221.576 247.953 221.638C247.928 221.699 247.89 221.755 247.843 221.802C247.796 221.849 247.74 221.887 247.679 221.912C247.617 221.938 247.551 221.951 247.484 221.951ZM6.74672 220.936H246.957V211.588H6.72643L6.74672 220.936Z" fill="#231F20"/>
<path d="M80.4865 71.6699C80.2791 71.6706 80.0765 71.6077 79.9059 71.4898C79.7353 71.3718 79.6049 71.2045 79.5324 71.0102L72.6304 52.7402C72.5384 52.4884 72.5498 52.2105 72.662 51.9672C72.7742 51.7238 72.9781 51.5346 73.2292 51.441C73.4797 51.3485 73.7565 51.3585 73.9997 51.4687C74.2428 51.5788 74.4328 51.7804 74.5284 52.0297L81.4304 70.2997C81.4777 70.4243 81.5001 70.557 81.4961 70.6903C81.4921 70.8236 81.462 70.9547 81.4073 71.0763C81.3526 71.1979 81.2745 71.3075 81.1775 71.3989C81.0805 71.4903 80.9664 71.5617 80.8417 71.609C80.7273 71.6481 80.6074 71.6687 80.4865 71.6699Z" fill="#231F20"/>
<path d="M115.225 55.5372L116.389 59.5644C116.763 60.8574 116.608 62.246 115.958 63.4245C115.307 64.6031 114.216 65.4752 112.923 65.8489L94.7081 71.1132L90.7148 57.2961L108.89 52.0431C109.536 51.851 110.213 51.7892 110.882 51.8613C111.552 51.9334 112.2 52.1381 112.79 52.4632C113.379 52.7884 113.898 53.2277 114.316 53.7555C114.735 54.2832 115.044 54.8889 115.225 55.5372Z" fill="#231F20"/>
<path d="M94.6761 71.67C94.5676 71.6695 94.4623 71.6335 94.3761 71.5675C94.29 71.5015 94.2278 71.4092 94.199 71.3046L90.1593 57.4499C90.1096 57.3261 90.1096 57.1879 90.1593 57.0642C90.1912 57.0063 90.2347 56.9557 90.2871 56.9155C90.3395 56.8753 90.3997 56.8464 90.4638 56.8307L108.683 51.5629C110.115 51.1488 111.653 51.3203 112.959 52.0397C114.264 52.7592 115.231 53.9677 115.646 55.3996L116.803 59.4596C117.214 60.8916 117.042 62.4283 116.323 63.7333C115.603 65.0382 114.397 66.0052 112.966 66.4225L94.7471 71.6802C94.7232 71.6794 94.6993 71.676 94.6761 71.67ZM91.2961 57.6529L95.0212 70.5434L112.753 65.4176C113.928 65.0756 114.919 64.2825 115.511 63.2117C116.102 62.1409 116.246 60.8795 115.91 59.7032L114.743 55.6432C114.403 54.4671 113.61 53.474 112.539 52.8821C111.467 52.2902 110.205 52.1479 109.028 52.4865L91.2961 57.6529Z" fill="#231F20"/>
<path d="M91.876 54.6527L97.0924 72.7016L91.1248 74.4264C88.7301 75.1185 86.1585 74.8309 83.9758 73.627C81.793 72.4231 80.178 70.4013 79.4858 68.0066C78.7937 65.6119 79.0813 63.0403 80.2852 60.8576C81.4892 58.6748 83.5109 57.0598 85.9056 56.3677L91.8732 54.6429L91.876 54.6527Z" fill="white"/>
<path d="M88.5659 75.2936C86.1821 75.2908 83.8793 74.4286 82.0799 72.8651C80.2805 71.3016 79.1052 69.1417 78.7697 66.7817C78.4341 64.4217 78.9608 62.0198 80.2531 60.0167C81.5453 58.0137 83.5166 56.5437 85.8051 55.8766L91.7327 54.1714C91.7966 54.1513 91.864 54.1444 91.9307 54.151C91.9974 54.1576 92.0621 54.1776 92.1209 54.2098C92.1797 54.2421 92.2313 54.2858 92.2728 54.3385C92.3142 54.3913 92.3445 54.4518 92.362 54.5165L97.5791 72.5632C97.614 72.6924 97.5976 72.8301 97.5333 72.9474C97.4689 73.0647 97.3617 73.1526 97.234 73.1925L91.3064 74.9079C90.4155 75.1646 89.4929 75.2944 88.5659 75.2936ZM91.5297 55.2879L86.0994 56.851C83.8319 57.5045 81.9167 59.0316 80.7747 61.0967C79.6327 63.1618 79.3574 65.5958 80.0094 67.8638C80.663 70.129 82.1886 72.0424 84.2513 73.1841C86.314 74.3259 88.7454 74.6027 91.012 73.9538L96.4524 72.3805L91.5297 55.2879Z" fill="#231F20"/>
<path d="M101.506 70.5165L96.7748 54.1447C96.641 53.6816 96.157 53.4147 95.6939 53.5485L94.67 53.8444C94.2069 53.9783 93.94 54.4622 94.0738 54.9254L98.8055 71.2972C98.9393 71.7603 99.4233 72.0272 99.8864 71.8934L100.91 71.5975C101.373 71.4636 101.64 70.9797 101.506 70.5165Z" fill="white"/>
<path d="M99.6496 72.4414C99.3479 72.4394 99.0549 72.3393 98.8151 72.1562C98.5752 71.9731 98.4014 71.7169 98.3199 71.4264L93.59 55.0544C93.4925 54.7032 93.5367 54.3277 93.7133 54.0088C93.8898 53.6899 94.1845 53.453 94.534 53.3492L95.549 53.0549C95.7236 53.0023 95.9069 52.985 96.0883 53.0042C96.2696 53.0233 96.4453 53.0784 96.605 53.1663C96.7648 53.2543 96.9054 53.3732 97.0186 53.5161C97.1318 53.6591 97.2154 53.8232 97.2643 53.9988L102.004 70.3606C102.105 70.7133 102.062 71.0913 101.885 71.4126C101.709 71.7339 101.412 71.9723 101.06 72.076L100.045 72.3703C99.9181 72.4147 99.7845 72.4387 99.6496 72.4414ZM95.9448 54.0191H95.8433L94.8283 54.3135C94.7361 54.3432 94.6571 54.4043 94.605 54.486C94.5748 54.5784 94.5748 54.6779 94.605 54.7702L99.2943 71.1523C99.3072 71.1993 99.3293 71.2432 99.3593 71.2815C99.3894 71.3198 99.4268 71.3517 99.4693 71.3753C99.5119 71.3989 99.5587 71.4138 99.6071 71.4191C99.6555 71.4244 99.7044 71.42 99.7511 71.4061L100.766 71.1117C100.859 71.0834 100.938 71.02 100.985 70.9347C101.033 70.8495 101.045 70.7492 101.02 70.655L96.2899 54.283C96.2589 54.191 96.1934 54.1146 96.1072 54.0699C96.0582 54.0397 96.0024 54.0222 95.9448 54.0191Z" fill="#231F20"/>
<path d="M23.1694 177.23C24.8071 177.952 26.5674 178.355 28.356 178.418C30.1969 178.393 32.0018 177.904 33.6036 176.997L34.7302 184.558C34.7302 184.558 32.9235 188.08 29.1883 188.111C24.5701 188.111 23.1694 185.482 23.1694 185.482V177.23Z" fill="white"/>
<path d="M29.097 188.618C24.296 188.618 22.7735 185.837 22.7126 185.725C22.6734 185.65 22.6525 185.567 22.6517 185.482V177.23C22.6519 177.145 22.6733 177.061 22.7141 176.987C22.7549 176.913 22.8137 176.849 22.8852 176.804C22.9596 176.762 23.0435 176.74 23.1288 176.74C23.2141 176.74 23.298 176.762 23.3724 176.804C24.9492 177.487 26.6389 177.872 28.356 177.94C30.0995 177.905 31.8076 177.442 33.3295 176.59C33.4027 176.55 33.4847 176.53 33.5681 176.53C33.6514 176.53 33.7334 176.55 33.8066 176.59C33.8821 176.626 33.9475 176.68 33.9971 176.748C34.0466 176.815 34.0788 176.893 34.0908 176.976L35.2276 184.548C35.2529 184.648 35.2529 184.753 35.2276 184.853C35.1464 185.005 33.1976 188.649 29.2289 188.679L29.097 188.618ZM23.6667 185.35C23.9611 185.797 25.3821 187.603 29.097 187.603H29.1782C30.2083 187.537 31.2058 187.215 32.081 186.668C32.9562 186.12 33.6817 185.364 34.1923 184.467L33.1773 177.778C31.6622 178.517 30.0012 178.909 28.3154 178.925C26.7185 178.871 25.1412 178.556 23.6464 177.991L23.6667 185.35Z" fill="#231F20"/>
<path d="M28.3763 178.895C31.2577 178.895 33.5934 178.149 33.5934 177.23C33.5934 176.311 31.2577 175.565 28.3763 175.565C25.495 175.565 23.1592 176.311 23.1592 177.23C23.1592 178.149 25.495 178.895 28.3763 178.895Z" fill="#231F20"/>
<path d="M28.3763 179.402C25.6155 179.402 22.6517 178.722 22.6517 177.23C22.6517 175.738 25.6155 175.058 28.3763 175.058C31.1371 175.058 34.1009 175.738 34.1009 177.23C34.1009 178.722 31.127 179.402 28.3763 179.402ZM28.3763 176.073C25.3313 176.073 23.6667 176.895 23.6667 177.23C23.6667 177.565 25.311 178.387 28.3763 178.387C31.4416 178.387 33.0859 177.565 33.0859 177.23C33.0859 176.895 31.4315 176.073 28.3763 176.073Z" fill="#231F20"/>
<path d="M230.047 188.314C231.067 188.314 231.894 187.487 231.894 186.466C231.894 185.446 231.067 184.619 230.047 184.619C229.027 184.619 228.199 185.446 228.199 186.466C228.199 187.487 229.027 188.314 230.047 188.314Z" fill="white"/>
<path d="M230.047 188.821C229.581 188.821 229.126 188.683 228.738 188.424C228.351 188.166 228.049 187.798 227.871 187.368C227.693 186.937 227.646 186.464 227.737 186.007C227.828 185.55 228.052 185.131 228.382 184.801C228.711 184.472 229.131 184.248 229.587 184.157C230.044 184.066 230.518 184.113 230.948 184.291C231.378 184.469 231.746 184.771 232.005 185.158C232.263 185.545 232.402 186.001 232.402 186.466C232.402 187.091 232.153 187.69 231.712 188.132C231.27 188.573 230.671 188.821 230.047 188.821ZM230.047 185.127C229.782 185.127 229.523 185.205 229.302 185.352C229.082 185.5 228.91 185.709 228.809 185.954C228.707 186.199 228.681 186.468 228.733 186.728C228.784 186.988 228.912 187.227 229.099 187.414C229.287 187.601 229.525 187.729 229.785 187.781C230.045 187.832 230.315 187.806 230.559 187.704C230.804 187.603 231.013 187.431 231.161 187.211C231.308 186.991 231.387 186.731 231.387 186.466C231.384 186.112 231.242 185.773 230.991 185.522C230.74 185.271 230.401 185.129 230.047 185.127Z" fill="#D1D3D4"/>
<path d="M224.464 186.436H218.587C218.453 186.436 218.324 186.383 218.228 186.287C218.133 186.192 218.08 186.063 218.08 185.929C218.08 185.794 218.133 185.665 218.228 185.57C218.324 185.474 218.453 185.421 218.587 185.421H224.464C224.599 185.421 224.728 185.474 224.823 185.57C224.918 185.665 224.972 185.794 224.972 185.929C224.972 186.063 224.918 186.192 224.823 186.287C224.728 186.383 224.599 186.436 224.464 186.436Z" fill="#D1D3D4"/>
<path d="M185.417 111.265C185.288 111.265 185.163 111.216 185.069 111.127C184.974 111.039 184.917 110.917 184.91 110.788L182.88 72.8068C182.88 72.6722 182.933 72.5431 183.028 72.448C183.123 72.3528 183.253 72.2993 183.387 72.2993C183.522 72.2993 183.651 72.3528 183.746 72.448C183.841 72.5431 183.895 72.6722 183.895 72.8068L185.925 110.778C185.929 110.845 185.92 110.911 185.898 110.975C185.876 111.038 185.842 111.096 185.798 111.146C185.753 111.196 185.7 111.237 185.64 111.266C185.58 111.295 185.514 111.312 185.448 111.316L185.417 111.265Z" fill="#231F20"/>
</svg>
