<svg width="203" height="201" viewBox="0 0 203 201" fill="none" xmlns="http://www.w3.org/2000/svg">
<path d="M174.866 97.6036H192.218C193.887 94.1671 194.226 90.1821 194.323 86.3101C194.412 82.801 194.323 79.2274 193.258 75.8878C191.87 71.6076 188.901 68.0187 184.957 65.8538C181.012 63.6889 176.39 63.1115 172.034 64.2393C170.955 62.9821 169.512 62.0914 167.904 61.6902C166.363 61.3595 161.79 61.8032 161.741 63.3762C161.761 63.8691 161.911 64.348 162.177 64.7637C163.75 67.7161 166.21 70.1039 168.146 72.8305C172.704 79.0984 173.478 88.9882 174.866 97.6036Z" fill="white"/>
<path d="M192.217 98.0072H174.865C174.769 98.0068 174.676 97.9727 174.602 97.9108C174.528 97.8489 174.479 97.7631 174.462 97.6684C174.252 96.3212 174.05 94.9418 173.84 93.5543C172.743 86.0441 171.606 78.2758 167.815 73.0647C167.129 72.1208 166.363 71.1932 165.628 70.2897C164.186 68.651 162.911 66.873 161.821 64.9817C161.52 64.4963 161.353 63.9395 161.337 63.3684C161.349 63.1531 161.41 62.9434 161.516 62.7559C161.623 62.5684 161.771 62.408 161.95 62.2874C163.289 61.2307 166.669 61.0129 167.992 61.2952C169.598 61.6952 171.05 62.5627 172.163 63.7878C176.292 62.8115 180.631 63.2902 184.448 65.1431C186.608 66.2162 188.532 67.7081 190.11 69.532C191.687 71.3559 192.886 73.4754 193.636 75.767C194.741 79.1631 194.814 82.8497 194.725 86.3265C194.629 90.1743 194.298 94.2238 192.58 97.7571C192.55 97.8295 192.5 97.8917 192.435 97.9361C192.371 97.9805 192.295 98.0052 192.217 98.0072ZM175.204 97.2005H191.967C193.523 93.8608 193.822 90.0049 193.919 86.3265C194.024 82.3899 193.919 79.1389 192.87 76.0413C191.509 71.8633 188.606 68.3618 184.752 66.2512C180.898 64.1405 176.384 63.5798 172.13 64.6833C172.06 64.7016 171.987 64.7008 171.917 64.6809C171.848 64.6611 171.785 64.6229 171.735 64.5703C170.716 63.3743 169.348 62.5279 167.823 62.1503C166.677 61.9002 163.531 62.1503 162.442 62.957C162.152 63.1909 162.144 63.3684 162.144 63.4248C162.174 63.8458 162.307 64.253 162.531 64.6107C163.6 66.453 164.846 68.1873 166.25 69.7895C166.992 70.693 167.766 71.6368 168.468 72.6048C172.372 77.9693 173.526 85.8344 174.639 93.4414C174.825 94.7078 175.01 95.9663 175.204 97.2005V97.2005Z" fill="#231F20"/>
<path d="M193.887 62.7633C196.057 61.045 198.138 59.1251 200.679 58.0442C200.886 57.9303 201.122 57.8798 201.357 57.899C201.579 57.9524 201.775 58.0806 201.913 58.262C202.226 58.6581 202.44 59.1231 202.537 59.6184C202.633 60.1137 202.611 60.6249 202.47 61.1096C202.179 62.0769 201.702 62.9782 201.066 63.7636C199.437 65.9868 197.519 67.9834 195.363 69.7007C193.955 70.9376 192.274 71.8248 190.459 72.2901C187.974 72.7984 182.263 70.3541 184.812 67.0225C185.538 66.0707 187.232 66.2159 188.232 65.9496C190.309 65.2703 192.23 64.1875 193.887 62.7633Z" fill="white"/>
<path d="M189.716 72.7499C187.813 72.7499 185.199 71.7012 184.191 70.104C183.865 69.5935 183.716 68.9899 183.767 68.3863C183.818 67.7828 184.066 67.2128 184.473 66.7643C185.086 65.9576 186.151 65.8366 187.087 65.7156C187.429 65.6829 187.769 65.6263 188.103 65.5462C190.132 64.8764 192.011 63.8189 193.637 62.4324L194.855 61.4564C196.553 59.9397 198.453 58.6664 200.502 57.673C200.78 57.5302 201.094 57.4713 201.405 57.5036C201.724 57.5669 202.01 57.7413 202.212 57.9957C202.572 58.4415 202.819 58.9679 202.931 59.5298C203.044 60.0917 203.018 60.6724 202.857 61.2224C202.549 62.2413 202.048 63.1915 201.381 64.0216C199.734 66.2748 197.791 68.2962 195.605 70.0314C194.146 71.3066 192.408 72.2212 190.531 72.7015C190.262 72.7473 189.989 72.7635 189.716 72.7499V72.7499ZM194.137 63.0697C192.427 64.5132 190.451 65.6092 188.321 66.2964C187.95 66.3898 187.572 66.4545 187.192 66.49C186.385 66.5949 185.522 66.6998 185.118 67.2241C184.817 67.5442 184.629 67.9552 184.585 68.3929C184.542 68.8307 184.644 69.2707 184.876 69.6442C185.828 71.1688 188.789 72.1771 190.378 71.8545C192.131 71.4006 193.753 70.5413 195.113 69.3457C197.247 67.6494 199.146 65.6774 200.76 63.4811C201.363 62.7382 201.817 61.8866 202.099 60.9724C202.224 60.5508 202.247 60.1056 202.165 59.6735C202.084 59.2414 201.901 58.835 201.631 58.4878C201.55 58.3803 201.437 58.3012 201.308 58.2619C201.151 58.2609 200.995 58.2997 200.857 58.3748C198.858 59.3459 197.004 60.5893 195.347 62.0694L194.153 63.0375L194.137 63.0697Z" fill="#231F20"/>
<path d="M68.6419 45.3228C67.3512 39.5308 65.633 33.7953 65.1167 27.8824C64.6004 21.9694 65.4071 15.7015 68.7629 10.8131C70.0269 8.77081 71.9466 7.21798 74.208 6.40859C76.1924 5.80359 79.5966 6.9168 79.5966 6.9168C81.2432 5.71301 82.9532 4.5982 84.719 3.57715C88.4862 1.69759 92.7858 1.01191 96.924 0.608575C102.869 0.0358326 109.758 0.342371 113.534 4.96464C116.309 8.36076 116.551 13.096 116.663 17.4762L116.962 28.7052" fill="white"/>
<path d="M68.6422 45.7262C68.5476 45.7247 68.4562 45.6911 68.3829 45.6311C68.3097 45.571 68.2589 45.488 68.2389 45.3954C67.9001 43.8869 67.5371 42.3704 67.166 40.8619C66.0179 36.6095 65.1954 32.2759 64.7057 27.8986C64.2862 23.0585 64.5847 16.1452 68.4245 10.555C69.7382 8.44001 71.7281 6.83104 74.0712 5.98916C75.8862 5.44062 78.7177 6.20696 79.5001 6.4409C81.1118 5.2735 82.7869 4.19628 84.5177 3.21419C88.4946 1.23782 92.9959 0.584413 96.8679 0.213341C105.153 -0.593337 110.702 0.882885 113.808 4.72268C116.793 8.36886 116.93 13.6365 117.035 17.4763L117.414 28.681C117.416 28.7909 117.375 28.8973 117.3 28.9773C117.224 29.0572 117.121 29.1044 117.011 29.1086C116.956 29.1107 116.901 29.1019 116.85 29.0827C116.799 29.0635 116.752 29.0343 116.712 28.9967C116.672 28.9592 116.64 28.914 116.618 28.864C116.596 28.8139 116.584 28.76 116.583 28.7052L116.285 17.4682C116.164 12.8217 115.841 8.385 113.252 5.21475C110.307 1.60889 104.991 0.229475 97.0051 1.00389C93.2056 1.37496 88.8012 2.01224 84.9049 3.93213C83.1588 4.94394 81.4677 6.04796 79.839 7.23951C79.786 7.27768 79.7247 7.30271 79.6602 7.31253C79.5957 7.32235 79.5298 7.31668 79.4679 7.29598C79.4679 7.29598 76.1605 6.23116 74.3293 6.78777C72.1688 7.58698 70.3336 9.07898 69.1101 11.0309C65.4075 16.4195 65.1251 23.1311 65.5365 27.826C66.016 32.162 66.825 36.4552 67.9566 40.6683C68.3196 42.1848 68.6907 43.6933 69.0295 45.2179C69.0413 45.2709 69.0426 45.3257 69.0332 45.3792C69.0238 45.4327 69.0039 45.4837 68.9746 45.5295C68.9454 45.5752 68.9074 45.6147 68.8628 45.6457C68.8182 45.6767 68.7679 45.6986 68.7149 45.71L68.6422 45.7262Z" fill="#231F20"/>
<path d="M133.112 199.979C129.078 125.684 135.467 98.0151 132.305 90.3678C124.811 72.3627 80.8954 66.4659 80.8954 66.4659C80.8954 66.4659 33.374 66.2239 22.8146 91.3842C20.1687 97.7086 1.84093 141.608 0.0420412 168.696C-0.869506 182.24 13.2151 179.506 25.4766 180.643V200.004L133.112 199.979Z" fill="#FFBC5A"/>
<path d="M103.531 99.9753L99.9252 104.928L114.002 163.993L105.669 180.764L93.4395 163.993L95.1577 105.372L89.9062 99.3299L97.4648 93.3444L103.531 99.9753Z" fill="white"/>
<path d="M105.668 181.176C105.603 181.175 105.538 181.16 105.479 181.131C105.42 181.101 105.369 181.059 105.329 181.006L93.1083 164.236C93.0499 164.163 93.0211 164.071 93.0276 163.977L94.7378 105.517L89.5911 99.5963C89.5542 99.5548 89.5259 99.5062 89.5079 99.4536C89.4899 99.401 89.4826 99.3453 89.4863 99.2898C89.502 99.1763 89.5595 99.0727 89.6476 98.9994L97.2062 93.0219C97.2876 92.9551 97.3915 92.922 97.4966 92.9295C97.6016 92.937 97.6998 92.9845 97.7709 93.0622L103.837 99.6931C103.898 99.7669 103.931 99.8596 103.931 99.9553C103.931 100.051 103.898 100.144 103.837 100.217L100.376 105.017L114.405 163.905C114.441 163.995 114.441 164.097 114.405 164.187L106.039 180.95C106.008 181.014 105.96 181.069 105.901 181.109C105.841 181.148 105.772 181.172 105.701 181.176H105.668ZM93.8585 163.905L105.596 180.038L113.558 164.018L99.5214 105.13C99.5086 105.072 99.5085 105.011 99.5211 104.953C99.5336 104.894 99.5584 104.839 99.594 104.791L102.998 100.113L97.4159 94.0141L90.5027 99.3705L95.4718 105.082C95.5427 105.158 95.5804 105.26 95.5767 105.364L93.8585 163.905Z" fill="#231F20"/>
<path d="M108.032 70.1283L109.944 82.5511C109.944 82.5511 107.12 96.0388 93.447 92.8686C89.4558 91.9384 85.7254 90.121 82.5329 87.5514C79.3405 84.9818 76.7679 81.7259 75.0063 78.0257L73.4736 49.1385C73.4736 49.1385 83.5329 43.645 80.3546 21.7114C80.3546 21.7114 95.5847 29.0764 115.848 26.3095C115.848 26.3095 120.689 48.8965 119.172 59.4721C117.655 70.0476 108.032 70.1283 108.032 70.1283Z" fill="white"/>
<path d="M97.4162 93.7639C96.0574 93.7534 94.7043 93.5883 93.3828 93.2719C89.3354 92.3081 85.5542 90.4531 82.3151 87.8419C79.076 85.2308 76.4606 81.9295 74.6598 78.1789C74.6515 78.1336 74.6515 78.0871 74.6598 78.0418L73.0464 49.1546C73.0424 49.0771 73.0609 49.0002 73.0995 48.933C73.1381 48.8657 73.1953 48.811 73.2642 48.7755C73.361 48.719 83.0331 43.1287 79.9355 21.7759C79.9279 21.7011 79.9394 21.6255 79.9691 21.5564C79.9987 21.4872 80.0454 21.4268 80.1049 21.3806C80.1699 21.3431 80.2436 21.3234 80.3186 21.3234C80.3937 21.3234 80.4674 21.3431 80.5324 21.3806C91.676 26.0017 103.851 27.564 115.8 25.9061C115.905 25.8914 116.011 25.9164 116.097 25.9761C116.184 26.0359 116.245 26.1261 116.268 26.2288C116.462 27.1565 121.108 49.0013 119.592 59.5366C118.22 68.9666 110.517 70.3299 108.54 70.5154L110.388 82.4866C110.396 82.5373 110.396 82.589 110.388 82.6398C110.331 82.8899 109.049 88.7625 104.144 91.8924C102.132 93.1604 99.7935 93.811 97.4162 93.7639V93.7639ZM75.4181 77.9288C77.1719 81.543 79.7086 84.7212 82.8439 87.2328C85.9791 89.7443 89.6344 91.5262 93.5441 92.449C97.4969 93.3687 100.909 92.9411 103.66 91.1906C107.992 88.4318 109.363 83.1964 109.524 82.5269L107.621 70.1847C107.61 70.1256 107.613 70.0649 107.628 70.0069C107.643 69.9488 107.671 69.8949 107.71 69.8487C107.748 69.8026 107.796 69.7655 107.85 69.7399C107.905 69.7143 107.964 69.7009 108.024 69.7007C108.403 69.7007 117.277 69.499 118.753 59.4075C120.165 49.7273 116.139 29.762 115.526 26.7773C103.795 28.2816 91.8745 26.7741 80.8873 22.3971C83.5333 42.193 75.4665 48.3882 73.9015 49.3563L75.4181 77.9288Z" fill="#231F20"/>
<path d="M101.022 39.5388C101.022 39.5388 107.476 51.4454 105.548 53.2524C103.62 55.0593 98.6992 53.2524 98.6992 53.2524" fill="white"/>
<path d="M102.837 54.4383C101.379 54.3869 99.9378 54.1149 98.5616 53.6316C98.5121 53.6145 98.4665 53.5876 98.4275 53.5527C98.3885 53.5178 98.3568 53.4754 98.3343 53.4282C98.3118 53.3809 98.2989 53.3296 98.2964 53.2773C98.2938 53.225 98.3017 53.1727 98.3196 53.1234C98.3561 53.0227 98.4305 52.9403 98.5269 52.8936C98.6234 52.8469 98.7342 52.8396 98.8359 52.8734C98.8843 52.8734 103.515 54.4867 105.289 52.9218C106.483 51.8328 103.313 44.5404 100.683 39.7164C100.632 39.6223 100.62 39.5116 100.65 39.4088C100.68 39.3059 100.75 39.2192 100.844 39.1679C100.939 39.1166 101.049 39.1047 101.152 39.135C101.255 39.1652 101.342 39.2351 101.393 39.3292C102.498 41.3621 107.927 51.6069 105.838 53.5106C104.986 54.1788 103.917 54.5092 102.837 54.4383V54.4383Z" fill="#231F20"/>
<path d="M91.0935 39.6804C91.8324 39.6493 92.3735 38.2492 92.3021 36.5533C92.2307 34.8574 91.5739 33.5078 90.835 33.5389C90.0961 33.57 89.5549 34.97 89.6263 36.6659C89.6977 38.3619 90.3545 39.7115 91.0935 39.6804Z" fill="#231F20"/>
<path d="M110.97 40.9163C111.709 40.8867 112.254 39.4867 112.186 37.7893C112.118 36.0919 111.463 34.7399 110.724 34.7694C109.984 34.799 109.44 36.199 109.508 37.8964C109.576 39.5939 110.23 40.9459 110.97 40.9163Z" fill="#231F20"/>
<path d="M82.2347 43.4918C81.0256 41.428 79.4318 39.6151 77.5398 38.1516C76.559 37.2903 75.3365 36.7523 74.0388 36.6108C72.9741 36.6204 71.9339 36.9308 71.038 37.5063C69.6948 38.2985 68.5331 39.3643 67.6284 40.6345C66.7237 41.9047 66.0962 43.3509 65.7865 44.8793C65.4885 46.2961 65.5439 47.7644 65.9479 49.1547C66.7272 51.3064 68.2337 53.1183 70.2071 54.2771C72.1689 55.4111 74.2561 56.3126 76.4266 56.9633" fill="white"/>
<path d="M76.4106 57.4231H76.2735C74.0724 56.7576 71.9556 55.84 69.9652 54.6885C67.9079 53.4834 66.3402 51.593 65.5366 49.3483C65.1099 47.8903 65.0516 46.3492 65.3672 44.8631C65.6873 43.2746 66.3393 41.7715 67.2804 40.4523C68.2215 39.1331 69.4305 38.0275 70.8284 37.2077C71.7909 36.5897 72.9112 36.262 74.0551 36.2639C75.4348 36.411 76.7372 36.9736 77.79 37.8773C79.7371 39.3721 81.3801 41.2259 82.6301 43.3385C82.6461 43.4265 82.6335 43.5174 82.5942 43.5977C82.555 43.6781 82.491 43.7438 82.4117 43.7853C82.3324 43.8267 82.242 43.8417 82.1535 43.8281C82.0651 43.8145 81.9834 43.773 81.9202 43.7096C80.7362 41.6912 79.1752 39.9193 77.3221 38.4904C76.4132 37.6989 75.2906 37.1938 74.0954 37.0383C73.1124 37.0367 72.1494 37.3166 71.3205 37.845C70.0245 38.6057 68.9035 39.631 68.0305 40.8542C67.1576 42.0774 66.5525 43.4709 66.2545 44.9438C65.9726 46.2804 66.0253 47.6659 66.4078 48.9772C67.1409 51.0272 68.5677 52.7565 70.4412 53.8657C72.3634 55.0158 74.4126 55.9389 76.5477 56.6164C76.5993 56.6337 76.6468 56.661 76.6878 56.6968C76.7287 56.7325 76.7621 56.776 76.7861 56.8248C76.8101 56.8735 76.8242 56.9266 76.8276 56.9808C76.831 57.035 76.8236 57.0894 76.8059 57.1408C76.7774 57.223 76.7241 57.2944 76.6533 57.345C76.5824 57.3956 76.4976 57.4229 76.4106 57.4231V57.4231Z" fill="#231F20"/>
<path d="M108.033 70.1281C100.18 71.335 92.1473 70.0098 85.0986 66.3447C85.0986 66.3447 96.7874 84.3175 109.831 81.7846L108.033 70.1281Z" fill="#231F20"/>
<path d="M107.314 82.4298C102.555 82.4298 97.4162 80.0098 92.3018 75.3149C89.4685 72.6885 86.9386 69.7526 84.7594 66.5625C84.707 66.4927 84.6787 66.4077 84.6787 66.3205C84.6787 66.2332 84.707 66.1483 84.7594 66.0785C84.8181 66.0111 84.898 65.9657 84.9859 65.9496C85.0738 65.9335 85.1646 65.9476 85.2434 65.9897C92.2153 69.5885 100.144 70.8982 107.903 69.7327C107.957 69.7209 108.013 69.7205 108.067 69.7316C108.121 69.7427 108.173 69.7651 108.218 69.7972C108.263 69.8276 108.301 69.8669 108.33 69.9127C108.359 69.9585 108.379 70.0098 108.387 70.0635L110.186 81.72C110.202 81.8235 110.178 81.9294 110.118 82.0153C110.058 82.1011 109.966 82.1601 109.863 82.1798C109.023 82.3419 108.17 82.4256 107.314 82.4298V82.4298ZM86.3405 67.3853C89.2526 71.3461 98.9166 83.1559 109.387 81.4538L107.734 70.5959C100.437 71.5966 93.0064 70.4823 86.3243 67.3853H86.3405Z" fill="#231F20"/>
<path d="M171.978 60.5501L171.793 60.8435C171.396 61.4732 170.765 61.9194 170.039 62.0838C169.312 62.2483 168.551 62.1175 167.921 61.7203L149.076 49.8344L152.256 44.7922L171.094 56.6738C171.724 57.071 172.17 57.702 172.335 58.4282C172.499 59.1543 172.368 59.9161 171.971 60.5458L171.978 60.5501Z" fill="white"/>
<path d="M169.396 62.5535C168.792 62.5535 168.202 62.3799 167.694 62.0533L148.874 50.1629C148.827 50.1358 148.787 50.0986 148.756 50.0539C148.725 50.0093 148.705 49.9583 148.697 49.9047C148.684 49.8543 148.682 49.8019 148.691 49.7506C148.699 49.6993 148.717 49.6502 148.745 49.6063L151.923 44.5565C151.981 44.4667 152.072 44.4036 152.177 44.3809C152.281 44.3582 152.39 44.3778 152.48 44.4355L171.3 56.3259C172.018 56.7822 172.526 57.5034 172.715 58.3328C172.904 59.1621 172.758 60.0325 172.308 60.7546L172.123 61.053C171.667 61.7729 170.945 62.2833 170.114 62.4728C169.878 62.5235 169.637 62.5505 169.396 62.5535V62.5535ZM149.616 49.7031L168.121 61.3676C168.387 61.5393 168.685 61.6557 168.997 61.7097C169.309 61.7638 169.628 61.7544 169.937 61.6822C170.561 61.5524 171.109 61.1813 171.461 60.6497L171.647 60.3593C171.983 59.819 172.092 59.1682 171.952 58.5477C171.811 57.9272 171.432 57.3869 170.896 57.0438L152.367 45.3228L149.616 49.7031Z" fill="#231F20"/>
<path d="M150.165 53.5401L155.27 45.3531L150.669 42.4844L145.564 50.6713L150.165 53.5401Z" fill="white"/>
<path d="M149.68 52.7845C149.603 52.7843 149.528 52.7619 149.463 52.72L144.889 49.8321C144.844 49.8041 144.805 49.7674 144.774 49.7243C144.743 49.6811 144.721 49.6323 144.709 49.5806C144.697 49.5289 144.695 49.4753 144.704 49.4229C144.713 49.3706 144.732 49.3205 144.76 49.2755L149.898 41.1361C149.925 41.0901 149.962 41.0502 150.005 41.0187C150.048 40.9871 150.097 40.9647 150.149 40.9526C150.201 40.9405 150.255 40.9391 150.307 40.9485C150.36 40.9578 150.41 40.9778 150.455 41.007L155.029 43.8949C155.074 43.922 155.113 43.9581 155.144 44.0012C155.174 44.0443 155.196 44.0932 155.206 44.145C155.231 44.2496 155.213 44.3596 155.158 44.4515L150.011 52.5829C149.954 52.6726 149.865 52.7364 149.761 52.7603L149.68 52.7845ZM145.647 49.3561L149.543 51.7762L154.254 44.3144L150.358 41.8944L145.647 49.3561Z" fill="#231F20"/>
<path d="M196.306 77.7877L197.821 75.3859C198.822 73.7995 198.347 71.7023 196.76 70.7017L170.457 54.1122C168.871 53.1117 166.774 53.5866 165.773 55.173L164.258 57.5748C163.258 59.1612 163.733 61.2584 165.319 62.259L191.622 78.8484C193.209 79.849 195.306 79.3741 196.306 77.7877Z" fill="white"/>
<path d="M193.42 79.7681C192.705 79.767 192.006 79.5628 191.403 79.1792L165.105 62.5858C164.683 62.3196 164.317 61.9727 164.029 61.565C163.741 61.1573 163.536 60.6968 163.426 60.2099C163.315 59.7229 163.302 59.219 163.387 58.727C163.472 58.235 163.653 57.7645 163.919 57.3424L165.428 54.9224C165.969 54.0728 166.823 53.4714 167.805 53.2493C168.787 53.0271 169.818 53.2023 170.671 53.7366L196.969 70.3299C197.391 70.5962 197.757 70.9431 198.045 71.3508C198.333 71.7585 198.538 72.2189 198.649 72.7059C198.759 73.1929 198.772 73.6968 198.687 74.1888C198.602 74.6808 198.421 75.1513 198.155 75.5734L196.646 77.9934C196.375 78.4203 196.022 78.7887 195.606 79.0769C195.19 79.3651 194.721 79.5672 194.226 79.6713C193.962 79.7328 193.691 79.7652 193.42 79.7681V79.7681ZM168.647 53.9544C168.14 53.9534 167.641 54.0809 167.196 54.3249C166.752 54.569 166.377 54.9216 166.105 55.3499L164.597 57.77C164.386 58.1018 164.242 58.4725 164.176 58.8603C164.109 59.2481 164.121 59.6453 164.21 60.0287C164.297 60.4122 164.458 60.7749 164.685 61.0961C164.912 61.4172 165.2 61.6904 165.533 61.9002L191.83 78.4855C192.504 78.9078 193.317 79.0464 194.093 78.8711C194.868 78.6958 195.542 78.2207 195.969 77.5497V77.5497L197.477 75.1297C197.687 74.7971 197.83 74.4264 197.896 74.0388C197.963 73.6512 197.952 73.2542 197.865 72.8706C197.779 72.487 197.617 72.1243 197.39 71.8033C197.163 71.4822 196.874 71.2091 196.541 70.9995L170.244 54.4142C169.762 54.1237 169.209 53.9754 168.647 53.9866V53.9544Z" fill="#231F20"/>
<path d="M107.475 20.0657C104.778 24.3417 103.409 29.3215 103.542 34.3754C103.675 39.4292 105.303 44.3303 108.221 48.4588C111.139 52.5873 115.215 55.758 119.935 57.5698C124.655 59.3817 129.806 59.7533 134.737 58.6379C139.668 57.5224 144.158 54.9699 147.638 51.3031C151.119 47.6362 153.434 43.0197 154.291 38.0373C155.148 33.0548 154.508 27.9302 152.452 23.3112C150.397 18.6923 147.018 14.7865 142.743 12.0877C137.008 8.47187 130.071 7.28112 123.458 8.77709C116.845 10.2731 111.096 14.3334 107.475 20.0657V20.0657Z" fill="white"/>
<path d="M129.054 59.6736C124.412 59.6704 119.856 58.422 115.86 56.0587C111.865 53.6953 108.576 50.3035 106.338 46.2367C104.099 42.1699 102.992 37.5772 103.133 32.9371C103.274 28.2971 104.656 23.7797 107.137 19.8559V19.8559C109.546 16.0349 112.911 12.9086 116.898 10.7858C120.885 8.66288 125.357 7.61689 129.873 7.75109C134.388 7.88529 138.79 9.19504 142.644 11.551C146.498 13.9069 149.671 17.2275 151.85 21.1849C154.028 25.1422 155.136 29.5993 155.065 34.1159C154.994 38.6326 153.746 43.0525 151.444 46.9392C149.142 50.8259 145.866 54.0449 141.939 56.2781C138.013 58.5114 133.571 59.6818 129.054 59.6736V59.6736ZM107.814 20.3157C104.707 25.2401 103.403 31.0896 104.125 36.8676C104.846 42.6456 107.549 47.9945 111.773 52.003C115.997 56.0115 121.479 58.4314 127.287 58.8506C133.095 59.2697 138.868 57.6621 143.624 54.3017C148.379 50.9412 151.822 46.0358 153.366 40.4214C154.91 34.8069 154.46 28.8308 152.092 23.5112C149.723 18.1917 145.584 13.8578 140.378 11.2482C135.173 8.63859 129.224 7.91463 123.544 9.19967C117.036 10.6768 111.38 14.6743 107.814 20.3157V20.3157Z" fill="#231F20"/>
<path d="M139.888 16.605C143.272 18.738 145.948 21.8267 147.576 25.4805C149.205 29.1343 149.713 33.1889 149.037 37.1316C148.361 41.0743 146.53 44.7279 143.778 47.6303C141.025 50.5327 137.473 52.5536 133.572 53.4372C129.67 54.3209 125.594 54.0277 121.86 52.5947C118.125 51.1616 114.899 48.6532 112.59 45.3867C110.281 42.1201 108.993 38.2422 108.888 34.2433C108.783 30.2444 109.866 26.3043 112.001 22.9212C114.862 18.3867 119.407 15.174 124.637 13.9895C129.866 12.8051 135.352 13.7458 139.888 16.605V16.605Z" fill="white"/>
<path d="M129.07 54.3333C125.87 54.3338 122.714 53.5899 119.851 52.1604C116.988 50.7308 114.497 48.6548 112.575 46.0966C110.653 43.5383 109.353 40.5679 108.777 37.4204C108.2 34.2728 108.364 31.0344 109.256 27.9612C110.147 24.8879 111.741 22.0642 113.912 19.7133C116.083 17.3624 118.771 15.5488 121.763 14.4158C124.756 13.2829 127.971 12.8617 131.154 13.1857C134.338 13.5096 137.402 14.5697 140.105 16.2822V16.2822C143.893 18.6668 146.801 22.2189 148.392 26.4023C149.983 30.5856 150.169 35.173 148.923 39.4716C147.677 43.7702 145.066 47.5466 141.485 50.2306C137.903 52.9145 133.545 54.3602 129.07 54.3494V54.3333ZM129.134 13.8622C127.65 13.8624 126.17 14.0274 124.722 14.3543C120.247 15.3657 116.262 17.8972 113.445 21.5176C110.628 25.138 109.153 29.6233 109.272 34.2091C109.391 38.7949 111.096 43.1976 114.098 46.6669C117.099 50.1363 121.21 52.4577 125.731 53.2355C130.252 54.0134 134.903 53.1996 138.891 50.9329C142.879 48.6661 145.958 45.0867 147.603 40.8043C149.248 36.522 149.357 31.8019 147.912 27.4481C146.467 23.0943 143.557 19.3763 139.678 16.9276C136.525 14.9268 132.868 13.8637 129.134 13.8622Z" fill="#D1D3D4"/>
<path d="M179.689 68.1117C180.561 67.7083 180.803 66.5951 180.835 65.6271C180.889 63.8041 180.579 61.9886 179.923 60.2869L183.102 67.2808C183.631 68.68 184.428 69.9625 185.449 71.056C185.97 71.5925 186.633 71.9694 187.36 72.1423C188.087 72.3152 188.849 72.277 189.555 72.0321C191.532 71.1448 191.862 68.4827 191.588 66.337C191.341 64.331 190.812 62.3702 190.015 60.5127C189.404 58.8384 188.298 57.3895 186.845 56.3583C185.336 55.4226 183.19 55.35 181.924 56.5761C180.536 54.4546 177.673 50.639 174.607 51.3973C172.599 51.8893 172.833 53.0106 173.236 54.8579C173.793 57.3506 176.156 69.7653 179.689 68.1117Z" fill="white"/>
<path d="M188.354 72.6854C187.166 72.6445 186.034 72.1678 185.175 71.3464C184.124 70.2132 183.303 68.8874 182.755 67.442L181.223 64.0621C181.265 64.5987 181.279 65.1373 181.263 65.6754C181.215 67.1355 180.739 68.0954 179.883 68.5149C179.625 68.646 179.339 68.7144 179.049 68.7144C178.758 68.7144 178.472 68.646 178.214 68.5149C175.794 67.3049 174.18 60.9967 173.011 55.6081L172.865 54.9627C172.486 53.2364 172.123 51.6069 174.535 51.0181C176.947 50.4292 179.448 52.1635 182.029 55.9953C182.785 55.5169 183.66 55.263 184.554 55.263C185.448 55.263 186.324 55.5169 187.079 55.9953C188.608 57.0659 189.772 58.581 190.411 60.3352C191.219 62.2277 191.762 64.223 192.024 66.2643C192.169 67.4017 192.427 71.1931 189.757 72.3789C189.317 72.582 188.838 72.6866 188.354 72.6854V72.6854ZM179.924 59.8835C180 59.883 180.076 59.9049 180.14 59.9465C180.205 59.988 180.256 60.0474 180.287 60.1174L183.465 67.1113C183.983 68.4575 184.749 69.6944 185.724 70.7575C186.187 71.241 186.778 71.5828 187.428 71.7428C188.078 71.9028 188.76 71.8744 189.394 71.661C191.556 70.6929 191.314 67.3775 191.193 66.3853C190.944 64.4163 190.423 62.4914 189.644 60.6659C189.07 59.0667 188.02 57.6816 186.635 56.6971C185.377 55.8904 183.409 55.7129 182.199 56.8665C182.157 56.9092 182.107 56.9418 182.051 56.9614C181.995 56.981 181.935 56.9872 181.876 56.9794C181.818 56.9723 181.762 56.9527 181.712 56.9221C181.661 56.8915 181.619 56.8505 181.586 56.8019C179.867 54.1641 177.278 51.1552 174.705 51.7844C173.14 52.1716 173.204 52.8492 173.632 54.7691L173.769 55.4225C174.358 58.1733 176.149 66.5386 178.552 67.7405C178.702 67.8183 178.868 67.8589 179.036 67.8589C179.205 67.8589 179.371 67.8183 179.52 67.7405V67.7405C180.222 67.4098 180.408 66.4014 180.432 65.6109C180.486 63.8399 180.185 62.0761 179.545 60.4239C179.525 60.3757 179.515 60.3241 179.515 60.2721C179.516 60.22 179.526 60.1685 179.546 60.1205C179.567 60.0726 179.596 60.0291 179.633 59.9925C179.67 59.956 179.714 59.9271 179.762 59.9077C179.814 59.8882 179.869 59.88 179.924 59.8835V59.8835Z" fill="#231F20"/>
<path d="M169.041 65.1266C169.041 65.1266 178.721 68.7163 179.794 79.3725Z" fill="white"/>
<path d="M179.746 79.776C179.646 79.7764 179.55 79.7392 179.477 79.6719C179.404 79.6046 179.359 79.5122 179.351 79.413C178.326 69.144 168.952 65.5382 168.864 65.5059C168.764 65.4662 168.684 65.3892 168.64 65.2913C168.596 65.1933 168.593 65.0822 168.63 64.9816C168.668 64.8825 168.743 64.8024 168.84 64.7586C168.937 64.7148 169.047 64.7109 169.146 64.7476C169.251 64.7476 179.084 68.5471 180.157 79.3324C180.163 79.3854 180.158 79.439 180.143 79.49C180.127 79.5411 180.102 79.5887 180.068 79.6299C180.035 79.6712 179.993 79.7053 179.946 79.7304C179.899 79.7555 179.847 79.771 179.794 79.776H179.746Z" fill="#231F20"/>
<path d="M125.529 82.0269C125.529 82.0269 165.911 119.941 166.331 117.456C169.001 101.911 171.122 88.6174 171.122 88.6174L197.469 89.6903C197.469 89.6903 197.469 163.905 179.722 165.704C166.282 167.059 119.438 123.2 119.438 123.2L125.529 82.0269Z" fill="#FFBC5A"/>
<path d="M132.281 184.273C132.176 184.272 132.076 184.231 132 184.159C131.924 184.088 131.877 183.99 131.869 183.886L124.367 95.5789C124.384 95.4885 124.431 95.4063 124.499 95.3448C124.567 95.2834 124.654 95.2461 124.746 95.2388C124.838 95.2314 124.929 95.2544 125.006 95.3042C125.084 95.354 125.143 95.4279 125.174 95.5144L132.741 183.822C132.745 183.876 132.739 183.93 132.722 183.982C132.705 184.033 132.678 184.081 132.643 184.122C132.608 184.163 132.565 184.197 132.517 184.222C132.468 184.246 132.415 184.261 132.361 184.265L132.281 184.273Z" fill="#231F20"/>
<path d="M70.6261 182.402L18.4017 180.7C18.3466 180.697 18.2925 180.685 18.2424 180.662C18.1923 180.639 18.1472 180.606 18.1097 180.565C18.0723 180.525 18.0431 180.477 18.024 180.426C18.0049 180.374 17.9962 180.319 17.9984 180.264C18.0065 180.154 18.056 180.051 18.1368 179.977C18.2176 179.902 18.3238 179.86 18.434 179.861L70.2469 181.555L71.7232 153.805L35.592 149.529C35.5343 149.52 35.479 149.5 35.4291 149.47C35.3793 149.439 35.336 149.399 35.3016 149.352C35.2694 149.304 35.2472 149.25 35.2361 149.193C35.225 149.136 35.2253 149.078 35.2371 149.021C39.94 129.153 46.9178 99.0798 46.8371 97.6681C46.8129 97.5622 46.8316 97.4511 46.889 97.3589C46.9464 97.2667 47.038 97.201 47.1437 97.176C47.2536 97.1541 47.3678 97.1754 47.4625 97.2355C47.5571 97.2956 47.625 97.3899 47.6519 97.4987C47.9584 98.7249 38.3751 139.39 36.1567 148.755L72.2072 153.03C72.312 153.043 72.4082 153.095 72.4757 153.176C72.5433 153.257 72.5771 153.361 72.5702 153.466L71.0536 182.006C71.0474 182.115 70.9993 182.217 70.9196 182.29C70.8399 182.364 70.7347 182.404 70.6261 182.402V182.402Z" fill="#231F20"/>
<path d="M105.975 124.853L155.207 133.864L141.171 199.979L89.9062 194.034L105.975 124.853Z" fill="#231F20"/>
<path d="M141.178 200.382H141.13L89.8571 194.445C89.8012 194.437 89.7475 194.418 89.699 194.389C89.6505 194.36 89.6083 194.321 89.5748 194.276C89.5433 194.229 89.5213 194.176 89.5103 194.121C89.4992 194.066 89.4992 194.009 89.5103 193.953L105.579 124.764C105.603 124.663 105.664 124.574 105.751 124.517C105.839 124.46 105.945 124.439 106.047 124.458L155.255 133.477C155.307 133.485 155.357 133.505 155.402 133.534C155.446 133.563 155.484 133.601 155.513 133.646C155.574 133.739 155.597 133.851 155.577 133.961L141.541 200.068C141.522 200.152 141.477 200.228 141.411 200.285C141.346 200.342 141.264 200.376 141.178 200.382V200.382ZM90.3976 193.687L140.855 199.535L154.722 134.195L106.281 125.321L90.3976 193.687Z" fill="#231F20"/>
<path d="M112.066 155.507C111.687 151.191 97.6828 157.064 97.6828 157.064C97.6828 157.064 101.636 148.061 99.514 146.424C97.3924 144.786 90.2614 155.612 90.2614 155.612C84.2739 156.539 78.2263 157.024 72.1676 157.064L70.9092 177.15C90.9955 175.698 104.023 175.125 104.644 173.835C105.871 171.261 112.445 159.823 112.066 155.507Z" fill="white"/>
<path d="M70.9091 177.513C70.8611 177.515 70.8133 177.507 70.7688 177.489C70.7243 177.471 70.6841 177.443 70.651 177.408C70.6119 177.373 70.5815 177.329 70.5619 177.28C70.5424 177.231 70.5342 177.179 70.538 177.126L71.7965 157.04C71.8044 156.946 71.8468 156.859 71.9153 156.795C71.9839 156.731 72.0737 156.695 72.1675 156.693V156.693C78.1529 156.657 84.1275 156.182 90.0435 155.273C90.9793 153.878 96.0856 146.351 98.7395 145.908C98.9128 145.872 99.0915 145.874 99.2639 145.913C99.4363 145.952 99.5985 146.027 99.7398 146.133C101.7 147.65 99.3445 154.007 98.3685 156.386C100.982 155.362 108.936 152.458 111.533 154.023C111.792 154.171 112.01 154.382 112.168 154.635C112.326 154.889 112.418 155.177 112.437 155.475V155.475C112.752 159.137 108.404 167.438 106.056 171.899C105.572 172.81 105.193 173.512 104.975 173.988C104.419 175.158 98.6831 175.601 82.1865 176.731C78.75 176.965 74.9909 177.223 70.893 177.537L70.9091 177.513ZM72.5225 157.435L71.3125 176.747L82.1461 175.997C94.1818 175.19 103.684 174.529 104.33 173.665C104.54 173.214 104.927 172.48 105.411 171.56C107.548 167.478 112.009 158.992 111.711 155.539C111.7 155.358 111.645 155.181 111.549 155.026C111.453 154.871 111.32 154.743 111.162 154.652C108.888 153.281 100.764 156.169 97.836 157.403C97.7675 157.432 97.6918 157.44 97.6188 157.425C97.5458 157.411 97.4789 157.374 97.4267 157.321C97.3745 157.268 97.3395 157.201 97.3262 157.128C97.3129 157.054 97.3219 156.979 97.352 156.911C98.8363 153.539 100.676 147.779 99.2961 146.714C99.235 146.671 99.1651 146.641 99.0913 146.627C99.0174 146.613 98.9414 146.615 98.8686 146.634C96.8035 146.98 92.1893 153.377 90.584 155.822C90.5243 155.905 90.4348 155.963 90.3339 155.983C84.4349 156.881 78.4809 157.372 72.5144 157.451L72.5225 157.435Z" fill="#231F20"/>
<path d="M163.306 130.484H163.225C163.171 130.474 163.12 130.452 163.074 130.422C163.029 130.391 162.99 130.352 162.96 130.306C162.93 130.26 162.909 130.209 162.899 130.155C162.889 130.101 162.89 130.046 162.902 129.992L170.162 95.4742C170.173 95.4204 170.194 95.3693 170.225 95.3238C170.255 95.2783 170.295 95.2394 170.34 95.2093C170.386 95.1793 170.438 95.1587 170.492 95.1488C170.545 95.1388 170.601 95.1398 170.654 95.1516C170.762 95.1748 170.856 95.2395 170.916 95.3315C170.977 95.4236 170.999 95.5357 170.977 95.6436L163.717 130.161C163.696 130.255 163.644 130.338 163.569 130.397C163.494 130.455 163.401 130.486 163.306 130.484V130.484Z" fill="#231F20"/>
<path d="M119.463 129.161L121.754 123.877L143.107 127.653V133.227L119.463 129.161Z" fill="#231F20"/>
<path d="M143.107 133.63H143.042L119.399 129.597C119.337 129.589 119.279 129.567 119.228 129.532C119.177 129.497 119.135 129.45 119.106 129.395C119.076 129.341 119.061 129.28 119.06 129.218C119.059 129.157 119.073 129.095 119.1 129.04L121.383 123.756C121.418 123.671 121.482 123.601 121.562 123.557C121.643 123.513 121.736 123.498 121.827 123.514L143.179 127.29C143.273 127.307 143.358 127.357 143.419 127.431C143.479 127.504 143.512 127.597 143.51 127.693V133.251C143.51 133.31 143.497 133.368 143.472 133.421C143.447 133.474 143.41 133.52 143.365 133.557C143.289 133.609 143.198 133.634 143.107 133.63V133.63ZM120.044 128.855L142.704 132.743V127.983L122.004 124.329L120.044 128.855Z" fill="#231F20"/>
<path d="M75.4669 109.785C75.1457 109.77 74.8387 109.648 74.5957 109.438C70.772 106.485 64.1815 80.478 64.5606 77.4691C64.9801 74.1617 70.409 69.6685 70.643 69.4749C70.7297 69.4055 70.8403 69.3733 70.9507 69.3854C71.0611 69.3975 71.1622 69.4529 71.2318 69.5394C71.2664 69.5812 71.2924 69.6294 71.3083 69.6813C71.3242 69.7331 71.3296 69.7876 71.3244 69.8416C71.3191 69.8955 71.3033 69.948 71.2777 69.9958C71.2521 70.0436 71.2173 70.0859 71.1754 70.1202C71.1189 70.1686 65.7625 74.5973 65.3915 77.5739C65.0285 80.4215 71.5545 106.034 75.0716 108.784C75.2572 108.921 75.4024 108.978 75.5153 108.938C78.742 107.631 87.5025 95.4257 87.6155 95.3047C87.6802 95.2156 87.7774 95.1554 87.886 95.1373C87.9947 95.1192 88.1062 95.1446 88.1963 95.2079C88.2413 95.2393 88.2796 95.2793 88.3089 95.3257C88.3383 95.3721 88.358 95.4238 88.367 95.4779C88.3761 95.5321 88.3742 95.5874 88.3615 95.6408C88.3488 95.6942 88.3255 95.7445 88.2931 95.7887C87.9301 96.297 79.3228 108.316 75.846 109.704C75.7268 109.757 75.5976 109.785 75.4669 109.785Z" fill="#231F20"/>
<path d="M113.275 105.13H113.122C110.428 104.831 106.031 95.7725 105.539 94.748C105.492 94.6474 105.487 94.5323 105.525 94.428C105.563 94.3237 105.64 94.2386 105.741 94.1914C105.839 94.1443 105.952 94.1383 106.055 94.1746C106.158 94.2109 106.242 94.2866 106.289 94.385C108.072 98.1199 111.525 104.114 113.211 104.299C113.301 104.311 113.393 104.296 113.475 104.256C113.557 104.216 113.625 104.152 113.671 104.073C115.719 101.451 118.511 86.7376 116.558 79.4937C116.529 79.3867 116.542 79.2723 116.597 79.1755C116.651 79.0787 116.742 79.0075 116.849 78.9774C116.902 78.9629 116.957 78.9591 117.012 78.9663C117.066 78.9736 117.119 78.9916 117.166 79.0194C117.213 79.0472 117.255 79.0843 117.287 79.1283C117.32 79.1724 117.344 79.2225 117.357 79.2759C119.406 86.8748 116.51 101.79 114.332 104.589C114.211 104.757 114.052 104.893 113.869 104.987C113.685 105.081 113.482 105.13 113.275 105.13V105.13Z" fill="#231F20"/>
<path d="M129 12C116.869 12 107 21.8693 107 34C107 46.1307 116.869 56 129 56C141.131 56 151 46.1307 151 34C151 21.8693 141.131 12 129 12ZM136.965 39.573C137.129 39.7286 137.26 39.9154 137.351 40.1223C137.441 40.3293 137.489 40.5523 137.492 40.7782C137.495 41.0041 137.453 41.2282 137.367 41.4375C137.282 41.6467 137.156 41.8368 136.997 41.9965C136.837 42.1562 136.647 42.2824 136.437 42.3675C136.228 42.4526 136.004 42.4949 135.778 42.492C135.552 42.4891 135.329 42.4411 135.122 42.3506C134.915 42.2602 134.729 42.1292 134.573 41.9655L129 36.3936L123.427 41.9655C123.107 42.2695 122.681 42.4364 122.24 42.4308C121.798 42.4251 121.377 42.2473 121.065 41.9352C120.753 41.6232 120.575 41.2016 120.569 40.7603C120.564 40.319 120.731 39.8929 121.035 39.573L126.606 34L121.035 28.427C120.731 28.1071 120.564 27.681 120.569 27.2397C120.575 26.7985 120.753 26.3768 121.065 26.0648C121.377 25.7527 121.798 25.5749 122.24 25.5692C122.681 25.5636 123.107 25.7305 123.427 26.0345L129 31.6064L134.573 26.0345C134.893 25.7305 135.319 25.5636 135.76 25.5692C136.202 25.5749 136.623 25.7527 136.935 26.0648C137.247 26.3768 137.425 26.7985 137.431 27.2397C137.436 27.681 137.269 28.1071 136.965 28.427L131.394 34L136.965 39.573Z" fill="#A20000"/>
<path d="M104.11 58C103.5 57.9988 102.894 58.0832 102.316 58.2497C99.8884 58.9579 98.1044 61.1397 97.0073 64.7379C96.9915 64.7921 97.0015 64.8496 97.035 64.8976C97.0686 64.9456 97.123 64.9801 97.1862 64.9937C97.2495 65.0073 97.3164 64.9987 97.3723 64.9699C97.4282 64.9411 97.4685 64.8945 97.4843 64.8402C98.5337 61.3853 100.218 59.2976 102.483 58.6386C105.503 57.7544 108.584 59.7643 108.613 59.7848C108.637 59.8014 108.666 59.8137 108.696 59.821C108.726 59.8283 108.758 59.8304 108.789 59.8271C108.82 59.8239 108.851 59.8154 108.878 59.8022C108.905 59.7889 108.929 59.7712 108.949 59.75C108.968 59.7287 108.983 59.7044 108.991 59.6784C109 59.6524 109.002 59.6253 108.998 59.5985C108.995 59.5717 108.985 59.5458 108.969 59.5223C108.954 59.4987 108.933 59.478 108.908 59.4614C107.515 58.5738 105.844 58.0648 104.11 58Z" fill="#231F20"/>
</svg>
