<svg width="514" height="437" viewBox="0 0 514 437" fill="none" xmlns="http://www.w3.org/2000/svg">
<path d="M256.904 436.628C392.159 436.628 501.804 432.733 501.804 427.928C501.804 423.123 392.159 419.228 256.904 419.228C121.65 419.228 12.0042 423.123 12.0042 427.928C12.0042 432.733 121.65 436.628 256.904 436.628Z" fill="#C1C7D2"/>
<path d="M392.204 93.528L386.004 99.428C386.004 99.428 331.704 41.928 317.604 27.528C303.504 13.128 298.204 10.128 283.904 11.128C275.304 11.728 267.104 14.828 260.304 20.028L255.204 8.92799C255.204 8.92799 279.004 -1.67201 292.304 0.227989C305.604 2.12799 315.904 12.028 325.904 21.628C335.804 31.328 392.204 93.528 392.204 93.528Z" fill="#8D99AD"/>
<path d="M233.504 8.32798C233.504 8.32798 263.404 -0.172027 267.304 9.52797C271.204 19.228 246.304 36.028 246.304 36.028C246.304 36.028 240.704 34.028 236.404 24.428C232.004 14.828 233.504 8.32798 233.504 8.32798Z" fill="#C1C7D2"/>
<path d="M266.104 151.328C266.104 151.328 275.704 40.728 387.304 62.128C498.904 83.528 480.004 253.728 405.204 336.528C330.404 419.328 321.504 428.828 321.504 428.828C321.504 428.828 223.404 397.328 167.604 359.528C111.804 321.728 27.2041 221.528 97.6041 136.528C168.204 51.6279 266.104 151.328 266.104 151.328Z" fill="#EE243D"/>
<path d="M167.704 359.528C111.904 321.728 27.3043 221.528 97.8043 136.528C100.904 132.828 104.104 129.328 107.604 126.028C98.0043 159.028 90.5042 212.328 119.704 259.928C159.304 324.328 282.304 404.928 318.604 427.828C302.004 422.428 217.804 393.528 167.704 359.528Z" fill="#D91F2B"/>
<path d="M438.704 148.528C423.004 93.8279 380.704 69.9279 352.104 59.7279C363.904 59.0279 375.704 59.8279 387.304 62.2279C483.004 80.5279 482.704 208.328 433.504 296.528C443.804 254.928 452.504 196.828 438.704 148.528Z" fill="#F05470"/>
<path d="M52.3041 262.028L58.2041 278.928C58.2041 278.928 35.4041 288.528 24.6041 311.828C13.8041 335.128 18.5041 357.528 45.2041 370.228C72.0041 383.028 108.804 382.028 138.504 360.128C168.204 338.228 184.904 321.328 225.204 320.128C265.504 318.928 304.804 351.828 330.504 371.428C356.304 391.028 373.204 408.728 397.504 408.228C421.804 407.728 449.304 403.028 473.304 377.828C497.404 352.628 499.404 336.328 493.704 307.328C488.104 278.328 475.504 262.128 475.504 262.128L488.304 250.828C488.304 250.828 499.404 256.828 510.604 300.928C521.804 344.928 501.704 394.628 460.204 413.328C418.704 432.028 388.904 437.528 344.904 406.828C300.904 376.128 273.704 337.128 225.104 338.528C176.504 339.928 158.304 385.628 105.804 394.528C53.3041 403.428 12.7041 384.428 2.40406 351.328C-7.89594 318.228 17.6041 288.228 27.9041 278.928C38.3041 269.628 52.3041 262.028 52.3041 262.028Z" fill="#2B2D42"/>
<path d="M35.7041 272.628C41.0041 268.728 46.6041 265.128 52.3041 261.928L58.2041 278.828C53.0041 281.228 48.2041 284.228 43.8041 287.828C40.2041 283.328 37.5041 278.128 35.7041 272.628Z" fill="#1A1C2B"/>
<path d="M94.8041 204.128C121.904 204.128 143.904 226.128 143.904 253.228C143.904 280.328 121.904 302.328 94.8041 302.328C67.7041 302.328 45.7041 280.328 45.7041 253.228C45.7041 226.128 67.6041 204.128 94.8041 204.128Z" fill="#8D99AD"/>
<path d="M94.804 214.328C116.304 214.328 133.804 231.728 133.804 253.328C133.804 274.828 116.404 292.328 94.804 292.328C73.304 292.328 55.804 274.928 55.804 253.328C55.804 231.728 73.204 214.328 94.804 214.328Z" fill="#C1C7D2"/>
<path d="M475.604 262.228L488.404 250.928C488.404 250.928 492.204 252.928 497.504 263.328C497.004 264.928 496.204 266.528 495.104 267.928C493.704 269.528 489.704 272.428 483.204 275.328C481.104 270.728 478.604 266.328 475.604 262.228Z" fill="#1A1C2B"/>
<path d="M294.604 213.228L298.404 205.528C298.404 205.528 227.504 170.428 209.704 161.128C191.904 151.828 187.404 147.728 184.204 133.728C182.304 125.328 182.804 116.628 185.804 108.528L173.704 106.928C173.704 106.928 170.504 132.828 176.304 144.928C182.004 157.028 194.504 164.028 206.604 170.828C218.604 177.428 294.604 213.228 294.604 213.228Z" fill="#8D99AD"/>
<path d="M166.704 86.328C166.704 86.328 167.304 117.428 177.704 118.328C188.104 119.228 197.004 90.528 197.004 90.528C197.004 90.528 193.504 85.828 183.004 84.428C172.504 83.028 166.704 86.328 166.704 86.328Z" fill="#C1C7D2"/>
<path d="M439.304 276.528C434.804 276.528 430.304 276.228 425.804 275.728C417.204 274.828 404.704 270.928 388.504 264.328C375.604 259.028 360.304 252.028 343.204 243.428C314.204 228.828 289.104 214.428 288.804 214.228L297.104 198.428C297.304 198.528 323.804 212.328 352.904 226.228C370.104 234.428 385.004 241.228 397.104 246.328C412.204 252.728 423.104 256.428 429.304 257.428C434.704 258.328 440.104 258.828 445.604 258.828C463.304 258.828 470.604 252.928 473.004 250.328C475.304 247.828 477.404 241.528 477.104 232.928C476.804 225.328 474.504 212.828 465.004 197.028C465.904 187.928 466.204 178.828 465.904 169.628C473.904 179.628 479.804 187.728 483.504 193.728C491.604 206.928 495.504 222.228 494.804 237.728C494.604 243.028 493.804 248.328 492.404 253.428C491.104 257.928 489.804 260.428 488.904 261.328C487.404 263.028 482.404 266.728 473.804 270.128C469.004 272.028 464.004 273.428 458.904 274.328C452.504 275.928 445.904 276.528 439.304 276.528Z" fill="#2B2D42"/>
<path d="M466.204 169.928L474.704 181.228C474.704 181.228 475.904 186.628 474.704 196.528C474.204 201.428 473.304 206.328 472.104 211.028C472.104 211.028 469.204 203.928 468.004 201.828C466.804 199.728 465.004 197.028 465.004 197.028C465.004 197.028 466.104 185.828 466.204 178.228C466.304 170.528 466.204 169.928 466.204 169.928Z" fill="#1A1C2B"/>
</svg>
