<svg width="403" height="304" viewBox="0 0 403 304" fill="none" xmlns="http://www.w3.org/2000/svg">
<path opacity="0.18" d="M351.011 293.61C371.062 286.027 389.19 269.807 393.121 248.706C396.36 231.301 389.683 213.631 381.566 197.886C373.449 182.14 363.617 166.926 359.829 149.635C352.772 117.48 367.33 81.8086 353.502 51.9385C349.344 42.9709 342.846 35.2355 335.506 28.6472C303.407 -0.0568695 255.207 -6.48401 214.092 6.20912C172.977 18.9023 138.652 48.5354 113.401 83.4012C102.983 97.7722 93.928 113.12 82.5718 126.742C67.4365 144.886 47.7927 160.811 41.2196 183.477C36.4365 199.858 39.3253 217.603 45.0081 233.719C53.7503 258.422 91.4181 302.36 109.348 302.275C149.307 302.076 225.979 304.038 263.021 302.616C290.773 301.526 321.962 304.588 351.011 293.61Z" fill="#FFBC5A"/>
<path d="M179.721 260.328C178.773 263.029 177.94 266.129 179.313 268.641C180.232 270.042 181.468 271.205 182.922 272.035L195.993 280.927C198.502 282.633 201.164 284.387 204.176 284.614C207.188 284.842 210.607 282.918 210.863 279.875C211.166 276.396 207.519 274.016 205.814 270.964C203.579 266.963 204.81 262.006 205.975 257.569C208.913 246.403 211.059 235.044 212.397 223.575C209.717 222.476 201.912 217.556 199.137 218.371C196.011 219.319 193.189 228.069 191.797 230.922C187.09 240.43 183.055 250.256 179.721 260.328Z" fill="#F1AF8C"/>
<path d="M204.792 185.297C201.401 194.938 197.802 204.607 192.365 213.271C192.168 213.522 192.064 213.834 192.072 214.153C192.158 214.453 192.345 214.714 192.602 214.892C198.067 219.679 203.968 224.675 211.157 225.708C211.625 225.817 212.116 225.774 212.558 225.585C212.973 225.291 213.28 224.868 213.43 224.381C218.014 213.755 219.633 202.114 219.482 190.606C219.383 184.857 218.927 179.12 218.118 173.429C217.929 172.045 217.824 165.902 216.622 165.181C214.794 164.101 212.786 167.874 211.99 169.058C208.694 173.997 206.743 179.685 204.792 185.297Z" fill="white"/>
<path d="M219.652 166.926C219.652 166.926 215.381 168.528 211.905 180.567C208.429 192.606 200.132 221.784 200.132 221.784C200.132 221.784 212.966 228.201 216.176 225.794C219.387 223.386 219.652 166.926 219.652 166.926Z" fill="url(#paint0_linear)"/>
<path d="M256.06 154.526C263.05 154.308 270.125 154.65 276.849 156.545C283.574 158.441 289.967 162.025 294.381 167.456C299.268 173.466 301.409 181.325 301.901 189.051C302.394 196.777 301.371 204.522 300.594 212.238C298.775 230.299 298.293 248.471 299.155 266.603C299.363 270.945 301.845 293.61 298.795 296.71C296.9 298.663 300.689 300.616 297.99 301.26C275.921 306.569 236.274 303.962 215.38 295.108C210.067 292.852 204.734 289.714 202.12 284.576C199.279 279.012 206.95 256.953 207.869 250.763C210.654 231.873 212.662 212.882 213.893 193.791C214.433 185.344 213.808 176.244 215.541 167.949C216.801 161.93 220.674 160.29 226.263 158.811C236.004 156.275 245.999 154.837 256.06 154.526Z" fill="white"/>
<path d="M274.217 253.351C273.488 257.19 272.531 261.2 269.908 264.101C267.832 266.177 265.294 267.73 262.501 268.632C249.336 273.599 234.323 272.822 221.708 279.059C220.818 279.45 219.998 279.984 219.283 280.642C216.849 283.05 217.531 287.278 219.463 290.122C223.753 296.407 232.098 298.17 239.627 299.336C257.68 302.18 276.111 304.502 294.154 301.592C295.136 301.521 296.075 301.162 296.854 300.559C297.476 299.835 297.875 298.946 298 297.999C302.091 279.818 298.871 260.887 298.795 242.25C298.795 231.5 299.743 220.741 299.013 210.02C298.646 203.348 297.26 196.772 294.903 190.52C293.226 186.273 288.32 176.898 285.374 185.6C280.696 199.431 279.351 214.342 277.665 228.761C276.746 236.98 275.761 245.208 274.217 253.351Z" fill="url(#paint1_linear)"/>
<path d="M279.862 286.681H126.785C122.49 286.681 119.009 290.165 119.009 294.464C119.009 298.762 122.49 302.246 126.785 302.246H279.862C284.156 302.246 287.638 298.762 287.638 294.464C287.638 290.165 284.156 286.681 279.862 286.681Z" fill="#FFBC5A"/>
<path d="M279.862 286.681H126.785C122.49 286.681 119.009 290.165 119.009 294.464C119.009 298.762 122.49 302.246 126.785 302.246H279.862C284.156 302.246 287.638 298.762 287.638 294.464C287.638 290.165 284.156 286.681 279.862 286.681Z" fill="url(#paint2_linear)"/>
<path d="M239.173 169.258C236.038 168.755 234.276 165.598 235.678 157.996C235.829 157.152 236.028 156.337 236.256 155.522C236.256 155.37 236.341 155.218 236.379 155.067C236.72 153.891 237.108 152.716 237.487 151.55C238.541 148.752 239.099 145.79 239.135 142.8C239.05 140.62 238.879 138.354 239.684 136.344C240.458 134.639 241.67 133.17 243.198 132.088C246.579 129.481 256.458 124.58 258.352 131.055C259.195 133.823 258.58 137.046 258.542 139.88C258.352 143.942 259.098 147.993 260.72 151.72C262.785 155.872 246.873 170.49 239.173 169.258Z" fill="#F1AF8C"/>
<path d="M236.947 153.815C236.947 153.815 254.413 147.18 257.784 136.686L239.173 142.781C239.173 142.781 238.728 152.384 236.947 153.815Z" fill="url(#paint3_linear)"/>
<path d="M284.294 176.509C282.512 196.342 285.797 216.303 293.841 234.515C294.079 235.187 294.48 235.789 295.006 236.269C295.856 236.797 296.85 237.042 297.848 236.97C305.639 237.138 313.262 234.688 319.5 230.012C321.394 228.581 323.174 226.751 323.335 224.523C323.34 223.329 323.105 222.146 322.644 221.044C317.809 206.981 312.164 193.209 305.738 179.799C303.351 174.832 300.149 169.011 294.372 166.821C287.42 164.195 284.777 171.315 284.294 176.509Z" fill="white"/>
<path d="M250.453 187.847C255.633 182.377 259.432 175.77 263.182 169.239C265.465 165.257 267.804 161.096 268.126 156.508C268.207 155.987 268.125 155.453 267.889 154.981C267.661 154.652 267.364 154.377 267.018 154.176L259.905 149.35C259.782 153.721 256.647 157.474 253.067 159.987C249.278 162.679 238.433 165.627 240.754 171.21C241.332 172.623 249.846 188.482 250.453 187.847Z" fill="#FFBC5A"/>
<path d="M250.453 187.847C255.633 182.377 259.432 175.77 263.182 169.239C265.465 165.257 267.804 161.096 268.126 156.508C268.207 155.987 268.125 155.453 267.889 154.981C267.661 154.652 267.364 154.377 267.018 154.176L259.905 149.35C259.782 153.721 256.647 157.474 253.067 159.987C249.278 162.679 238.433 165.627 240.754 171.21C241.332 172.623 249.846 188.482 250.453 187.847Z" fill="url(#paint4_linear)"/>
<path d="M290.924 290.245L332.409 282.311C334.862 281.837 337.419 281.363 339.361 279.751C342.022 277.609 342.96 273.855 342.572 270.452C342.183 267.049 340.677 263.892 339.181 260.802C333.29 248.592 321.337 226.675 321.261 227.955C314.006 229.491 308.001 229.567 301.769 233.557C300.696 234.137 299.789 234.982 299.136 236.013C296.645 240.752 303.455 247.672 305.766 251.275C306.652 252.426 307.243 253.777 307.49 255.209C307.539 256.221 307.351 257.231 306.94 258.157C304.696 263.674 296.702 266.888 291.786 269.722C285.359 273.611 278.153 276.032 270.684 276.813C264.887 277.306 258.968 276.557 253.304 277.855C249.83 278.684 246.575 280.25 243.759 282.448C240.943 284.647 238.633 287.425 236.984 290.596C240.356 292.738 244.741 291.497 248.625 290.52C255.82 288.734 263.258 288.135 270.646 288.747C275.438 289.155 288.651 294.71 290.924 290.245Z" fill="#F1AF8C"/>
<path d="M226.784 302.256H109.338L78.3571 223.575C77.9372 222.526 77.781 221.389 77.9021 220.265C78.0233 219.141 78.4181 218.064 79.052 217.128C79.6859 216.193 80.5395 215.427 81.5379 214.898C82.5364 214.369 83.6492 214.094 84.7787 214.096H176.974C181.439 214.093 185.801 215.437 189.492 217.951C193.183 220.465 196.032 224.034 197.669 228.192L226.784 302.256Z" fill="#FFBC5A"/>
<path d="M226.784 302.256H109.338L78.3571 223.575C77.9372 222.526 77.781 221.389 77.9021 220.265C78.0233 219.141 78.4181 218.064 79.052 217.128C79.6859 216.193 80.5395 215.427 81.5379 214.898C82.5364 214.369 83.6492 214.094 84.7787 214.096H176.974C181.439 214.093 185.801 215.437 189.492 217.951C193.183 220.465 196.032 224.034 197.669 228.192L226.784 302.256Z" fill="url(#paint5_linear)"/>
<path d="M220.817 302.341H109.225L79.7878 227.633C79.396 226.637 79.253 225.561 79.3714 224.497C79.4898 223.434 79.866 222.416 80.4672 221.531C81.0684 220.646 81.8764 219.921 82.821 219.42C83.7657 218.919 84.8183 218.657 85.8874 218.656H173.46C177.701 218.659 181.844 219.937 185.35 222.326C188.856 224.714 191.564 228.102 193.123 232.05L220.817 302.341Z" fill="url(#paint6_linear)"/>
<path d="M235.384 42.696C238.226 41.0276 241.067 39.3307 244.278 38.7051C247.489 38.0794 251.855 38.4586 254.024 40.8854C251.212 41.0834 248.471 41.8659 245.978 43.183C243.484 44.5002 241.292 46.3231 239.542 48.5354C239.38 48.8229 239.122 49.0442 238.813 49.161C238.549 49.1888 238.282 49.1395 238.046 49.0188C236.739 48.5259 226.945 50.7631 226.377 49.5781C226.405 49.5781 234.181 43.4259 235.384 42.696Z" fill="#FFBC5A"/>
<path d="M235.384 42.696C238.226 41.0276 241.067 39.3307 244.278 38.7051C247.489 38.0794 251.855 38.4586 254.024 40.8854C251.212 41.0834 248.471 41.8659 245.978 43.183C243.484 44.5002 241.292 46.3231 239.542 48.5354C239.38 48.8229 239.122 49.0442 238.813 49.161C238.549 49.1888 238.282 49.1395 238.046 49.0188C236.739 48.5259 226.945 50.7631 226.377 49.5781C226.405 49.5781 234.181 43.4259 235.384 42.696Z" fill="url(#paint7_linear)"/>
<path d="M214.215 114.987C220.565 114.987 225.713 108.638 225.713 100.806C225.713 92.9734 220.565 86.6242 214.215 86.6242C207.865 86.6242 202.717 92.9734 202.717 100.806C202.717 108.638 207.865 114.987 214.215 114.987Z" fill="#FFBC5A"/>
<path d="M216.574 115.518C222.448 115.518 227.21 109.644 227.21 102.398C227.21 95.1524 222.448 89.2785 216.574 89.2785C210.7 89.2785 205.938 95.1524 205.938 102.398C205.938 109.644 210.7 115.518 216.574 115.518Z" fill="#FFBC5A"/>
<path d="M216.574 115.518C222.448 115.518 227.21 109.644 227.21 102.398C227.21 95.1524 222.448 89.2785 216.574 89.2785C210.7 89.2785 205.938 95.1524 205.938 102.398C205.938 109.644 210.7 115.518 216.574 115.518Z" fill="url(#paint8_linear)"/>
<path d="M212.833 75.9692L215.494 124.704C215.494 124.704 216.678 143.094 234.892 143.274C256.771 143.492 263.429 130.761 266.754 121.073C270.078 111.385 273.081 82.9272 266.754 75.0592C260.427 67.1911 224.824 47.8244 212.833 75.9692Z" fill="#F1AF8C"/>
<path d="M226.671 46.7058C218.09 46.5541 208.287 50.564 204.375 58.669C203.436 60.5339 202.925 62.585 202.879 64.6727C202.833 66.7604 203.254 68.8321 204.11 70.7365C204.424 71.2966 204.672 71.8915 204.848 72.5092C204.934 73.1922 204.934 73.8832 204.848 74.5662C204.774 76.2129 205.106 77.8526 205.814 79.3406C206.523 80.8285 207.587 82.1189 208.912 83.0978C210.418 84.188 212.246 84.8705 213.449 86.283L212.984 77.211C212.877 76.7208 212.969 76.2081 213.238 75.7852C213.508 75.3623 213.935 75.0637 214.424 74.9549L220.192 72.2627C220.192 72.2627 221.973 73.5614 222.191 73.6657C223.148 74.0737 224.181 74.2709 225.222 74.2439C227.482 74.2973 229.744 74.1705 231.984 73.8647C236.824 73.1727 241.456 71.4001 245.973 69.6369C245.827 71.0384 245.221 72.3519 244.25 73.3718L258.959 76.2157C261.113 79.1805 262.85 82.4276 264.121 85.8659C265.137 88.5532 265.806 91.3599 266.11 94.2174C266.503 98.1022 266.14 102.027 265.039 105.773C266.04 105.01 266.915 104.095 267.634 103.062C268.964 103.986 270.436 104.687 271.991 105.138C272.315 105.258 272.666 105.288 273.005 105.223C273.725 105.024 273.876 104.171 273.952 103.488C274.539 97.374 279.085 92.2077 281.169 86.3683C283.698 79.2965 282.419 71.3432 278.555 64.7928C277.41 62.7172 275.853 60.8978 273.98 59.4463C267.208 54.479 257.585 56.7541 249.857 54.1567C246.182 52.9244 243.227 50.5829 239.713 49.0378C235.811 47.3789 230.923 46.7816 226.671 46.7058Z" fill="#3F3D56"/>
<path d="M226.671 46.7058C218.09 46.5541 208.287 50.564 204.375 58.669C203.436 60.5339 202.925 62.585 202.879 64.6727C202.833 66.7604 203.254 68.8321 204.11 70.7365C204.424 71.2966 204.672 71.8915 204.848 72.5092C204.934 73.1922 204.934 73.8832 204.848 74.5662C204.774 76.2129 205.106 77.8526 205.814 79.3406C206.523 80.8285 207.587 82.1189 208.912 83.0978C210.418 84.188 212.246 84.8705 213.449 86.283L212.984 77.211C212.877 76.7208 212.969 76.2081 213.238 75.7852C213.508 75.3623 213.935 75.0637 214.424 74.9549L220.192 72.2627C220.192 72.2627 221.973 73.5614 222.191 73.6657C223.148 74.0737 224.181 74.2709 225.222 74.2439C227.482 74.2973 229.744 74.1705 231.984 73.8647C236.824 73.1727 241.456 71.4001 245.973 69.6369C245.827 71.0384 245.221 72.3519 244.25 73.3718L258.959 76.2157C261.113 79.1805 262.85 82.4276 264.121 85.8659C265.137 88.5532 265.806 91.3599 266.11 94.2174C266.503 98.1022 266.14 102.027 265.039 105.773C266.04 105.01 266.915 104.095 267.634 103.062C268.964 103.986 270.436 104.687 271.991 105.138C272.315 105.258 272.666 105.288 273.005 105.223C273.725 105.024 273.876 104.171 273.952 103.488C274.539 97.374 279.085 92.2077 281.169 86.3683C283.698 79.2965 282.419 71.3432 278.555 64.7928C277.41 62.7172 275.853 60.8978 273.98 59.4463C267.208 54.479 257.585 56.7541 249.857 54.1567C246.182 52.9244 243.227 50.5829 239.713 49.0378C235.811 47.3789 230.923 46.7816 226.671 46.7058Z" fill="url(#paint9_linear)"/>
<path d="M277.551 116.589C283.833 116.589 288.926 110.303 288.926 102.55C288.926 94.7962 283.833 88.5106 277.551 88.5106C271.269 88.5106 266.176 94.7962 266.176 102.55C266.176 110.303 271.269 116.589 277.551 116.589Z" fill="#FFBC5A"/>
<path d="M277.551 116.589C283.833 116.589 288.926 110.303 288.926 102.55C288.926 94.7962 283.833 88.5106 277.551 88.5106C271.269 88.5106 266.176 94.7962 266.176 102.55C266.176 110.303 271.269 116.589 277.551 116.589Z" fill="url(#paint10_linear)"/>
<path d="M281.907 116.589C288.19 116.589 293.283 110.303 293.283 102.55C293.283 94.7962 288.19 88.5106 281.907 88.5106C275.625 88.5106 270.532 94.7962 270.532 102.55C270.532 110.303 275.625 116.589 281.907 116.589Z" fill="#FFBC5A"/>
<path d="M281.993 89.6292L276.31 90.2359L274.956 90.3781L269.273 62.385C266.318 51.3128 259.091 42.8002 250.027 39.5013C248.624 39.0114 247.13 38.8335 245.651 38.9799L241.777 39.3307L243.672 38.8283L247.46 37.8234C248.644 37.4965 249.87 37.3464 251.097 37.3779C261.213 37.7476 270.807 45.9095 274.283 57.6073L281.993 89.6292Z" fill="#FFBC5A"/>
<path d="M281.993 89.6292L276.31 90.2359L274.956 90.3781L269.273 62.385C266.318 51.3128 259.091 42.8002 250.027 39.5013C248.624 39.0114 247.13 38.8335 245.651 38.9799L241.777 39.3307L243.672 38.8283L247.46 37.8234C248.644 37.4965 249.87 37.3464 251.097 37.3779C261.213 37.7476 270.807 45.9095 274.283 57.6073L281.993 89.6292Z" fill="url(#paint11_linear)"/>
<path d="M281.993 89.6292L276.31 90.2359L270.628 62.1764C267.625 50.9905 260.332 42.4115 251.183 39.0842C249.767 38.5764 248.255 38.3949 246.76 38.5533L243.672 38.8283L247.46 37.8234C248.644 37.4965 249.87 37.3464 251.097 37.3779C261.213 37.7476 270.807 45.9095 274.283 57.6073L281.993 89.6292Z" fill="#FFBC5A"/>
<path opacity="0.45" d="M162.739 4.89148H23.8592C15.678 4.89148 9.0459 11.5293 9.0459 19.7175V182.937C9.0459 191.125 15.678 197.763 23.8592 197.763H162.739C170.92 197.763 177.552 191.125 177.552 182.937V19.7175C177.552 11.5293 170.92 4.89148 162.739 4.89148Z" fill="#FFBC5A"/>
<path d="M59.8594 179.315C73.7841 179.315 85.0723 168.017 85.0723 154.081C85.0723 140.144 73.7841 128.846 59.8594 128.846C45.9347 128.846 34.6465 140.144 34.6465 154.081C34.6465 168.017 45.9347 179.315 59.8594 179.315Z" fill="url(#paint12_linear)"/>
<path d="M131.757 23.1776H24.0576V29.2445H131.757V23.1776Z" fill="#FFBC5A"/>
<path opacity="0.51" d="M135.006 102.958H27.3066V109.024H135.006V102.958Z" fill="#FFBC5A"/>
<path d="M103.864 92.5774H27.3066V98.6443H103.864V92.5774Z" fill="#FFBC5A"/>
<path d="M165.589 92.5774H114.339V98.6443H165.589V92.5774Z" fill="#FFBC5A"/>
<path d="M165.418 54.1757H86.6162V59.5695H165.418V54.1757Z" fill="#FFBC5A"/>
<path opacity="0.51" d="M154.413 63.7405H70.1074V69.1344H154.413V63.7405Z" fill="#FFBC5A"/>
<path d="M80.602 54.1757H28.7744V59.5695H80.602V54.1757Z" fill="#FFBC5A"/>
<path d="M165.419 73.0305H51.5059V78.4244H165.419V73.0305Z" fill="#FFBC5A"/>
<path opacity="0.51" d="M45.5009 73.0305H28.7744V78.4244H45.5009V73.0305Z" fill="#FFBC5A"/>
<path opacity="0.51" d="M165.409 82.6049H90.2246V87.9987H165.409V82.6049Z" fill="#FFBC5A"/>
<path d="M80.602 82.6049H28.7744V87.9987H80.602V82.6049Z" fill="#FFBC5A"/>
<path d="M62.1043 63.5131H28.7744V68.9069H62.1043V63.5131Z" fill="#FFBC5A"/>
<path d="M147.082 163.067L148.436 158.754C148.436 158.754 143.085 154.526 142.924 154.792L142.706 151.673L147.603 146.459L145.348 142.544C145.348 142.544 138.718 143.625 138.718 143.928C137.439 142.724 136.061 141.63 134.598 140.658L134.39 133.548L130.033 132.363C130.033 132.363 126.046 137.899 126.311 138.051C126.311 138.051 123.242 138.695 121.774 139.16L116.811 134.932L113.023 137.378C113.023 137.378 114.15 142.658 114.595 143.767C113.534 144.933 112.208 146.251 112.208 146.251L105.142 147.388L104.536 151.862C104.536 151.862 109.509 154.555 110.475 154.83C110.495 156.279 110.718 157.718 111.138 159.105L107.283 165.039L110.191 168.49C110.191 168.49 114.045 167.134 115.722 166.395C117.285 167.817 119.51 169.504 119.51 169.504L121.291 176.443L125.799 176.633C125.799 176.633 127.968 171.58 128.196 170.471C129.646 170.309 131.108 170.29 132.562 170.414L138.898 173.741L142.071 170.518C141.156 168.47 140.135 166.47 139.012 164.527C139.414 164.038 139.778 163.518 140.101 162.973L147.082 163.067ZM126.055 163.228C124.283 163.23 122.549 162.706 121.075 161.722C119.6 160.738 118.45 159.338 117.771 157.699C117.091 156.061 116.912 154.257 117.257 152.517C117.601 150.777 118.454 149.178 119.707 147.923C120.959 146.668 122.556 145.813 124.294 145.466C126.033 145.119 127.835 145.296 129.472 145.975C131.11 146.653 132.51 147.803 133.495 149.278C134.48 150.753 135.006 152.487 135.006 154.261C135.003 156.637 134.06 158.915 132.382 160.596C130.704 162.277 128.429 163.223 126.055 163.228Z" fill="url(#paint13_linear)"/>
<path d="M206.714 73.514C208.391 70.1961 212.028 68.2244 215.693 67.6272C219.359 67.0299 223.109 67.5798 226.775 68.1391C223.223 70.9829 213.306 75.2203 213.117 75.9787C212.983 77.3208 212.968 78.672 213.07 80.0169C213.202 81.9697 213.268 84.0173 213.259 85.9701C212.344 85.0732 211.319 84.296 210.209 83.6571C209.255 83.2888 208.385 82.7309 207.652 82.0171C206.694 80.8408 206.096 79.4125 205.929 77.904C205.763 76.3956 206.036 74.8711 206.714 73.514Z" fill="url(#paint14_linear)"/>
<path d="M254.952 136.582C250.673 136.495 246.43 135.786 242.355 134.477C241.872 134.333 241.467 134.002 241.228 133.559C240.989 133.115 240.936 132.595 241.081 132.112C241.225 131.629 241.555 131.224 241.999 130.985C242.442 130.745 242.962 130.692 243.444 130.837C253.199 133.776 260.54 133.387 265.228 129.68C271.612 124.666 271.195 115.11 271.195 115.016C271.17 114.513 271.345 114.021 271.683 113.647C272.02 113.274 272.492 113.05 272.995 113.025C273.497 113 273.989 113.175 274.362 113.513C274.735 113.851 274.959 114.323 274.984 114.826C274.984 115.29 275.486 126.457 267.568 132.676C264.272 135.273 260.066 136.575 254.952 136.582Z" fill="#FFBC5A"/>
<path d="M254.952 136.582C250.673 136.495 246.43 135.786 242.355 134.477C241.872 134.333 241.467 134.002 241.228 133.559C240.989 133.115 240.936 132.595 241.081 132.112C241.225 131.629 241.555 131.224 241.999 130.985C242.442 130.745 242.962 130.692 243.444 130.837C253.199 133.776 260.54 133.387 265.228 129.68C271.612 124.666 271.195 115.11 271.195 115.016C271.17 114.513 271.345 114.021 271.683 113.647C272.02 113.274 272.492 113.05 272.995 113.025C273.497 113 273.989 113.175 274.362 113.513C274.735 113.851 274.959 114.323 274.984 114.826C274.984 115.29 275.486 126.457 267.568 132.676C264.272 135.273 260.066 136.575 254.952 136.582Z" fill="url(#paint15_linear)"/>
<path d="M243.34 127.633C244.427 128.179 245.279 129.102 245.737 130.23C246.153 131.842 244.903 133.387 243.615 134.439C242.508 135.427 241.146 136.083 239.684 136.335C237.544 136.591 235.498 135.434 233.717 134.212C232.724 133.605 231.876 132.786 231.236 131.813C229.588 128.912 231.719 125.178 234.513 123.945C237.61 122.609 240.906 126.031 243.34 127.633Z" fill="#FFBC5A"/>
<path d="M243.34 127.633C244.427 128.179 245.279 129.102 245.737 130.23C246.153 131.842 244.903 133.387 243.615 134.439C242.508 135.427 241.146 136.083 239.684 136.335C237.544 136.591 235.498 135.434 233.717 134.212C232.724 133.605 231.876 132.786 231.236 131.813C229.588 128.912 231.719 125.178 234.513 123.945C237.61 122.609 240.906 126.031 243.34 127.633Z" fill="url(#paint16_linear)"/>
<defs>
<linearGradient id="paint0_linear" x1="261.658" y1="194.663" x2="196.779" y2="197.511" gradientUnits="userSpaceOnUse">
<stop offset="0.01"/>
<stop offset="1" stop-opacity="0"/>
</linearGradient>
<linearGradient id="paint1_linear" x1="36589.8" y1="53829" x2="12266.4" y2="38524.8" gradientUnits="userSpaceOnUse">
<stop offset="0.01"/>
<stop offset="1" stop-opacity="0"/>
</linearGradient>
<linearGradient id="paint2_linear" x1="34644.1" y1="5022" x2="34646.6" y2="5467.31" gradientUnits="userSpaceOnUse">
<stop offset="0.01"/>
<stop offset="1" stop-opacity="0"/>
</linearGradient>
<linearGradient id="paint3_linear" x1="5638.56" y1="2786.12" x2="5555.89" y2="3573.55" gradientUnits="userSpaceOnUse">
<stop offset="0.01"/>
<stop offset="1" stop-opacity="0"/>
</linearGradient>
<linearGradient id="paint4_linear" x1="245.565" y1="158.546" x2="265.633" y2="177.525" gradientUnits="userSpaceOnUse">
<stop offset="0.02" stop-color="white" stop-opacity="0"/>
<stop offset="0.58" stop-color="white" stop-opacity="0.39"/>
<stop offset="1" stop-color="white"/>
</linearGradient>
<linearGradient id="paint5_linear" x1="36647" y1="12998.2" x2="30351.3" y2="31787.6" gradientUnits="userSpaceOnUse">
<stop offset="0.01"/>
<stop offset="1" stop-opacity="0"/>
</linearGradient>
<linearGradient id="paint6_linear" x1="176.927" y1="339.131" x2="118.02" y2="175.395" gradientUnits="userSpaceOnUse">
<stop offset="0.01"/>
<stop offset="0.09" stop-opacity="0.82"/>
<stop offset="1" stop-opacity="0"/>
</linearGradient>
<linearGradient id="paint7_linear" x1="7054.92" y1="789.454" x2="7064.88" y2="1039.99" gradientUnits="userSpaceOnUse">
<stop offset="0.01"/>
<stop offset="1" stop-opacity="0"/>
</linearGradient>
<linearGradient id="paint8_linear" x1="4983.81" y1="2359.78" x2="4656.04" y2="3400.81" gradientUnits="userSpaceOnUse">
<stop offset="0.01"/>
<stop offset="1" stop-opacity="0"/>
</linearGradient>
<linearGradient id="paint9_linear" x1="21810.7" y1="5647.84" x2="20788.7" y2="6750.15" gradientUnits="userSpaceOnUse">
<stop offset="0.01"/>
<stop offset="1" stop-opacity="0"/>
</linearGradient>
<linearGradient id="paint10_linear" x1="6763.44" y1="3114.24" x2="6432.6" y2="3167.86" gradientUnits="userSpaceOnUse">
<stop offset="0.01"/>
<stop offset="1" stop-opacity="0"/>
</linearGradient>
<linearGradient id="paint11_linear" x1="11968.7" y1="4730.91" x2="10568.7" y2="5192.94" gradientUnits="userSpaceOnUse">
<stop offset="0.01"/>
<stop offset="1" stop-opacity="0"/>
</linearGradient>
<linearGradient id="paint12_linear" x1="64.3773" y1="63.6932" x2="58.7131" y2="176.831" gradientUnits="userSpaceOnUse">
<stop offset="0.02" stop-color="white" stop-opacity="0"/>
<stop offset="0.58" stop-color="white" stop-opacity="0.39"/>
<stop offset="0.68" stop-color="white" stop-opacity="0.68"/>
<stop offset="1" stop-color="white"/>
</linearGradient>
<linearGradient id="paint13_linear" x1="6817.73" y1="6004.27" x2="5761.91" y2="8509.83" gradientUnits="userSpaceOnUse">
<stop offset="0.02" stop-color="white" stop-opacity="0"/>
<stop offset="0.58" stop-color="white" stop-opacity="0.39"/>
<stop offset="0.68" stop-color="white" stop-opacity="0.68"/>
<stop offset="1" stop-color="white"/>
</linearGradient>
<linearGradient id="paint14_linear" x1="4837.01" y1="2362.43" x2="4871.32" y2="1812.2" gradientUnits="userSpaceOnUse">
<stop offset="0.01"/>
<stop offset="1" stop-opacity="0"/>
</linearGradient>
<linearGradient id="paint15_linear" x1="9147.16" y1="3647.83" x2="9333.93" y2="4201.65" gradientUnits="userSpaceOnUse">
<stop offset="0.02" stop-color="white" stop-opacity="0"/>
<stop offset="0.58" stop-color="white" stop-opacity="0.39"/>
<stop offset="0.68" stop-color="white" stop-opacity="0.68"/>
<stop offset="1" stop-color="white"/>
</linearGradient>
<linearGradient id="paint16_linear" x1="4036.34" y1="2114.55" x2="3895.38" y2="2452.86" gradientUnits="userSpaceOnUse">
<stop offset="0.01"/>
<stop offset="1" stop-opacity="0"/>
</linearGradient>
</defs>
</svg>
