<svg xmlns="http://www.w3.org/2000/svg" version="1.1" xmlns:xlink="http://www.w3.org/1999/xlink" xmlns:svgjs="http://svgjs.com/svgjs" width="1440" height="312" preserveAspectRatio="none" viewBox="0 0 1440 312"><g mask="url(&quot;#SvgjsMask1112&quot;)" fill="none"><rect width="1440" height="312" x="0" y="0" fill="rgba(17, 105, 142, 1)"></rect><path d="M1440 0L954.79 0L1440 147.63z" fill="rgba(255, 255, 255, .1)"></path><path d="M954.79 0L1440 147.63L1440 202.54L894.53 0z" fill="rgba(255, 255, 255, .075)"></path><path d="M894.53 0L1440 202.54L1440 221.41L465.9 0z" fill="rgba(255, 255, 255, .05)"></path><path d="M465.9 0L1440 221.41L1440 223.53L455.64 0z" fill="rgba(255, 255, 255, .025)"></path><path d="M0 312L93.71 312L0 176.91z" fill="rgba(0, 0, 0, .1)"></path><path d="M0 176.91L93.71 312L537.14 312L0 99.57z" fill="rgba(0, 0, 0, .075)"></path><path d="M0 99.57L537.14 312L663.5799999999999 312L0 62.18999999999999z" fill="rgba(0, 0, 0, .05)"></path><path d="M0 62.19L663.5799999999999 312L867.1999999999999 312L0 33.65z" fill="rgba(0, 0, 0, .025)"></path></g><defs><mask id="SvgjsMask1112"><rect width="1440" height="312" fill="#ffffff"></rect></mask></defs></svg>